<?xml version="1.0" encoding="utf-8"?>
<!-- Generator: Adobe Illustrator 26.5.1, SVG Export Plug-In . SVG Version: 6.00 Build 0)  -->
<svg version="1.1" id="圖層_1" xmlns="http://www.w3.org/2000/svg" xmlns:xlink="http://www.w3.org/1999/xlink" x="0px" y="0px"
	 viewBox="0 0 166.8 120.7" style="enable-background:new 0 0 166.8 120.7;" xml:space="preserve">
<style type="text/css">
	.st0{opacity:0.7;}
	.st1{fill:#798F9C;}
	.st2{opacity:0.7;fill:#798F9C;enable-background:new    ;}
	.st3{opacity:0.9;}
</style>
<g>
	<g>
		<g class="st0">
			<path class="st1" d="M1.5,54.7l-1.2-1.1c0.8-0.5,1.4-1.2,1.8-1.9c0.4-0.7,0.9-1.8,1.3-3.2l1.4,0.5c-0.1,0.2-0.1,0.3-0.1,0.5h3.5
				c0.3,0,0.5,0.2,0.5,0.5c0,0.9-0.3,2-0.8,3.3c-0.1,0.1-0.1,0.3-0.2,0.4c-1.1,2.7-3.1,4.5-6,5.6l-1.2-1.4c1.8-0.5,3.3-1.2,4.3-2.2
				c-0.4-0.4-1-1.1-2-2.1C2.4,54,2,54.3,1.5,54.7L1.5,54.7z M14.5,43.4l1.3,0.8c-0.3,0.6-0.7,1.3-1.2,2H17l1.4,0.7
				c0,0.9-0.3,2-0.7,3.3l-1.5-0.5c0.3-1,0.4-1.6,0.4-1.8c0-0.2-0.1-0.2-0.2-0.2H2.3c-0.1,0-0.2,0.1-0.2,0.2v2.2H0.6v-3.6
				c0-0.2,0.1-0.3,0.3-0.3h3c-0.5-1-0.8-1.6-0.9-1.8l1.5-0.7c0.4,0.8,0.8,1.5,1,2.1l-0.9,0.3h8C13.5,45.1,14.1,44.2,14.5,43.4
				L14.5,43.4z M16.5,42.8c-1.2,0.3-3.2,0.5-5.9,0.7c-3.7,0.2-6.7,0.3-9,0.3L1.4,42c2.3,0,5,0,8-0.2c3.1-0.2,5.4-0.4,6.9-0.7
				C16.3,41.1,16.5,42.8,16.5,42.8z M5.6,54.5c0.5-0.8,0.9-1.9,1.2-3.2c0.1-0.2,0-0.3-0.2-0.3H4.1c-0.2,0.5-0.4,1-0.5,1.3
				c0.2,0.2,0.6,0.6,1,1C4.9,53.7,5.3,54.1,5.6,54.5z M9.6,43.7c0.1,0.2,0.2,0.4,0.4,0.9c0.2,0.4,0.3,0.8,0.4,1.1l-1.6,0.4
				c-0.1-0.3-0.4-0.9-0.7-1.9L9.6,43.7L9.6,43.7z M8.3,56.7v-1.5H10v-3.5H9.2v-1.5h4.4v-1.4h1.6v1.4h1.5v1.5h-1.5v3.5h2.6v1.5h-2.6
				v2.5h-1.6v-2.5C13.6,56.7,8.3,56.7,8.3,56.7z M13.6,51.6h-2v3.5h2V51.6z"/>
			<path class="st1" d="M6.9,78.1v2c0,0.7-0.1,1.5-0.3,2.3c-0.1,0.3-0.2,0.6-0.3,0.9c-1,2.2-2.7,4-5.2,5.2L0,87
				c0.9-0.4,1.7-0.8,2.3-1.3c1.9-1.3,2.8-3.2,2.9-5.7v-2H0.4v-1.7H18v1.7h-5.5v7.6c0,0.3,0.1,0.5,0.3,0.7c0.2,0.2,0.4,0.3,0.7,0.3
				h2.3c0.2,0,0.4-0.1,0.5-0.2c0.1-0.1,0.2-0.2,0.2-0.5c0-0.6,0-1.5,0-2.8l1.7,0.2c0,2.6-0.2,4-0.5,4.3c-0.4,0.5-0.9,0.7-1.2,0.7h-4
				c-0.4,0-0.8-0.2-1.2-0.6c-0.3-0.4-0.5-0.8-0.5-1.2v-8.5L6.9,78.1L6.9,78.1z M16.5,71.3V73H2v-1.7H16.5L16.5,71.3z"/>
		</g>
		<path class="st1" d="M82.2,64.5c-3.5-2.6-7.8,0.1-11.2,1.5c-2.2,0.9-4.3,1.7-6.5,2.5c-6.7,2.4-13.5,4.4-20.3,6.7
			c-1.2,0.4-2.5,0.9-3.8,0.8c-0.5-0.1-1.4-0.2-1.7-0.8c-0.3-0.7,0.5-1.6,1-2.1c1.5-2,3.6-3.2,5.2-5.1c1.6-1.8,2.9-4,5-5.2
			c0.5-0.3,1-0.5,1.4-0.9c0.3-0.3,2.6-4.1,3.1-3.1s0.6,2.2,0.7,3.3c0,0.3,0,0.6,0.1,0.8c0.7,2.4,2.9,2.6,5,2.2
			c3.6-0.7,1.5-7.8,1.1-10c-0.3-1.5-0.5-2.8,0.4-4.1c1.1-1.6,2.9-2.5,4.3-3.8c2.4-2,4.7-4.2,6.9-6.3c3-2.7,5.8-6.1,9.6-7.8
			c0.5-0.2,1-0.4,1.4-0.8c0.4-0.4,0.7-0.8,1-1.3c1-2,1.1-4.4,0.4-6.5c-0.4-1.3-1.3-2-2.5-2.5c-1.2-0.5-2.8-1.6-4.1-1.7
			c-2.3-0.1-3.7,2.5-4.5,4.3c-1.5,3.3-2.7,9.6-6.9,10.5c-2.5,0.5-5,0.4-7.5,0.6c-0.3-1.9-0.5-3.5-0.4-5.4c0.1-2.1,0.2-4.2,0.3-6.3
			c0-3,0.3-4.5,0.4-7.5c0.2-4.9-0.4-9.7-0.2-14.6c0-0.4,0-0.8-0.2-1.1c-1.1-2.2-3.6,1.4-4,2.3c-1.9,4.3-2,7.7-2.4,11.5
			c-0.4,4.1-0.4,6.6-0.3,10.8c0,1.4,0.3,2.7,0.3,4.1c0,1.1-0.4,2.1-0.5,3.1c-0.3,2.4,0,4.5-2.3,5.9c-1.2,0.8-2.7,1.2-4.2,1.5
			c-1.8,0.3-3.6,0.5-5.4,0.6c-1,0-3.9,0.7-4.2-0.7c-0.4-3,1.3-4.9,2.4-7.6c0.8-2,1-4.6-0.5-6.2c-0.3-0.3-0.6-0.5-0.9-0.6
			c-1-0.2-1.8,0.9-2.3,1.8c-1.2,2.3-2.5,4.6-3.8,6.9c-1.4,2.5-2.8,5.1-3.3,8s0.1,6,2.2,8c0.6,0.6,1.5,1.1,2.3,1.2
			c1,0.1,2-0.3,2.9-0.8c2.5-1.3,4.4-3.5,6.8-4.7c2.7-1.4,6-1.6,8.8-3c0.3-0.2,0.7-0.3,0.9-0.1c0.1,0.1,0.2,0.3,0.3,0.4
			c0.4,1.2,0.2,2.5,0.2,3.7s0.4,2.7-0.6,3.7c-7.4,7.4-12.8,16.3-20.7,23.3c-1.5,1.3-3.9,2.7-4.5,4.7c-0.7,2.4-1.5,4.8-1.6,7.3
			c0,0.3,0.9,0.6,0.5,0.6c-0.1,0,1.5,1.7,1.5,1.8c1.3,0.3,2.4,1.1,3.8,0.8c1.8-0.4,3.4-2.3,4.9-3.3c0-0.5,3.9-2.3,4.4-2.7
			c4.1-2.6,8.5-4.7,13-6.6c2.3-0.9,4.6-1.8,6.9-2.6c1.5-0.5,3.1-0.8,4.8-0.8c0.3,0,0.7,0,1,0.1c3,1.2-3.9,5.9-4.8,6.8
			c-2.2,2.2-4.3,4.7-6.3,7c-2.1,2.4-4.2,4.4-6.6,6.5c-2.5,2.2-4.9,4.6-7.2,7.1c1.3,0,2.4-0.8,3.4-1.6c2.7-2,5.4-4.1,8.2-6.1
			c1.8-1.3,3.5-2.7,5.2-4.1c1.6-1.5,3.3-3.2,5-4.7c2.5-2.1,5.2-3.9,8.1-5.5c1.5-0.8,3-1.6,4.5-2.3c1.2-0.6,2.5-1.1,3.7-1.6
			c0.3-0.1,0.6-0.2,1-0.3c0.4-0.1,0.8-0.1,1.1-0.2c1.6-0.4,1.9-1.8,3.2-2.5c1.3-0.7,0-4.1-0.5-4.9C83.6,65.8,82.9,65.1,82.2,64.5
			L82.2,64.5z"/>
		<g class="st0">
			<path class="st1" d="M164.7,55c-0.7-1.2-1.5-2.4-2.6-3.1c-1.1-0.7-2.5-0.8-3.8-0.8c-3.9-0.1-7.8,0-11.6,0.5
				c-3.7,0-11.4,2.1-13.1,2.2c-1.4,0.1-2.7-0.8-3.6-1.9c-0.9-1.1-1.3-2.5-1.6-3.8c-0.1-0.5-0.2-1,0.1-1.3c0.3-0.4,0.9-0.4,1.4-0.4
				c1.9,0.2,3.8,0.5,5.7,0.2c1.9-0.4,3.7-1.9,3.7-3.8c0-0.4-0.1-0.8-0.2-1.1c-0.5-1.2-1.7-2.1-2.9-2.4c-1.6-0.5-3.4-0.2-5,0.1
				c-5,0.8-10,1.6-15.1,2.4c-0.8,0.1-1.8,0.4-2.1,1.1c-0.4,0.9,0.4,2,1.1,2.7c1.4,1.4,3.2,2.8,5.2,2.5c1.9-0.2,3.9-1.9,5.4-0.8
				c0.5,0.3,0.8,0.9,0.9,1.5c0.7,2.1,0.5,4.4-0.5,6.4c-0.2,0.5-0.6,0.9-0.7,1.5c-0.2,0.7,0,1.5,0.2,2.3c0.3,1.3,0.5,2.8,0.2,4.1
				c-0.3,1.3-1.4,2.6-2.8,2.8c-0.7,0.1-1.3,0-1.9-0.3c-1.6-0.6-3-1.6-3.9-3c-0.3-0.4-0.6-0.9-0.5-1.4c0.1-0.4,0.4-0.8,0.7-1
				c1.8-1.4,4.4-2,5.3-4c-2.6,0.6-5.4,0.5-8,1c-1.1,0.2-2.3,0.7-3.5,0.7l-0.7-0.1c0,0-2.8-3.9-4.5-1c-3.5,6.3-6.9,11-7.9,12.4
				c-0.3,0.5-1.2,1.5-2.2,2.6c-0.2,0.1-0.4,0.2-0.6,0.3c-1.4,0.8-4.2,4.8-4.8,5.9c-0.4,0.8-0.9,1.5-1.3,2.4c-0.2,0.3-0.3,0.7-0.2,1
				c0.1,0.5,0.5,0.9,0.9,1.1c1.7,0.8,4.1,1,5.9,1c0.4,0,0.9,0,1.3-0.1c1.8-0.6,3.3-3.6,4.2-5.1c1.2-2,2.2-4.1,3.4-6.1
				c2.2-3.7,5.2-6.3,8.2-9.2c0.4-0.4,1-0.8,1.5-0.5c0.5,2.1-0.9,9.4-0.1,10.9c0.6,1.1,2.2,1.4,3.3,0.8c1.1-0.5,1.9-1.6,2.4-2.8
				c0.4-0.9,0.7-2,1.5-2.7s2.1-0.9,2.7-0.1c0.3,0.5,0.3,1.1,0.3,1.7c-0.1,1.7-0.2,3.4-0.3,5.2c-0.1,1.1-0.1,2.3,0.3,3.4
				c0.4,1.1,1.4,2,2.6,1.8c1.6-0.2,2.3-2.1,2.7-3.7c0.8-4,1.7-8,1.4-12.1c-0.1-1.9-0.4-3.8,0-5.6s2.1-3.5,4-3.2
				c1.3,2.4-0.2,5.4,0.1,8.2c0.4,2.9,2.7,5.2,5.1,7c0.2,0.2,0.5,0.4,0.8,0.5c0.7,0.3,1.5-0.1,2.1-0.5c2.2-1.7,2.1-5.1,1-7.7
				c-1-2.6-2.7-5-3.1-7.7c0-0.3-0.1-0.5,0.1-0.8c0.2-0.2,0.5-0.2,0.7-0.3c4-0.3,8.1-0.6,11.8,1.1c0.4,0.2,0.9,0.4,1.1,0.8
				c0.8,1,0.4,2.4-0.3,3.5c-0.7,1-1.7,1.9-2.1,3c-0.1,0.2-0.2,0.5-0.1,0.7c0.1,0.2,0.3,0.4,0.5,0.6c1.6,1.1,3.4,1.8,5.3,2.1
				c3.4,0.5,7.5-0.9,8.4-4.3C167.3,59.6,165.9,57.1,164.7,55L164.7,55z"/>
			<path class="st1" d="M119.3,88.3c0,0,0.1,0.1,0.1,0.1c0,0.1,0.1,0.1,0.1,0.1c0,0,0.1,0.1,0.1,0.1c0.3,0,0.6,0,0.8,0
				c3-0.1,6.4,0.1,9.3-0.2c3.1-0.2,5.3-1,8-1.5c1.1-0.5,3.1-0.5,3.3-2c-0.8-2-3.3-2-5.6-2.2c-1.6-0.2-4,0.7-5.6,0.9
				c-2,0.3-4.1,0.6-6.1,1c-0.2,0-2.2,0.4-4.4,0.8c-0.2,0.4-0.3,0.9-0.4,1.3s-0.1,0.9,0.1,1.3c0,0.1,0,0,0,0.1
				C119.3,88.2,119.3,88.3,119.3,88.3L119.3,88.3z"/>
			<path class="st1" d="M136.4,109.9c-0.8,0.2-8.1,0.3-7.7-1.2c0-0.1,0.1-0.3,0.2-0.4c1.6-2.4,3.3-4.8,5-7.2
				c0.2-0.3,0.4-0.6,0.7-0.8c1-0.7,2.1-0.1,3.2,0c1.3,0.1,2.8-0.1,4-0.6c1.7-0.6,4.4-3.1,3.2-5.1c-0.2-0.3-0.4-0.6-0.8-0.8
				c-1.3-0.8-3.1-1.2-4.6-1.3c-3-0.3-6,0.3-8.9,0.9c-2.2,0.5-4.5,0.9-6.7,1.2c-2.4,0.3-4.6,1-7,0.8c-1.8-0.1-3.7-0.8-5.5,0
				c-1,0.5-1.5,1.6-2.1,2.6c-0.1,0.1-0.1,0.2-0.1,0.3c0,0.1,0.1,0.2,0.2,0.3c1.5,1.4,3.6,2,5.6,2c2.6,0,5.3-0.3,7.9-0.6
				c0.3,0,4.7-0.8,4.3,0.7c-1.1,3.7-4.9,5.8-7.7,8.1c-2.7,2.2-6.2,2.8-9.5,3.3c-0.9,0.1-1.9,0.5-2.2,1.4c-0.8,1.9-0.1,2.6,1.5,3.6
				c1.8,1.1,3.5,0.1,5.4-0.4c2.7-0.7,5.2-1.5,7.8-2.4c3.2-1.1,6.6,1.3,9.6,0C134.1,113.7,134.8,111.3,136.4,109.9L136.4,109.9z"/>
			<path class="st1" d="M145.9,112c-1.9-2.8-5.5-5.4-8.4-3.3c-0.6,0.9,0.4,1.4,0.7,2.2c0.4,1,0.2,2.3-0.1,3.3
				c-0.5,2.3-1.9,4.4-3.1,6.4c0.1-0.1,3.7,0,4.1-0.1c3.5-0.3,9.2-2.2,7.7-6.7C146.7,113.3,146.4,112.7,145.9,112L145.9,112z"/>
		</g>
		<g class="st0">
			<path class="st1" d="M27.6,114.2c0.5,0.1,0.9,0.3,1.1,0.5c0.4,0.3,0.5,0.7,0.5,1.2c0,0.4-0.1,0.7-0.4,1.1c-0.2,0.3-0.5,0.6-1,0.7
				c-0.4,0.2-1,0.2-1.9,0.2h-3.5v-0.2h0.3c0.3,0,0.5-0.1,0.7-0.3c0.1-0.1,0.1-0.4,0.1-0.8v-4.8c0-0.5,0-0.7-0.2-0.9
				c-0.1-0.2-0.4-0.2-0.6-0.2h-0.3v-0.2h3.2c0.6,0,1.1,0,1.4,0.1c0.5,0.1,1,0.4,1.2,0.7c0.3,0.3,0.4,0.7,0.4,1.1
				c0,0.4-0.1,0.7-0.3,1C28.4,113.8,28,114,27.6,114.2L27.6,114.2z M24.8,113.9c0.1,0,0.3,0,0.5,0.1c0.2,0,0.4,0,0.6,0
				c0.5,0,0.9-0.1,1.2-0.2s0.5-0.3,0.6-0.5c0.1-0.2,0.2-0.5,0.2-0.8c0-0.4-0.2-0.8-0.5-1.1s-0.9-0.5-1.5-0.5c-0.4,0-0.7,0-1,0.1
				L24.8,113.9L24.8,113.9z M24.8,117.4c0.4,0.1,0.8,0.2,1.2,0.2c0.6,0,1.1-0.2,1.5-0.4c0.3-0.3,0.5-0.7,0.5-1.1
				c0-0.3-0.1-0.6-0.2-0.8s-0.4-0.5-0.8-0.6s-0.8-0.2-1.3-0.2c-0.2,0-0.4,0-0.6,0c-0.2,0-0.3,0-0.4,0L24.8,117.4L24.8,117.4z"/>
			<path class="st1" d="M31,114.8c0,0.7,0.2,1.3,0.5,1.7c0.4,0.4,0.8,0.6,1.3,0.6c0.3,0,0.6-0.1,0.8-0.3c0.2-0.2,0.4-0.5,0.6-0.9
				l0.2,0.1c-0.1,0.5-0.3,0.9-0.7,1.3c-0.4,0.4-0.8,0.6-1.4,0.6c-0.6,0-1.1-0.2-1.5-0.7c-0.4-0.5-0.6-1.1-0.6-1.9
				c0-0.8,0.2-1.5,0.6-2c0.4-0.5,1-0.7,1.6-0.7c0.6,0,1,0.2,1.4,0.6s0.5,0.9,0.5,1.5L31,114.8L31,114.8z M31,114.5h2.3
				c0-0.3-0.1-0.5-0.1-0.7c-0.1-0.2-0.2-0.4-0.4-0.5s-0.4-0.2-0.6-0.2c-0.3,0-0.6,0.1-0.8,0.3C31.2,113.8,31.1,114.1,31,114.5z"/>
			<path class="st1" d="M34.9,112.9h2.3v0.2h-0.1c-0.2,0-0.3,0-0.4,0.1s-0.1,0.2-0.1,0.3c0,0.1,0.1,0.3,0.2,0.6l1.2,2.5l1.1-2.7
				c0.1-0.2,0.1-0.3,0.1-0.4c0-0.1,0-0.1,0-0.2c0,0-0.1-0.1-0.1-0.1s-0.2,0-0.3,0V113h1.6v0.2c-0.1,0-0.2,0-0.3,0.1
				c-0.1,0-0.2,0.1-0.2,0.2c0,0.1-0.1,0.2-0.2,0.4l-2,5c-0.2,0.5-0.5,0.8-0.8,1.1s-0.6,0.4-0.9,0.4c-0.2,0-0.4-0.1-0.5-0.2
				s-0.2-0.3-0.2-0.4s0-0.3,0.2-0.4s0.2-0.1,0.4-0.1c0.1,0,0.3,0,0.5,0.1c0.1,0.1,0.2,0.1,0.3,0.1c0.1,0,0.2-0.1,0.4-0.2
				s0.3-0.3,0.4-0.7l0.3-0.9l-1.8-3.8c0-0.1-0.1-0.2-0.3-0.4c-0.1-0.1-0.2-0.2-0.2-0.3c-0.1-0.1-0.2-0.1-0.4-0.2L34.9,112.9
				L34.9,112.9z"/>
			<path class="st1" d="M43.1,112.8c0.8,0,1.4,0.3,1.8,0.9c0.4,0.5,0.6,1.1,0.6,1.7c0,0.4-0.1,0.9-0.3,1.3s-0.5,0.8-0.9,1
				c-0.4,0.2-0.8,0.3-1.2,0.3c-0.8,0-1.3-0.3-1.8-0.9c-0.4-0.5-0.6-1.1-0.6-1.7c0-0.5,0.1-0.9,0.3-1.4s0.5-0.8,0.9-1
				S42.7,112.8,43.1,112.8L43.1,112.8z M43,113.2c-0.2,0-0.4,0.1-0.6,0.2s-0.3,0.3-0.5,0.6c-0.1,0.3-0.2,0.7-0.2,1.1
				c0,0.7,0.1,1.3,0.4,1.9s0.7,0.8,1.1,0.8c0.3,0,0.6-0.2,0.9-0.4c0.2-0.3,0.3-0.8,0.3-1.5c0-0.9-0.2-1.6-0.6-2.1
				C43.7,113.3,43.4,113.2,43,113.2L43,113.2z"/>
			<path class="st1" d="M47.7,113.8c0.6-0.7,1.1-1.1,1.7-1.1c0.3,0,0.5,0.1,0.7,0.2c0.2,0.1,0.3,0.4,0.5,0.7c0.1,0.2,0.1,0.6,0.1,1
				v2.1c0,0.3,0,0.5,0.1,0.6c0,0.1,0.1,0.2,0.2,0.2c0.1,0.1,0.2,0.1,0.5,0.1v0.2H49v-0.2h0.1c0.2,0,0.4,0,0.5-0.1
				c0.1-0.1,0.2-0.2,0.2-0.3c0-0.1,0-0.2,0-0.5v-2c0-0.4-0.1-0.8-0.2-1s-0.3-0.3-0.6-0.3c-0.4,0-0.9,0.2-1.3,0.7v2.6
				c0,0.3,0,0.5,0.1,0.6c0,0.1,0.1,0.2,0.2,0.2s0.3,0.1,0.5,0.1v0.2h-2.5v-0.2h0.1c0.2,0,0.4-0.1,0.5-0.2c0.1-0.1,0.1-0.4,0.1-0.7
				v-1.8c0-0.6,0-1,0-1.1c0-0.1-0.1-0.2-0.1-0.3c-0.1-0.1-0.1-0.1-0.2-0.1s-0.2,0-0.4,0.1l-0.1-0.2l1.5-0.6h0.2L47.7,113.8
				L47.7,113.8z"/>
			<path class="st1" d="M55.3,117.4c-0.2,0.2-0.5,0.4-0.7,0.6c-0.2,0.1-0.5,0.2-0.8,0.2c-0.5,0-1-0.2-1.4-0.7
				c-0.4-0.4-0.6-1-0.6-1.8s0.2-1.4,0.7-2s1-0.9,1.7-0.9c0.4,0,0.8,0.1,1.1,0.4v-0.9c0-0.6,0-0.9,0-1.1c0-0.1-0.1-0.2-0.1-0.3
				c-0.1-0.1-0.1-0.1-0.2-0.1s-0.2,0-0.4,0.1l-0.1-0.2l1.5-0.6h0.2v5.7c0,0.6,0,0.9,0,1.1s0.1,0.2,0.1,0.3c0.1,0.1,0.1,0.1,0.2,0.1
				c0.1,0,0.2,0,0.4-0.1l0.1,0.2l-1.5,0.6h-0.2L55.3,117.4L55.3,117.4z M55.3,117v-2.6c0-0.2-0.1-0.5-0.2-0.7s-0.2-0.4-0.4-0.5
				s-0.3-0.2-0.5-0.2c-0.3,0-0.6,0.1-0.8,0.4c-0.3,0.4-0.5,0.9-0.5,1.7s0.2,1.3,0.5,1.7s0.7,0.6,1.1,0.6
				C54.7,117.5,55,117.3,55.3,117L55.3,117z"/>
			<path class="st1" d="M61.6,111.3v1.6h1.2v0.4h-1.2v3.2c0,0.3,0,0.5,0.1,0.7s0.2,0.2,0.4,0.2c0.1,0,0.2,0,0.3-0.1s0.2-0.2,0.3-0.3
				h0.2c-0.1,0.3-0.3,0.6-0.5,0.8s-0.5,0.3-0.7,0.3c-0.2,0-0.3-0.1-0.5-0.1s-0.3-0.2-0.3-0.4c-0.1-0.2-0.1-0.4-0.1-0.8v-3.3h-0.8
				v-0.2c0.2-0.1,0.4-0.2,0.6-0.4s0.4-0.4,0.6-0.7c0.1-0.1,0.2-0.4,0.3-0.8L61.6,111.3L61.6,111.3z"/>
			<path class="st1" d="M64.7,110.2v3.6c0.4-0.4,0.7-0.7,0.9-0.8c0.2-0.1,0.5-0.2,0.7-0.2c0.3,0,0.5,0.1,0.7,0.2
				c0.2,0.2,0.3,0.4,0.4,0.7c0.1,0.2,0.1,0.7,0.1,1.3v1.8c0,0.3,0,0.5,0.1,0.7c0,0.1,0.1,0.2,0.2,0.2c0.1,0.1,0.2,0.1,0.5,0.1v0.2
				h-2.4v-0.2H66c0.2,0,0.4,0,0.5-0.1c0.1-0.1,0.2-0.2,0.2-0.3c0-0.1,0-0.2,0-0.5V115c0-0.5,0-0.9-0.1-1.1c-0.1-0.2-0.2-0.3-0.3-0.4
				s-0.3-0.1-0.4-0.1s-0.4,0.1-0.6,0.1s-0.4,0.3-0.7,0.6v2.6c0,0.3,0,0.6,0.1,0.6c0,0.1,0.1,0.2,0.2,0.2s0.3,0.1,0.5,0.1v0.2H63
				v-0.2c0.2,0,0.4,0,0.5-0.1c0.1,0,0.1-0.1,0.2-0.2c0-0.1,0.1-0.3,0.1-0.6v-4.5c0-0.6,0-0.9,0-1.1c0-0.1-0.1-0.2-0.1-0.3
				c-0.1-0.1-0.1-0.1-0.2-0.1c-0.1,0-0.2,0-0.4,0.1l-0.1-0.2l1.5-0.6L64.7,110.2L64.7,110.2z"/>
			<path class="st1" d="M69.6,114.8c0,0.7,0.2,1.3,0.5,1.7c0.4,0.4,0.8,0.6,1.3,0.6c0.3,0,0.6-0.1,0.8-0.3s0.4-0.5,0.6-0.9l0.2,0.1
				c-0.1,0.5-0.3,0.9-0.7,1.3c-0.4,0.4-0.8,0.6-1.4,0.6c-0.6,0-1.1-0.2-1.5-0.7c-0.4-0.5-0.6-1.1-0.6-1.9c0-0.8,0.2-1.5,0.7-2
				c0.4-0.5,1-0.7,1.6-0.7c0.6,0,1,0.2,1.4,0.6s0.5,0.9,0.5,1.5L69.6,114.8L69.6,114.8z M69.6,114.5h2.3c0-0.3-0.1-0.5-0.1-0.7
				c-0.1-0.2-0.2-0.4-0.4-0.5s-0.4-0.2-0.6-0.2c-0.3,0-0.6,0.1-0.8,0.3C69.8,113.8,69.7,114.1,69.6,114.5z"/>
			<path class="st1" d="M80.7,116c-0.1,0.7-0.4,1.2-0.8,1.5s-0.8,0.5-1.3,0.5c-0.6,0-1.1-0.2-1.5-0.7c-0.4-0.5-0.6-1.1-0.6-1.9
				s0.2-1.4,0.7-1.9c0.5-0.5,1-0.7,1.7-0.7c0.5,0,0.9,0.1,1.2,0.4s0.5,0.5,0.5,0.8c0,0.1,0,0.2-0.1,0.3c-0.1,0.1-0.2,0.1-0.4,0.1
				c-0.2,0-0.4-0.1-0.5-0.2c-0.1-0.1-0.1-0.2-0.1-0.4c0-0.2-0.1-0.4-0.2-0.5c-0.1-0.1-0.3-0.2-0.5-0.2c-0.4,0-0.7,0.1-0.9,0.4
				c-0.3,0.3-0.4,0.8-0.4,1.4s0.2,1.1,0.4,1.6s0.7,0.7,1.2,0.7c0.3,0,0.7-0.1,0.9-0.4c0.2-0.2,0.4-0.5,0.6-0.9L80.7,116L80.7,116z"
				/>
			<path class="st1" d="M83.1,110.2v6.6c0,0.3,0,0.5,0.1,0.6c0,0.1,0.1,0.2,0.2,0.2c0.1,0.1,0.3,0.1,0.5,0.1v0.2h-2.4v-0.2
				c0.2,0,0.4,0,0.5-0.1c0.1-0.1,0.2-0.1,0.2-0.2c0.1-0.1,0.1-0.3,0.1-0.6v-4.5c0-0.6,0-0.9,0-1s-0.1-0.2-0.1-0.3
				c-0.1-0.1-0.1-0.1-0.2-0.1c-0.1,0-0.2,0-0.4,0.1l-0.1-0.2l1.5-0.6L83.1,110.2L83.1,110.2z"/>
			<path class="st1" d="M86.9,112.8c0.8,0,1.4,0.3,1.8,0.9c0.4,0.5,0.6,1.1,0.6,1.7c0,0.4-0.1,0.9-0.3,1.3s-0.5,0.8-0.9,1
				c-0.4,0.2-0.8,0.3-1.2,0.3c-0.8,0-1.3-0.3-1.8-0.9c-0.4-0.5-0.6-1.1-0.6-1.7c0-0.5,0.1-0.9,0.3-1.4c0.2-0.4,0.5-0.8,0.9-1
				S86.5,112.8,86.9,112.8L86.9,112.8z M86.8,113.2c-0.2,0-0.4,0.1-0.6,0.2s-0.3,0.3-0.5,0.6s-0.2,0.7-0.2,1.1
				c0,0.7,0.1,1.3,0.4,1.9s0.7,0.8,1.1,0.8c0.3,0,0.6-0.2,0.9-0.4c0.2-0.3,0.3-0.8,0.3-1.5c0-0.9-0.2-1.6-0.6-2.1
				C87.5,113.3,87.1,113.2,86.8,113.2L86.8,113.2z"/>
			<path class="st1" d="M94.4,112.9v3c0,0.6,0,0.9,0,1.1s0.1,0.2,0.1,0.3c0.1,0.1,0.1,0.1,0.2,0.1c0.1,0,0.2,0,0.4-0.1l0.1,0.2
				l-1.5,0.6h-0.2V117c-0.4,0.5-0.8,0.8-1,0.9c-0.2,0.1-0.5,0.2-0.7,0.2c-0.3,0-0.5-0.1-0.7-0.2s-0.3-0.4-0.4-0.6s-0.1-0.6-0.1-1.1
				v-2.2c0-0.2,0-0.4-0.1-0.5c-0.1-0.1-0.1-0.2-0.2-0.2s-0.3-0.1-0.5-0.1V113h1.7v3.3c0,0.5,0.1,0.8,0.2,0.9
				c0.2,0.1,0.3,0.2,0.6,0.2c0.2,0,0.3-0.1,0.5-0.2s0.4-0.3,0.7-0.6v-2.8c0-0.3-0.1-0.5-0.2-0.6s-0.3-0.2-0.6-0.2V113L94.4,112.9
				L94.4,112.9z"/>
			<path class="st1" d="M99.1,117.4c-0.2,0.2-0.5,0.4-0.7,0.6c-0.2,0.1-0.5,0.2-0.8,0.2c-0.5,0-1-0.2-1.4-0.7s-0.6-1-0.6-1.8
				s0.2-1.4,0.7-2s1-0.9,1.7-0.9c0.4,0,0.8,0.1,1.1,0.4v-0.9c0-0.6,0-0.9,0-1.1c0-0.1-0.1-0.2-0.1-0.3c-0.1-0.1-0.1-0.1-0.2-0.1
				c-0.1,0-0.2,0-0.4,0.1l-0.1-0.2l1.5-0.6h0.2v5.7c0,0.6,0,0.9,0,1.1s0.1,0.2,0.1,0.3c0.1,0.1,0.1,0.1,0.2,0.1c0.1,0,0.2,0,0.4-0.1
				l0.1,0.2l-1.5,0.6h-0.2L99.1,117.4L99.1,117.4z M99.1,117v-2.6c0-0.2-0.1-0.5-0.2-0.7s-0.2-0.4-0.4-0.5s-0.3-0.2-0.5-0.2
				c-0.3,0-0.6,0.1-0.8,0.4c-0.3,0.4-0.5,0.9-0.5,1.7s0.2,1.3,0.5,1.7s0.7,0.6,1.1,0.6C98.5,117.5,98.8,117.3,99.1,117L99.1,117z"/>
		</g>
	</g>
	<g>
		<g class="st0">
			<path class="st1" d="M1.5,54.7l-1.2-1.1c0.8-0.5,1.4-1.2,1.8-1.9c0.4-0.7,0.9-1.8,1.3-3.2l1.4,0.5c-0.1,0.2-0.1,0.3-0.1,0.5h3.5
				c0.3,0,0.5,0.2,0.5,0.5c0,0.9-0.3,2-0.8,3.3c-0.1,0.1-0.1,0.3-0.2,0.4c-1.1,2.7-3.1,4.5-6,5.6l-1.2-1.4c1.8-0.5,3.3-1.2,4.3-2.2
				c-0.4-0.4-1-1.1-2-2.1C2.4,54,2,54.3,1.5,54.7L1.5,54.7z M14.5,43.4l1.3,0.8c-0.3,0.6-0.7,1.3-1.2,2H17l1.4,0.7
				c0,0.9-0.3,2-0.7,3.3l-1.5-0.5c0.3-1,0.4-1.6,0.4-1.8c0-0.2-0.1-0.2-0.2-0.2H2.3c-0.1,0-0.2,0.1-0.2,0.2v2.2H0.6v-3.6
				c0-0.2,0.1-0.3,0.3-0.3h3c-0.5-1-0.8-1.6-0.9-1.8l1.5-0.7c0.4,0.8,0.8,1.5,1,2.1l-0.9,0.3h8C13.5,45.1,14.1,44.2,14.5,43.4
				L14.5,43.4z M16.5,42.8c-1.2,0.3-3.2,0.5-5.9,0.7c-3.7,0.2-6.7,0.3-9,0.3L1.4,42c2.3,0,5,0,8-0.2c3.1-0.2,5.4-0.4,6.9-0.7
				C16.3,41.1,16.5,42.8,16.5,42.8z M5.6,54.5c0.5-0.8,0.9-1.9,1.2-3.2c0.1-0.2,0-0.3-0.2-0.3H4.1c-0.2,0.5-0.4,1-0.5,1.3
				c0.2,0.2,0.6,0.6,1,1C4.9,53.7,5.3,54.1,5.6,54.5z M9.6,43.7c0.1,0.2,0.2,0.4,0.4,0.9c0.2,0.4,0.3,0.8,0.4,1.1l-1.6,0.4
				c-0.1-0.3-0.4-0.9-0.7-1.9L9.6,43.7L9.6,43.7z M8.3,56.7v-1.5H10v-3.5H9.2v-1.5h4.4v-1.4h1.6v1.4h1.5v1.5h-1.5v3.5h2.6v1.5h-2.6
				v2.5h-1.6v-2.5C13.6,56.7,8.3,56.7,8.3,56.7z M13.6,51.6h-2v3.5h2V51.6z"/>
			<path class="st1" d="M6.9,78.1v2c0,0.7-0.1,1.5-0.3,2.3c-0.1,0.3-0.2,0.6-0.3,0.9c-1,2.2-2.7,4-5.2,5.2L0,87
				c0.9-0.4,1.7-0.8,2.3-1.3c1.9-1.3,2.8-3.2,2.9-5.7v-2H0.4v-1.7H18v1.7h-5.5v7.6c0,0.3,0.1,0.5,0.3,0.7c0.2,0.2,0.4,0.3,0.7,0.3
				h2.3c0.2,0,0.4-0.1,0.5-0.2c0.1-0.1,0.2-0.2,0.2-0.5c0-0.6,0-1.5,0-2.8l1.7,0.2c0,2.6-0.2,4-0.5,4.3c-0.4,0.5-0.9,0.7-1.2,0.7h-4
				c-0.4,0-0.8-0.2-1.2-0.6c-0.3-0.4-0.5-0.8-0.5-1.2v-8.5L6.9,78.1L6.9,78.1z M16.5,71.3V73H2v-1.7H16.5L16.5,71.3z"/>
		</g>
		<path class="st2" d="M82.2,64.5c-3.5-2.6-7.8,0.1-11.2,1.5c-2.2,0.9-4.3,1.7-6.5,2.5c-6.7,2.4-13.5,4.4-20.3,6.7
			c-1.2,0.4-2.5,0.9-3.8,0.8c-0.5-0.1-1.4-0.2-1.7-0.8c-0.3-0.7,0.5-1.6,1-2.1c1.5-2,3.6-3.2,5.2-5.1c1.6-1.8,2.9-4,5-5.2
			c0.5-0.3,1-0.5,1.4-0.9c0.3-0.3,2.6-4.1,3.1-3.1s0.6,2.2,0.7,3.3c0,0.3,0,0.6,0.1,0.8c0.7,2.4,2.9,2.6,5,2.2
			c3.6-0.7,1.5-7.8,1.1-10c-0.3-1.5-0.5-2.8,0.4-4.1c1.1-1.6,2.9-2.5,4.3-3.8c2.4-2,4.7-4.2,6.9-6.3c3-2.7,5.8-6.1,9.6-7.8
			c0.5-0.2,1-0.4,1.4-0.8c0.4-0.4,0.7-0.8,1-1.3c1-2,1.1-4.4,0.4-6.5c-0.4-1.3-1.3-2-2.5-2.5c-1.2-0.5-2.8-1.6-4.1-1.7
			c-2.3-0.1-3.7,2.5-4.5,4.3c-1.5,3.3-2.7,9.6-6.9,10.5c-2.5,0.5-5,0.4-7.5,0.6c-0.3-1.9-0.5-3.5-0.4-5.4c0.1-2.1,0.2-4.2,0.3-6.3
			c0-3,0.3-4.5,0.4-7.5c0.2-4.9-0.4-9.7-0.2-14.6c0-0.4,0-0.8-0.2-1.1c-1.1-2.2-3.6,1.4-4,2.3c-1.9,4.3-2,7.7-2.4,11.5
			c-0.4,4.1-0.4,6.6-0.3,10.8c0,1.4,0.3,2.7,0.3,4.1c0,1.1-0.4,2.1-0.5,3.1c-0.3,2.4,0,4.5-2.3,5.9c-1.2,0.8-2.7,1.2-4.2,1.5
			c-1.8,0.3-3.6,0.5-5.4,0.6c-1,0-3.9,0.7-4.2-0.7c-0.4-3,1.3-4.9,2.4-7.6c0.8-2,1-4.6-0.5-6.2c-0.3-0.3-0.6-0.5-0.9-0.6
			c-1-0.2-1.8,0.9-2.3,1.8c-1.2,2.3-2.5,4.6-3.8,6.9c-1.4,2.5-2.8,5.1-3.3,8s0.1,6,2.2,8c0.6,0.6,1.5,1.1,2.3,1.2
			c1,0.1,2-0.3,2.9-0.8c2.5-1.3,4.4-3.5,6.8-4.7c2.7-1.4,6-1.6,8.8-3c0.3-0.2,0.7-0.3,0.9-0.1c0.1,0.1,0.2,0.3,0.3,0.4
			c0.4,1.2,0.2,2.5,0.2,3.7s0.4,2.7-0.6,3.7c-7.4,7.4-12.8,16.3-20.7,23.3c-1.5,1.3-3.9,2.7-4.5,4.7c-0.7,2.4-1.5,4.8-1.6,7.3
			c0,0.3,0.9,0.6,0.5,0.6c-0.1,0,1.5,1.7,1.5,1.8c1.3,0.3,2.4,1.1,3.8,0.8c1.8-0.4,3.4-2.3,4.9-3.3c0-0.5,3.9-2.3,4.4-2.7
			c4.1-2.6,8.5-4.7,13-6.6c2.3-0.9,4.6-1.8,6.9-2.6c1.5-0.5,3.1-0.8,4.8-0.8c0.3,0,0.7,0,1,0.1c3,1.2-3.9,5.9-4.8,6.8
			c-2.2,2.2-4.3,4.7-6.3,7c-2.1,2.4-4.2,4.4-6.6,6.5c-2.5,2.2-4.9,4.6-7.2,7.1c1.3,0,2.4-0.8,3.4-1.6c2.7-2,5.4-4.1,8.2-6.1
			c1.8-1.3,3.5-2.7,5.2-4.1c1.6-1.5,3.3-3.2,5-4.7c2.5-2.1,5.2-3.9,8.1-5.5c1.5-0.8,3-1.6,4.5-2.3c1.2-0.6,2.5-1.1,3.7-1.6
			c0.3-0.1,0.6-0.2,1-0.3c0.4-0.1,0.8-0.1,1.1-0.2c1.6-0.4,1.9-1.8,3.2-2.5c1.3-0.7,0-4.1-0.5-4.9C83.6,65.8,82.9,65.1,82.2,64.5
			L82.2,64.5z"/>
		<g class="st3">
			<path class="st1" d="M164.7,55c-0.7-1.2-1.5-2.4-2.6-3.1c-1.1-0.7-2.5-0.8-3.8-0.8c-3.9-0.1-7.8,0-11.6,0.5
				c-3.7,0-11.4,2.1-13.1,2.2c-1.4,0.1-2.7-0.8-3.6-1.9c-0.9-1.1-1.3-2.5-1.6-3.8c-0.1-0.5-0.2-1,0.1-1.3c0.3-0.4,0.9-0.4,1.4-0.4
				c1.9,0.2,3.8,0.5,5.7,0.2c1.9-0.4,3.7-1.9,3.7-3.8c0-0.4-0.1-0.8-0.2-1.1c-0.5-1.2-1.7-2.1-2.9-2.4c-1.6-0.5-3.4-0.2-5,0.1
				c-5,0.8-10,1.6-15.1,2.4c-0.8,0.1-1.8,0.4-2.1,1.1c-0.4,0.9,0.4,2,1.1,2.7c1.4,1.4,3.2,2.8,5.2,2.5c1.9-0.2,3.9-1.9,5.4-0.8
				c0.5,0.3,0.8,0.9,0.9,1.5c0.7,2.1,0.5,4.4-0.5,6.4c-0.2,0.5-0.6,0.9-0.7,1.5c-0.2,0.7,0,1.5,0.2,2.3c0.3,1.3,0.5,2.8,0.2,4.1
				c-0.3,1.3-1.4,2.6-2.8,2.8c-0.7,0.1-1.3,0-1.9-0.3c-1.6-0.6-3-1.6-3.9-3c-0.3-0.4-0.6-0.9-0.5-1.4c0.1-0.4,0.4-0.8,0.7-1
				c1.8-1.4,4.4-2,5.3-4c-2.6,0.6-5.4,0.5-8,1c-1.1,0.2-2.3,0.7-3.5,0.7l-0.7-0.1c0,0-2.8-3.9-4.5-1c-3.5,6.3-6.9,11-7.9,12.4
				c-0.3,0.5-1.2,1.5-2.2,2.6c-0.2,0.1-0.4,0.2-0.6,0.3c-1.4,0.8-4.2,4.8-4.8,5.9c-0.4,0.8-0.9,1.5-1.3,2.4c-0.2,0.3-0.3,0.7-0.2,1
				c0.1,0.5,0.5,0.9,0.9,1.1c1.7,0.8,4.1,1,5.9,1c0.4,0,0.9,0,1.3-0.1c1.8-0.6,3.3-3.6,4.2-5.1c1.2-2,2.2-4.1,3.4-6.1
				c2.2-3.7,5.2-6.3,8.2-9.2c0.4-0.4,1-0.8,1.5-0.5c0.5,2.1-0.9,9.4-0.1,10.9c0.6,1.1,2.2,1.4,3.3,0.8c1.1-0.5,1.9-1.6,2.4-2.8
				c0.4-0.9,0.7-2,1.5-2.7s2.1-0.9,2.7-0.1c0.3,0.5,0.3,1.1,0.3,1.7c-0.1,1.7-0.2,3.4-0.3,5.2c-0.1,1.1-0.1,2.3,0.3,3.4
				c0.4,1.1,1.4,2,2.6,1.8c1.6-0.2,2.3-2.1,2.7-3.7c0.8-4,1.7-8,1.4-12.1c-0.1-1.9-0.4-3.8,0-5.6s2.1-3.5,4-3.2
				c1.3,2.4-0.2,5.4,0.1,8.2c0.4,2.9,2.7,5.2,5.1,7c0.2,0.2,0.5,0.4,0.8,0.5c0.7,0.3,1.5-0.1,2.1-0.5c2.2-1.7,2.1-5.1,1-7.7
				c-1-2.6-2.7-5-3.1-7.7c0-0.3-0.1-0.5,0.1-0.8c0.2-0.2,0.5-0.2,0.7-0.3c4-0.3,8.1-0.6,11.8,1.1c0.4,0.2,0.9,0.4,1.1,0.8
				c0.8,1,0.4,2.4-0.3,3.5c-0.7,1-1.7,1.9-2.1,3c-0.1,0.2-0.2,0.5-0.1,0.7c0.1,0.2,0.3,0.4,0.5,0.6c1.6,1.1,3.4,1.8,5.3,2.1
				c3.4,0.5,7.5-0.9,8.4-4.3C167.3,59.6,165.9,57.1,164.7,55L164.7,55z"/>
			<path class="st1" d="M119.3,88.3c0,0,0.1,0.1,0.1,0.1c0,0.1,0.1,0.1,0.1,0.1c0,0,0.1,0.1,0.1,0.1c0.3,0,0.6,0,0.8,0
				c3-0.1,6.4,0.1,9.3-0.2c3.1-0.2,5.3-1,8-1.5c1.1-0.5,3.1-0.5,3.3-2c-0.8-2-3.3-2-5.6-2.2c-1.6-0.2-4,0.7-5.6,0.9
				c-2,0.3-4.1,0.6-6.1,1c-0.2,0-2.2,0.4-4.4,0.8c-0.2,0.4-0.3,0.9-0.4,1.3s-0.1,0.9,0.1,1.3c0,0.1,0,0,0,0.1
				C119.3,88.2,119.3,88.3,119.3,88.3L119.3,88.3z"/>
			<path class="st1" d="M136.4,109.9c-0.8,0.2-8.1,0.3-7.7-1.2c0-0.1,0.1-0.3,0.2-0.4c1.6-2.4,3.3-4.8,5-7.2
				c0.2-0.3,0.4-0.6,0.7-0.8c1-0.7,2.1-0.1,3.2,0c1.3,0.1,2.8-0.1,4-0.6c1.7-0.6,4.4-3.1,3.2-5.1c-0.2-0.3-0.4-0.6-0.8-0.8
				c-1.3-0.8-3.1-1.2-4.6-1.3c-3-0.3-6,0.3-8.9,0.9c-2.2,0.5-4.5,0.9-6.7,1.2c-2.4,0.3-4.6,1-7,0.8c-1.8-0.1-3.7-0.8-5.5,0
				c-1,0.5-1.5,1.6-2.1,2.6c-0.1,0.1-0.1,0.2-0.1,0.3c0,0.1,0.1,0.2,0.2,0.3c1.5,1.4,3.6,2,5.6,2c2.6,0,5.3-0.3,7.9-0.6
				c0.3,0,4.7-0.8,4.3,0.7c-1.1,3.7-4.9,5.8-7.7,8.1c-2.7,2.2-6.2,2.8-9.5,3.3c-0.9,0.1-1.9,0.5-2.2,1.4c-0.8,1.9-0.1,2.6,1.5,3.6
				c1.8,1.1,3.5,0.1,5.4-0.4c2.7-0.7,5.2-1.5,7.8-2.4c3.2-1.1,6.6,1.3,9.6,0C134.1,113.7,134.8,111.3,136.4,109.9L136.4,109.9z"/>
			<path class="st1" d="M145.9,112c-1.9-2.8-5.5-5.4-8.4-3.3c-0.6,0.9,0.4,1.4,0.7,2.2c0.4,1,0.2,2.3-0.1,3.3
				c-0.5,2.3-1.9,4.4-3.1,6.4c0.1-0.1,3.7,0,4.1-0.1c3.5-0.3,9.2-2.2,7.7-6.7C146.7,113.3,146.4,112.7,145.9,112L145.9,112z"/>
		</g>
		<g class="st0">
			<path class="st1" d="M27.6,114.2c0.5,0.1,0.9,0.3,1.1,0.5c0.4,0.3,0.5,0.7,0.5,1.2c0,0.4-0.1,0.7-0.4,1.1c-0.2,0.3-0.5,0.6-1,0.7
				c-0.4,0.2-1,0.2-1.9,0.2h-3.5v-0.2h0.3c0.3,0,0.5-0.1,0.7-0.3c0.1-0.1,0.1-0.4,0.1-0.8v-4.8c0-0.5,0-0.7-0.2-0.9
				c-0.1-0.2-0.4-0.2-0.6-0.2h-0.3v-0.2h3.2c0.6,0,1.1,0,1.4,0.1c0.5,0.1,1,0.4,1.2,0.7c0.3,0.3,0.4,0.7,0.4,1.1
				c0,0.4-0.1,0.7-0.3,1C28.4,113.8,28,114,27.6,114.2L27.6,114.2z M24.8,113.9c0.1,0,0.3,0,0.5,0.1c0.2,0,0.4,0,0.6,0
				c0.5,0,0.9-0.1,1.2-0.2s0.5-0.3,0.6-0.5c0.1-0.2,0.2-0.5,0.2-0.8c0-0.4-0.2-0.8-0.5-1.1s-0.9-0.5-1.5-0.5c-0.4,0-0.7,0-1,0.1
				L24.8,113.9L24.8,113.9z M24.8,117.4c0.4,0.1,0.8,0.2,1.2,0.2c0.6,0,1.1-0.2,1.5-0.4c0.3-0.3,0.5-0.7,0.5-1.1
				c0-0.3-0.1-0.6-0.2-0.8s-0.4-0.5-0.8-0.6s-0.8-0.2-1.3-0.2c-0.2,0-0.4,0-0.6,0c-0.2,0-0.3,0-0.4,0L24.8,117.4L24.8,117.4z"/>
			<path class="st1" d="M31,114.8c0,0.7,0.2,1.3,0.5,1.7c0.4,0.4,0.8,0.6,1.3,0.6c0.3,0,0.6-0.1,0.8-0.3c0.2-0.2,0.4-0.5,0.6-0.9
				l0.2,0.1c-0.1,0.5-0.3,0.9-0.7,1.3c-0.4,0.4-0.8,0.6-1.4,0.6c-0.6,0-1.1-0.2-1.5-0.7c-0.4-0.5-0.6-1.1-0.6-1.9
				c0-0.8,0.2-1.5,0.6-2c0.4-0.5,1-0.7,1.6-0.7c0.6,0,1,0.2,1.4,0.6s0.5,0.9,0.5,1.5L31,114.8L31,114.8z M31,114.5h2.3
				c0-0.3-0.1-0.5-0.1-0.7c-0.1-0.2-0.2-0.4-0.4-0.5s-0.4-0.2-0.6-0.2c-0.3,0-0.6,0.1-0.8,0.3C31.2,113.8,31.1,114.1,31,114.5z"/>
			<path class="st1" d="M34.9,112.9h2.3v0.2h-0.1c-0.2,0-0.3,0-0.4,0.1s-0.1,0.2-0.1,0.3c0,0.1,0.1,0.3,0.2,0.6l1.2,2.5l1.1-2.7
				c0.1-0.2,0.1-0.3,0.1-0.4c0-0.1,0-0.1,0-0.2c0,0-0.1-0.1-0.1-0.1s-0.2,0-0.3,0V113h1.6v0.2c-0.1,0-0.2,0-0.3,0.1
				c-0.1,0-0.2,0.1-0.2,0.2c0,0.1-0.1,0.2-0.2,0.4l-2,5c-0.2,0.5-0.5,0.8-0.8,1.1s-0.6,0.4-0.9,0.4c-0.2,0-0.4-0.1-0.5-0.2
				s-0.2-0.3-0.2-0.4s0-0.3,0.2-0.4s0.2-0.1,0.4-0.1c0.1,0,0.3,0,0.5,0.1c0.1,0.1,0.2,0.1,0.3,0.1c0.1,0,0.2-0.1,0.4-0.2
				s0.3-0.3,0.4-0.7l0.3-0.9l-1.8-3.8c0-0.1-0.1-0.2-0.3-0.4c-0.1-0.1-0.2-0.2-0.2-0.3c-0.1-0.1-0.2-0.1-0.4-0.2L34.9,112.9
				L34.9,112.9z"/>
			<path class="st1" d="M43.1,112.8c0.8,0,1.4,0.3,1.8,0.9c0.4,0.5,0.6,1.1,0.6,1.7c0,0.4-0.1,0.9-0.3,1.3s-0.5,0.8-0.9,1
				c-0.4,0.2-0.8,0.3-1.2,0.3c-0.8,0-1.3-0.3-1.8-0.9c-0.4-0.5-0.6-1.1-0.6-1.7c0-0.5,0.1-0.9,0.3-1.4s0.5-0.8,0.9-1
				S42.7,112.8,43.1,112.8L43.1,112.8z M43,113.2c-0.2,0-0.4,0.1-0.6,0.2s-0.3,0.3-0.5,0.6c-0.1,0.3-0.2,0.7-0.2,1.1
				c0,0.7,0.1,1.3,0.4,1.9s0.7,0.8,1.1,0.8c0.3,0,0.6-0.2,0.9-0.4c0.2-0.3,0.3-0.8,0.3-1.5c0-0.9-0.2-1.6-0.6-2.1
				C43.7,113.3,43.4,113.2,43,113.2L43,113.2z"/>
			<path class="st1" d="M47.7,113.8c0.6-0.7,1.1-1.1,1.7-1.1c0.3,0,0.5,0.1,0.7,0.2c0.2,0.1,0.3,0.4,0.5,0.7c0.1,0.2,0.1,0.6,0.1,1
				v2.1c0,0.3,0,0.5,0.1,0.6c0,0.1,0.1,0.2,0.2,0.2c0.1,0.1,0.2,0.1,0.5,0.1v0.2H49v-0.2h0.1c0.2,0,0.4,0,0.5-0.1
				c0.1-0.1,0.2-0.2,0.2-0.3c0-0.1,0-0.2,0-0.5v-2c0-0.4-0.1-0.8-0.2-1s-0.3-0.3-0.6-0.3c-0.4,0-0.9,0.2-1.3,0.7v2.6
				c0,0.3,0,0.5,0.1,0.6c0,0.1,0.1,0.2,0.2,0.2s0.3,0.1,0.5,0.1v0.2h-2.5v-0.2h0.1c0.2,0,0.4-0.1,0.5-0.2c0.1-0.1,0.1-0.4,0.1-0.7
				v-1.8c0-0.6,0-1,0-1.1c0-0.1-0.1-0.2-0.1-0.3c-0.1-0.1-0.1-0.1-0.2-0.1s-0.2,0-0.4,0.1l-0.1-0.2l1.5-0.6h0.2L47.7,113.8
				L47.7,113.8z"/>
			<path class="st1" d="M55.3,117.4c-0.2,0.2-0.5,0.4-0.7,0.6c-0.2,0.1-0.5,0.2-0.8,0.2c-0.5,0-1-0.2-1.4-0.7
				c-0.4-0.4-0.6-1-0.6-1.8s0.2-1.4,0.7-2s1-0.9,1.7-0.9c0.4,0,0.8,0.1,1.1,0.4v-0.9c0-0.6,0-0.9,0-1.1c0-0.1-0.1-0.2-0.1-0.3
				c-0.1-0.1-0.1-0.1-0.2-0.1s-0.2,0-0.4,0.1l-0.1-0.2l1.5-0.6h0.2v5.7c0,0.6,0,0.9,0,1.1s0.1,0.2,0.1,0.3c0.1,0.1,0.1,0.1,0.2,0.1
				c0.1,0,0.2,0,0.4-0.1l0.1,0.2l-1.5,0.6h-0.2L55.3,117.4L55.3,117.4z M55.3,117v-2.6c0-0.2-0.1-0.5-0.2-0.7s-0.2-0.4-0.4-0.5
				s-0.3-0.2-0.5-0.2c-0.3,0-0.6,0.1-0.8,0.4c-0.3,0.4-0.5,0.9-0.5,1.7s0.2,1.3,0.5,1.7s0.7,0.6,1.1,0.6
				C54.7,117.5,55,117.3,55.3,117L55.3,117z"/>
			<path class="st1" d="M61.6,111.3v1.6h1.2v0.4h-1.2v3.2c0,0.3,0,0.5,0.1,0.7s0.2,0.2,0.4,0.2c0.1,0,0.2,0,0.3-0.1s0.2-0.2,0.3-0.3
				h0.2c-0.1,0.3-0.3,0.6-0.5,0.8s-0.5,0.3-0.7,0.3c-0.2,0-0.3-0.1-0.5-0.1s-0.3-0.2-0.3-0.4c-0.1-0.2-0.1-0.4-0.1-0.8v-3.3h-0.8
				v-0.2c0.2-0.1,0.4-0.2,0.6-0.4s0.4-0.4,0.6-0.7c0.1-0.1,0.2-0.4,0.3-0.8L61.6,111.3L61.6,111.3z"/>
			<path class="st1" d="M64.7,110.2v3.6c0.4-0.4,0.7-0.7,0.9-0.8c0.2-0.1,0.5-0.2,0.7-0.2c0.3,0,0.5,0.1,0.7,0.2
				c0.2,0.2,0.3,0.4,0.4,0.7c0.1,0.2,0.1,0.7,0.1,1.3v1.8c0,0.3,0,0.5,0.1,0.7c0,0.1,0.1,0.2,0.2,0.2c0.1,0.1,0.2,0.1,0.5,0.1v0.2
				h-2.4v-0.2H66c0.2,0,0.4,0,0.5-0.1c0.1-0.1,0.2-0.2,0.2-0.3c0-0.1,0-0.2,0-0.5V115c0-0.5,0-0.9-0.1-1.1c-0.1-0.2-0.2-0.3-0.3-0.4
				s-0.3-0.1-0.4-0.1s-0.4,0.1-0.6,0.1s-0.4,0.3-0.7,0.6v2.6c0,0.3,0,0.6,0.1,0.6c0,0.1,0.1,0.2,0.2,0.2s0.3,0.1,0.5,0.1v0.2H63
				v-0.2c0.2,0,0.4,0,0.5-0.1c0.1,0,0.1-0.1,0.2-0.2c0-0.1,0.1-0.3,0.1-0.6v-4.5c0-0.6,0-0.9,0-1.1c0-0.1-0.1-0.2-0.1-0.3
				c-0.1-0.1-0.1-0.1-0.2-0.1c-0.1,0-0.2,0-0.4,0.1l-0.1-0.2l1.5-0.6L64.7,110.2L64.7,110.2z"/>
			<path class="st1" d="M69.6,114.8c0,0.7,0.2,1.3,0.5,1.7c0.4,0.4,0.8,0.6,1.3,0.6c0.3,0,0.6-0.1,0.8-0.3s0.4-0.5,0.6-0.9l0.2,0.1
				c-0.1,0.5-0.3,0.9-0.7,1.3c-0.4,0.4-0.8,0.6-1.4,0.6c-0.6,0-1.1-0.2-1.5-0.7c-0.4-0.5-0.6-1.1-0.6-1.9c0-0.8,0.2-1.5,0.7-2
				c0.4-0.5,1-0.7,1.6-0.7c0.6,0,1,0.2,1.4,0.6s0.5,0.9,0.5,1.5L69.6,114.8L69.6,114.8z M69.6,114.5h2.3c0-0.3-0.1-0.5-0.1-0.7
				c-0.1-0.2-0.2-0.4-0.4-0.5s-0.4-0.2-0.6-0.2c-0.3,0-0.6,0.1-0.8,0.3C69.8,113.8,69.7,114.1,69.6,114.5z"/>
			<path class="st1" d="M80.7,116c-0.1,0.7-0.4,1.2-0.8,1.5s-0.8,0.5-1.3,0.5c-0.6,0-1.1-0.2-1.5-0.7c-0.4-0.5-0.6-1.1-0.6-1.9
				s0.2-1.4,0.7-1.9c0.5-0.5,1-0.7,1.7-0.7c0.5,0,0.9,0.1,1.2,0.4s0.5,0.5,0.5,0.8c0,0.1,0,0.2-0.1,0.3c-0.1,0.1-0.2,0.1-0.4,0.1
				c-0.2,0-0.4-0.1-0.5-0.2c-0.1-0.1-0.1-0.2-0.1-0.4c0-0.2-0.1-0.4-0.2-0.5c-0.1-0.1-0.3-0.2-0.5-0.2c-0.4,0-0.7,0.1-0.9,0.4
				c-0.3,0.3-0.4,0.8-0.4,1.4s0.2,1.1,0.4,1.6s0.7,0.7,1.2,0.7c0.3,0,0.7-0.1,0.9-0.4c0.2-0.2,0.4-0.5,0.6-0.9L80.7,116L80.7,116z"
				/>
			<path class="st1" d="M83.1,110.2v6.6c0,0.3,0,0.5,0.1,0.6c0,0.1,0.1,0.2,0.2,0.2c0.1,0.1,0.3,0.1,0.5,0.1v0.2h-2.4v-0.2
				c0.2,0,0.4,0,0.5-0.1c0.1-0.1,0.2-0.1,0.2-0.2c0.1-0.1,0.1-0.3,0.1-0.6v-4.5c0-0.6,0-0.9,0-1s-0.1-0.2-0.1-0.3
				c-0.1-0.1-0.1-0.1-0.2-0.1c-0.1,0-0.2,0-0.4,0.1l-0.1-0.2l1.5-0.6L83.1,110.2L83.1,110.2z"/>
			<path class="st1" d="M86.9,112.8c0.8,0,1.4,0.3,1.8,0.9c0.4,0.5,0.6,1.1,0.6,1.7c0,0.4-0.1,0.9-0.3,1.3s-0.5,0.8-0.9,1
				c-0.4,0.2-0.8,0.3-1.2,0.3c-0.8,0-1.3-0.3-1.8-0.9c-0.4-0.5-0.6-1.1-0.6-1.7c0-0.5,0.1-0.9,0.3-1.4c0.2-0.4,0.5-0.8,0.9-1
				S86.5,112.8,86.9,112.8L86.9,112.8z M86.8,113.2c-0.2,0-0.4,0.1-0.6,0.2s-0.3,0.3-0.5,0.6s-0.2,0.7-0.2,1.1
				c0,0.7,0.1,1.3,0.4,1.9s0.7,0.8,1.1,0.8c0.3,0,0.6-0.2,0.9-0.4c0.2-0.3,0.3-0.8,0.3-1.5c0-0.9-0.2-1.6-0.6-2.1
				C87.5,113.3,87.1,113.2,86.8,113.2L86.8,113.2z"/>
			<path class="st1" d="M94.4,112.9v3c0,0.6,0,0.9,0,1.1s0.1,0.2,0.1,0.3c0.1,0.1,0.1,0.1,0.2,0.1c0.1,0,0.2,0,0.4-0.1l0.1,0.2
				l-1.5,0.6h-0.2V117c-0.4,0.5-0.8,0.8-1,0.9c-0.2,0.1-0.5,0.2-0.7,0.2c-0.3,0-0.5-0.1-0.7-0.2s-0.3-0.4-0.4-0.6s-0.1-0.6-0.1-1.1
				v-2.2c0-0.2,0-0.4-0.1-0.5c-0.1-0.1-0.1-0.2-0.2-0.2s-0.3-0.1-0.5-0.1V113h1.7v3.3c0,0.5,0.1,0.8,0.2,0.9
				c0.2,0.1,0.3,0.2,0.6,0.2c0.2,0,0.3-0.1,0.5-0.2s0.4-0.3,0.7-0.6v-2.8c0-0.3-0.1-0.5-0.2-0.6s-0.3-0.2-0.6-0.2V113L94.4,112.9
				L94.4,112.9z"/>
			<path class="st1" d="M99.1,117.4c-0.2,0.2-0.5,0.4-0.7,0.6c-0.2,0.1-0.5,0.2-0.8,0.2c-0.5,0-1-0.2-1.4-0.7s-0.6-1-0.6-1.8
				s0.2-1.4,0.7-2s1-0.9,1.7-0.9c0.4,0,0.8,0.1,1.1,0.4v-0.9c0-0.6,0-0.9,0-1.1c0-0.1-0.1-0.2-0.1-0.3c-0.1-0.1-0.1-0.1-0.2-0.1
				c-0.1,0-0.2,0-0.4,0.1l-0.1-0.2l1.5-0.6h0.2v5.7c0,0.6,0,0.9,0,1.1s0.1,0.2,0.1,0.3c0.1,0.1,0.1,0.1,0.2,0.1c0.1,0,0.2,0,0.4-0.1
				l0.1,0.2l-1.5,0.6h-0.2L99.1,117.4L99.1,117.4z M99.1,117v-2.6c0-0.2-0.1-0.5-0.2-0.7s-0.2-0.4-0.4-0.5s-0.3-0.2-0.5-0.2
				c-0.3,0-0.6,0.1-0.8,0.4c-0.3,0.4-0.5,0.9-0.5,1.7s0.2,1.3,0.5,1.7s0.7,0.6,1.1,0.6C98.5,117.5,98.8,117.3,99.1,117L99.1,117z"/>
		</g>
	</g>
</g>
</svg>
