<?xml version="1.0" encoding="UTF-8"?>
<svg id="_圖層_2" data-name="圖層 2" xmlns="http://www.w3.org/2000/svg" viewBox="0 0 235.64 57.21">
  <defs>
    <style>
      .cls-1 {
        fill: #020202;
      }

      .cls-1, .cls-2, .cls-3, .cls-4, .cls-5, .cls-6, .cls-7, .cls-8, .cls-9, .cls-10 {
        fill-rule: evenodd;
      }

      .cls-2 {
        fill: #030303;
      }

      .cls-3 {
        fill: #010101;
      }

      .cls-4 {
        fill: #060606;
      }

      .cls-5, .cls-11 {
        fill: #050505;
      }

      .cls-6 {
        fill: #040404;
      }

      .cls-7 {
        fill: #b38852;
      }

      .cls-8 {
        fill: #0a0605;
      }

      .cls-9 {
        fill: #fcfcfc;
      }
    </style>
  </defs>
  <g id="_圖層_3" data-name="圖層 3">
    <g>
      <path class="cls-7" d="M0,27.42c.62-.2,1.1-.6,1.5-1.09,.95-1.17,2.07-2.08,3.54-2.51,.58-.17,1.1-.52,1.61-.86,1.41-.94,2.82-1.88,4.22-2.82,.6-.41,1.24-.68,1.99-.64,.42,.02,.8-.15,1.12-.41,1.21-.99,2.5-1.85,3.77-2.76,.38-.27,.77-.41,1.23-.37,1.07,.1,2.02-.2,2.93-.78,1.18-.76,2.5-1,3.88-.91,.39,.02,.73-.05,1.07-.23,1.03-.55,2.01-1.25,3.11-1.6,2.51-.81,4.82-2.02,7.17-3.18,1.31-.65,2.73-.99,4.19-1.14,.58-.06,1.11-.27,1.64-.51,.81-.38,1.62-.76,2.43-1.14,.58-.27,1.18-.49,1.82-.6,.39-.07,.79-.21,1.15-.38,2.53-1.24,5.24-1.87,8.01-2.31,4.01-.63,7.97-1.46,11.83-2.78,.43-.15,.86-.26,1.29-.39h2.84c.75,.35,1.57,.33,2.36,.49,.68,.14,1.37,.23,2.05,.33,.49,.07,.93,.24,1.35,.53,.78,.53,1.6,1.01,2.41,1.5,1.37,.83,2.58,1.85,3.61,3.08,.72,.87,.83,1.87,.31,2.88-.28,.54-.77,.68-1.31,.71-.48,.03-.95-.07-1.39-.23-.74-.26-1.44-.2-2.16,.12-2.27,.99-4.67,1.48-7.14,1.56-1.96,.06-3.92,.14-5.88,.14-1.76,0-3.52-.1-5.28-.06-2.34,.05-4.65,.35-6.97,.62-3.19,.37-6.36,.86-9.49,1.6-3.62,.85-7.17,1.94-10.66,3.24-.58,.22-1.18,.29-1.79,.28-.39,0-.76,.07-1.02,.36-1.39,1.58-3.24,1.74-5.16,1.7-.42,0-.74,.07-1.03,.39-.79,.86-1.85,1.29-2.93,1.63-.63,.2-1.23,.45-1.8,.8-.62,.38-1.3,.65-2.02,.78-1.48,.25-2.7,1.02-3.83,1.96-.73,.61-1.49,1.17-2.39,1.51-.3,.11-.61,.21-.94,.17-.26-.03-.45-.14-.54-.39-.1-.27-.03-.5,.17-.69,.2-.19,.44-.3,.71-.36,.45-.1,.88-.22,1.3-.41,.71-.33,1.13-.89,1.36-1.62,.05-.16,.09-.34-.04-.48-.16-.17-.33-.08-.51-.03-1.47,.42-2.75,1.2-3.99,2.07-1.07,.75-2.19,1.48-3.52,1.57-1.08,.08-2.1,.32-3.11,.64-.54,.17-.99,.41-1.28,.92-.04,.07-.1,.14-.15,.21-.61,.83-.74,.86-1.6,.4v-.51Z"/>
      <path class="cls-8" d="M118.52,46.82c-.22,.15-.47,.16-.72,.15-1.42-.05-2.84-.05-4.26,0-.41,.02-.61-.1-.65-.55-.06-.77-.14-1.55-.16-2.33,0-.17,.06-.37-.11-.55-.33,.42-.62,.85-.96,1.23-1.92,2.14-4.41,2.83-7.18,2.72-1.6-.07-3.09-.52-4.43-1.42-2.66-1.8-3.63-4.43-2.92-7.65,.62-2.8,2.44-4.42,5.04-5.31,2.17-.75,4.43-.89,6.7-.91,1.03-.01,2.06,0,3.1,.02,.39,0,.5-.13,.47-.51-.11-1.1-.26-2.19-.99-3.09-.9-1.1-2.15-1.41-3.48-1.48-2.71-.15-5.18,.58-7.44,2.05-.24,.15-.47,.32-.76,.51-.13-.91-.09-1.78-.13-2.64-.04-.78-.05-1.55-.09-2.33-.01-.28,.08-.44,.34-.54,4.09-1.63,8.28-2.21,12.59-1.07,3.07,.81,4.74,2.94,5.35,5.98,.23,1.13,.32,2.27,.31,3.43-.02,4.48,0,8.96,.3,13.44,0,.15-.1,.34,.1,.45v.41Zm-6.09-10.08q.03-.8-.74-.8c-.71,0-1.42,0-2.13,0-1.41,0-2.8,.12-4.13,.63-1.12,.43-2,1.1-2.39,2.3-.48,1.49-.03,2.89,1.17,3.52,2.24,1.18,5.13,.62,6.77-1.32,1.06-1.25,1.36-2.75,1.45-4.33Z"/>
      <path class="cls-8" d="M85.07,40.4c.9-2.71,1.79-5.39,2.67-8.07,.95-2.87,1.9-5.73,2.82-8.6,.16-.5,.41-.64,.92-.63,1.74,.03,3.49,.02,5.23,0,.29,0,.44,0,.29,.37-3.47,9.14-6.91,18.29-10.39,27.43-.69,1.81-1.67,3.47-3.22,4.72-1.28,1.03-2.76,1.53-4.39,1.56-.41,0-.82-.03-1.22,0-1.15,.11-2.24-.25-3.35-.43-.42-.07-.58-.31-.53-.75,.13-1.18,.23-2.35,.33-3.53,.03-.37,.12-.5,.53-.4,1.31,.32,2.63,.47,3.96,.13,2-.51,3.25-2.8,2.56-4.68-1.84-5.02-3.67-10.04-5.5-15.06-1.06-2.9-2.11-5.8-3.17-8.7-.23-.62-.16-.68,.5-.67,1.83,.01,3.66,.02,5.48,0,.51,0,.77,.16,.93,.64,1.75,5.37,3.52,10.74,5.29,16.1,.06,.19,.08,.4,.28,.57Z"/>
      <path class="cls-8" d="M52.91,29.72c-.04-1.17-.08-2.26-.12-3.35-.02-.56-.04-1.11-.08-1.67-.02-.26,.09-.41,.32-.51,4.07-1.64,8.25-2.21,12.55-1.1,3.07,.79,4.77,2.89,5.4,5.93,.23,1.13,.33,2.27,.33,3.43-.02,4.46,0,8.93,.28,13.39,.07,1.14,.05,1.17-1.08,1.13-1.27-.04-2.54,0-3.8,.01-.42,0-.59-.13-.63-.57-.09-.96-.15-1.92-.18-2.88-.05-.04-.09-.02-.12,.03-1.39,2.22-3.41,3.43-5.98,3.83-3.16,.48-5.92-.3-8.09-2.69-1.75-1.93-1.95-4.25-1.29-6.66,.68-2.45,2.33-4,4.71-4.83,2.2-.78,4.48-.97,6.79-1,1.07-.01,2.13,.01,3.2,.01,.21,0,.44,.04,.5-.29,.28-1.63-.8-3.65-2.32-4.32-1.03-.45-2.13-.51-3.23-.48-2.42,.07-4.59,.87-6.58,2.22-.16,.11-.33,.22-.56,.37Zm10.32,6.22c-.92-.02-2.03,0-3.13,.22-1.17,.23-2.29,.58-3.14,1.48-1.54,1.63-1.06,4.24,.97,4.98,1.9,.7,3.76,.46,5.38-.75,1.88-1.4,2.33-3.46,2.33-5.67,0-.29-.19-.27-.38-.27-.61,0-1.22,0-2.02,0Z"/>
      <path class="cls-8" d="M39.91,31.14c0-5.07,0-10.15-.01-15.22,0-.53,.17-.65,.67-.65,1.96,.02,3.92,0,5.88-.02,.39,0,.6,.13,.59,.56-.02,.74-.02,1.49-.02,2.23,0,8.46,0,16.92,0,25.37,0,.98,.02,1.96,.01,2.94,0,.64-.05,.68-.71,.68-1.95,0-3.89-.03-5.84,0-.49,0-.59-.17-.59-.62,.01-5.09,0-10.18,0-15.28Z"/>
      <path class="cls-10" d="M151.78,54.6c0-.73,.03-1.47,0-2.2-.01-.38,.2-.31,.43-.33,.26-.02,.36,.05,.36,.34-.01,1.46,0,2.93,0,4.39-.29,.07-.59,.05-.88,0-.71-1.14-1.46-2.25-2.16-3.57v3.56c-.26,.06-.53,.06-.79,0,0-1.41,0-2.81,0-4.22,0-.17-.14-.47,.12-.49,.31-.02,.69-.19,.95,.24,.61,1.04,1.26,2.05,1.9,3.07,.24-.25,.1-.54,.08-.82Z"/>
      <path class="cls-3" d="M204.14,56.8c-.23,0-.46,0-.69,0-.08-1.47-.01-2.94-.04-4.41,0-.19,.07-.28,.26-.26,.22,.02,.46-.05,.68,.05,.66,1.08,1.32,2.16,1.99,3.24,.25,0,.08-.14,.09-.23,0-1.01,0-2.02-.01-3.02,.26-.05,.53-.09,.78,.02,0,1.37,0,2.74-.02,4.11,0,.16,.16,.46-.15,.48-.29,.02-.64,.17-.87-.2-.65-1.07-1.36-2.09-1.97-3.29-.06,.47-.04,.86-.01,1.25,.02,.75,.08,1.51-.03,2.26Z"/>
      <path class="cls-3" d="M93.42,56.77c-.36-.55-.71-1.12-1.09-1.65-.1-.14-.14-.45-.35-.37-.22,.09-.38,.31-.36,.62,.03,.47,.01,.94,.02,1.41-.29,.1-.58,.1-.88,0,0-1.42,.02-2.85,0-4.27,0-.33,.06-.44,.42-.45,.38,0,.47,.11,.45,.47-.03,.52,0,1.05,0,1.66,.44-.56,.88-1.02,1.21-1.56,.36-.57,.84-.62,1.49-.51-.3,.36-.59,.7-.87,1.04-.14,.16-.25,.35-.41,.48-.46,.35-.36,.65-.05,1.06,.5,.65,.95,1.34,1.41,2.01-.31,.28-.65,.15-.99,.07Z"/>
      <path class="cls-1" d="M174.88,53.92c0-.47,.02-.95,0-1.42-.02-.33,.11-.38,.39-.37,.28,0,.46,.01,.44,.39-.03,.85-.03,1.7,0,2.55,.02,.83,.46,1.27,1.14,1.19,.54-.06,.91-.54,.92-1.26,.01-.87,.01-1.73,0-2.6,0-.23,.09-.3,.29-.26,.19,.04,.53-.15,.53,.23,0,1,.06,2-.05,2.99-.11,1.01-.69,1.45-1.71,1.53-1.2,.09-1.88-.49-1.93-1.69-.02-.42,0-.85,0-1.28h0Z"/>
      <path class="cls-3" d="M129.46,52.08c.8,0,.79,0,.8,.81,0,.35,.02,.71,.02,1.06,.61,.12,1.23,.02,1.84,.05,.24,.01,.24-.14,.25-.32,.02-.53-.07-1.07,.05-1.6q.78,0,.78,.78c0,1.32,0,2.63,0,3.95-.03,.01-.06,.03-.09,.03-.74,.05-.73,.05-.75-.7,0-.47,.07-.94-.05-1.41h0c-.67-.09-1.35-.09-2.02,0-.08,.69-.02,1.38-.04,2.07-.03,.01-.06,.03-.09,.03-.74,.05-.75,.05-.74-.7,.02-1.35-.05-2.71,.04-4.06Z"/>
      <path class="cls-3" d="M140.39,54.74c-.01,.41-.01,.81-.04,1.22-.02,.24,.11,.26,.29,.26,.51,0,1.01,.01,1.52,0,.27-.01,.27,.12,.27,.32,0,.21-.02,.33-.28,.33-.78-.02-1.57-.01-2.35,0-.23,0-.31-.06-.31-.3,.01-1.39,.01-2.78,0-4.17,0-.24,.07-.31,.3-.3,.75,.01,1.5,.01,2.26,0,.22,0,.28,.08,.27,.29,0,.19,0,.36-.27,.36-.46,0-.92,.01-1.37,0-.26-.01-.33,.07-.33,.33-.03,1-.04,1,.97,1,.11,0,.23,.02,.34,0,.48-.1,.64,.12,.57,.57-.4,.15-.82,.03-1.23,.07-.2,.02-.42-.05-.61,.05Z"/>
      <path class="cls-3" d="M197.05,52.77c-.62,0-1.23-.06-1.85,.04-.08,.4-.08,.8,0,1.21,.4,.08,.81,.07,1.2,.02,.51-.05,.65,.14,.57,.6-.41,.11-.83,.02-1.25,.05-.17,.01-.36-.05-.52,.05h0c-.09,.46-.09,.91,0,1.37h0c.48,.11,.97,.04,1.46,.05,.61,.01,.61,0,.5,.64-.8,0-1.6-.03-2.39,.01-.41,.02-.47-.13-.46-.49,.02-1.38,0-2.77,0-4.15,.85-.09,1.7-.05,2.54-.02,.46,.01,.24,.37,.19,.62Z"/>
      <path class="cls-3" d="M213.35,53.07c.15-.71,.71-.88,1.31-1.01,.26-.04,.52-.04,.78,0,.15,.04,.31,.08,.46,.12,.2,.05,.26,.14,.15,.35-.08,.16-.02,.39-.36,.27-.28-.1-.6-.14-.89-.11-.28,.02-.56,.15-.64,.49-.07,.33,.11,.54,.36,.67,.35,.19,.73,.34,1.08,.52,.36,.18,.61,.47,.74,.86,.04,.16,.04,.32,0,.49-.38,.91-1.52,1.45-2.45,1.14-.14-.05-.28-.03-.41-.09-.2-.1-.35-.15-.21-.48,.13-.31,.24-.26,.46-.17,.45,.18,.91,.19,1.35,.01,.48-.2,.54-.7,.14-1.06-.32-.28-.76-.34-1.11-.55-.34-.2-.69-.41-.75-.86-.04-.2-.04-.39,0-.59Z"/>
      <path class="cls-3" d="M123.08,52.06c.2,.09,.5,.09,.36,.47-.14,.37-.36,.23-.61,.16-1.01-.28-2.05,.34-2.19,1.35-.15,1.07,.25,2.07,1.36,2.17,.27,.08,.54,.08,.8,0,.19,.05,.35-.08,.52-.09,.2,.63,.14,.73-.53,.76-.75,.04-1.5,.08-2.17-.39-.56-.39-.82-.95-.85-1.61-.03-.49-.05-.97,.15-1.45,.34-.8,.97-1.21,1.78-1.37,.16-.07,.34,.03,.5-.08h.38c.15,.11,.34,0,.5,.07Z"/>
      <path class="cls-10" d="M57.55,54.82c-.51-.9-1.03-1.8-1.55-2.71,.05-.01,.08-.02,.11-.02,.65-.13,1.06,.1,1.26,.76,.12,.4,.37,.76,.55,1.13,.03,.07,0,.17,.12,.17,.11,0,.1-.11,.13-.18,.19-.38,.4-.75,.55-1.14,.24-.6,.59-.93,1.29-.69-.49,.86-1,1.74-1.5,2.61-.11,.56-.05,1.13-.04,1.7,0,.38-.15,.41-.46,.42-.34,0-.45-.09-.44-.44,0-.53,.07-1.07-.04-1.6Z"/>
      <path class="cls-1" d="M40.65,52.08h3.63c.05,.23,.15,.47-.06,.68-.01,0-.03-.02-.05-.02q-1.29-.12-1.29,1.15c0,.87-.02,1.73,0,2.6,.01,.4-.22,.34-.47,.36-.27,.02-.41-.03-.4-.36,.02-1.11-.01-2.22,.02-3.33,.01-.39-.12-.49-.47-.44-.29,.04-.59-.04-.87,.04-.21-.21-.11-.45-.06-.68Z"/>
      <path class="cls-1" d="M185.77,52.79c-.34-.01-.68-.05-1.02-.03-.28,.02-.31-.12-.31-.35,0-.25,.1-.29,.31-.29,1.07-.01,2.15,.06,3.22-.03,.2,.21,.12,.44,.04,.67-.44,0-1-.18-1.28,.06-.26,.23-.07,.8-.08,1.22-.01,.74-.03,1.47,0,2.21,.02,.44-.1,.63-.55,.54-.08-.01-.16,0-.24,0-.11-.58-.02-1.16-.05-1.74-.03-.76,.07-1.52-.05-2.27Z"/>
      <path class="cls-2" d="M231.18,54.47c0-.67,.02-1.34,0-2.01-.02-.35,.13-.39,.42-.39,.31,0,.46,.04,.45,.41-.03,1.13,0,2.25-.02,3.38,0,.28,.08,.36,.36,.35,.47-.02,.95,0,1.42,0,.18,0,.32,0,.3,.25-.01,.2,.01,.4-.29,.39-.8,0-1.6-.01-2.4,0-.26,0-.23-.16-.23-.32,0-.69,0-1.37,0-2.06Z"/>
      <path class="cls-10" d="M110.11,52.68c-.1-.52,.13-.64,.62-.61,.83,.04,1.66,.04,2.49,0,.46-.02,.71,.07,.61,.59-.47,.17-.96-.04-1.43,.11-.09,1.35-.02,2.69-.04,4.04-.03,.01-.06,.03-.09,.03q-.74,.05-.74-.7c0-.96,0-1.93,0-2.89,0-.16,.04-.33-.05-.48h0c-.45-.14-.92,.02-1.38-.09Z"/>
      <path class="cls-6" d="M101.87,54.49c0-.7,.02-1.41,0-2.11-.01-.35,.19-.32,.4-.3,.19,.02,.47-.13,.46,.28-.02,1.39-.02,2.78,0,4.17,0,.39-.25,.3-.46,.31-.21,0-.42,.05-.4-.3,.03-.69,0-1.37,0-2.06Z"/>
      <path class="cls-4" d="M223.06,54.48c0-.67,0-1.34,0-2.01,0-.23,.02-.39,.31-.34,.21,.04,.52-.13,.52,.3,0,1.37,0,2.74,0,4.12,0,.39-.27,.23-.45,.25-.18,.02-.4,.07-.39-.26,.02-.69,0-1.37,0-2.06Z"/>
      <path class="cls-9" d="M129.46,52.08c-.09,1.5-.01,3.01-.04,4.51,0,.19,.07,.27,.26,.26,.19-.01,.39-.03,.58-.04-.75,.25-.89,.15-.89-.6,0-1.2,0-2.41,0-3.61,0-.17-.06-.36,.09-.51Z"/>
      <path class="cls-9" d="M204.34,52.18c-.93-.16-.94-.16-.93,.75,.02,1.29-.05,2.58,.04,3.87-.15-.15-.09-.34-.09-.51,0-1.17,0-2.35,0-3.52,0-.75,.21-.88,.98-.59Z"/>
      <path class="cls-9" d="M57.55,54.82c.16,.39,0,.81,.09,1.19,.08,.29-.39,.84,.38,.84,.78,0,.33-.57,.41-.87,.1-.4-.08-.84,.1-1.24,0,.55-.02,1.11,0,1.66,.02,.37-.08,.52-.49,.51-.35-.01-.54-.07-.51-.48,.04-.53,.01-1.07,.02-1.61Z"/>
      <path class="cls-9" d="M111.49,52.77c.17,.12,.08,.3,.08,.44,0,.97,0,1.95,0,2.92q0,.78,.8,.67c-.74,.24-.89,.15-.89-.56,0-1.16,0-2.32,0-3.48Z"/>
      <path class="cls-9" d="M132.42,52.08c0,.52-.03,1.04-.01,1.56,0,.28-.05,.43-.37,.39-.58-.07-1.18,.11-1.76-.09,.55,0,1.1-.01,1.65,0,.3,.01,.38-.11,.39-.4,.03-.49-.13-1,.09-1.47Z"/>
      <path class="cls-9" d="M185.77,52.79c.17,.12,.08,.3,.08,.44,.02,1.19,.02,2.38,.03,3.57-.17-.14-.1-.33-.1-.5,0-1.17,0-2.34,0-3.51Z"/>
      <path class="cls-9" d="M197.05,52.77c.08-.63,.08-.64-.55-.63-.73,.01-1.45-.05-2.18,.04,.44-.2,.89-.05,1.34-.09,.34-.02,.68,0,1.02,0,.54,0,.62,.15,.37,.68Z"/>
      <path class="cls-9" d="M132.32,54.74c.18,.46,.06,.94,.08,1.41,.02,.77,0,.77,.81,.66-.75,.25-.89,.15-.89-.61v-1.47Z"/>
      <path class="cls-9" d="M197.16,56.8c.1-.46-.01-.66-.55-.62-.46,.03-.95,.12-1.41-.07,.52,0,1.04,0,1.57,0,.55,0,.61,.12,.39,.69Z"/>
      <path class="cls-9" d="M204.14,56.8c0-.75,.02-1.5,.03-2.26,.11,.75,.16,1.51-.03,2.26Z"/>
      <path class="cls-9" d="M130.29,54.74c.67-.08,1.35-.08,2.02,0-.67,0-1.35,0-2.02,0Z"/>
      <path class="cls-9" d="M140.39,54.74c.41-.18,.84-.03,1.26-.08,.19-.02,.39-.03,.58-.04-.31,.26-.68,.08-1.02,.11-.27,.03-.55,0-.82,0Z"/>
      <path class="cls-9" d="M195.2,54.74c.58-.2,1.18,0,1.77-.1-.58,.23-1.18,.05-1.77,.1Z"/>
      <path class="cls-9" d="M65.02,55.62c.03-.05,.05-.15,.08-.15,.52,0,1.04-.12,1.55,.05-.54,.05-1.1-.11-1.63,.1Z"/>
      <path class="cls-9" d="M49.45,55.51c.53-.11,1.06-.13,1.59,.01-.53,0-1.06,0-1.59-.01Z"/>
      <path class="cls-9" d="M112.41,52.77c.47-.15,.97,.06,1.43-.11-.46,.25-.96,.05-1.43,.11Z"/>
      <path class="cls-9" d="M110.11,52.68c.45,.12,.92-.05,1.38,.09-.46-.04-.93,.1-1.38-.09Z"/>
      <path class="cls-9" d="M195.2,56.11c-.08-.46-.08-.91,0-1.37v1.37Z"/>
      <path class="cls-9" d="M195.2,54.01c-.08-.4-.08-.8,0-1.21v1.21Z"/>
      <path class="cls-9" d="M151.78,54.6c.03,.33,.06,.67,.09,1.01-.02,0-.05,.02-.07,.03-.03-.07-.07-.14-.1-.22,.14-.26,.03-.55,.08-.82Z"/>
      <path class="cls-9" d="M93.42,56.77c.34,.07,.68,.22,.99-.07,.04,.05,.07,.15,0,.16-.33,.03-.68,.15-.99-.09Z"/>
      <path class="cls-9" d="M51.46,56.77c.24,.14,.49,.07,.74,.08,.17,0,.14-.13,.14-.24,.1,.1,.12,.25-.02,.26-.29,.03-.6,.15-.86-.1Z"/>
      <path class="cls-9" d="M67.08,56.78c.31,.05,.62,.21,.9-.08,.04,.05,.07,.15,0,.16-.3,.03-.62,.15-.9-.08Z"/>
      <path class="cls-9" d="M48.19,56.61c-.04,.19,.05,.26,.24,.24,.19-.02,.38-.03,.57-.04-.21,.17-.46,.08-.69,.08-.2,0-.24-.12-.12-.29Z"/>
      <path class="cls-9" d="M151.68,56.82c.29,.03,.59,.07,.88,0-.29,.14-.59,.13-.88,0Z"/>
      <path class="cls-9" d="M90.76,56.79c.29,.1,.58,.1,.88,0-.29,.18-.58,.18-.88,0Z"/>
      <path class="cls-9" d="M63.74,56.77c.29,.14,.58,.09,.88,.03-.3,.13-.59,.19-.88-.03Z"/>
      <path class="cls-9" d="M148.72,56.81c.26,.06,.53,.06,.79,0-.26,.14-.53,.14-.79,0Z"/>
      <path class="cls-9" d="M122.8,56.21c-.27,.11-.54,.11-.8,0,.27,0,.54,0,.8,0Z"/>
      <path class="cls-9" d="M207.19,52.2c-.26-.1-.52-.08-.78-.02,.27-.13,.53-.16,.78,.02Z"/>
      <path class="cls-9" d="M215.44,52.06c-.26,0-.52,0-.78,0,.26-.13,.52-.12,.78,0Z"/>
      <path class="cls-9" d="M188.01,52.77c.04-.23,.09-.46-.04-.67,.25,.21,.22,.44,.04,.67Z"/>
      <path class="cls-9" d="M40.65,52.08c-.02,.23-.07,.46,.06,.68-.25-.21-.2-.44-.06-.68Z"/>
      <path class="cls-9" d="M44.22,52.76c.13-.22,.07-.45,.06-.68,.15,.24,.2,.47-.06,.68Z"/>
      <path class="cls-9" d="M206.41,55.2c.02,.12,.04,.25,.07,.38-.12,0-.14-.07-.16-.16,.03-.08,.06-.15,.09-.23Z"/>
      <path class="cls-9" d="M213.35,53.07c0,.19,0,.39,0,.59-.12-.19-.12-.39,0-.59Z"/>
      <path class="cls-9" d="M73.63,53.46c.02,.18,0,.35-.07,.51,0-.17-.06-.35,.07-.51Z"/>
      <path class="cls-9" d="M73.53,54.54c.02,.17,0,.35-.07,.51,0-.17-.06-.35,.07-.51Z"/>
      <path class="cls-9" d="M216.35,55.72c0-.16,0-.33,0-.49,.12,.16,.12,.32,0,.49Z"/>
      <path class="cls-9" d="M123.08,52.06c-.17-.02-.33-.05-.5-.07,.17,.01,.35-.06,.5,.07Z"/>
      <path class="cls-9" d="M73.44,55.62c.02,.18,0,.35-.06,.52,0-.18-.06-.36,.06-.52Z"/>
      <path class="cls-9" d="M122.2,51.99c-.17,.03-.33,.05-.5,.08,.15-.13,.33-.06,.5-.08Z"/>
      <path class="cls-9" d="M59.1,47.46c.16-.07,.33-.08,.5-.07-.15,.13-.33,.06-.5,.07Z"/>
      <path class="cls-9" d="M57.35,47.39c.17,.02,.34,.04,.51,.07-.17,0-.35,.06-.51-.07Z"/>
      <path class="cls-9" d="M73.73,52.38c.02,.18,0,.35-.07,.51,0-.17-.06-.35,.07-.51Z"/>
      <path class="cls-1" d="M52.35,56.6c-.48-1.37-1-2.74-1.43-4.12-.15-.47-.42-.38-.74-.4-.31-.01-.5,.02-.61,.42-.11,.43-.28,.87-.41,1.3-.29,.95-.74,1.84-.97,2.81-.06,.17,.03,.24,.19,.24,.21,0,.42,.04,.62-.03,.15-.43,.3-.87,.45-1.3,.53-.05,1.06-.08,1.59,.01,.14,.41,.28,.83,.42,1.24,.25,.16,.53,.06,.8,.06,.11,0,.14-.12,.09-.23Zm-1.7-1.72c-.34,0-.67,0-1.05,0,.22-.69,.42-1.34,.64-2.04,.21,.63,.41,1.23,.61,1.82,.06,.19-.04,.22-.2,.22Z"/>
      <path class="cls-5" d="M66.5,52.5c-.1-.32-.22-.45-.55-.42-.3,.03-.6-.08-.74,.39-.45,1.45-.98,2.87-1.47,4.3,.29,.14,.58,.08,.88,.03,.09-.41,.21-.81,.4-1.19,.04-.08,.09-.15,.18-.14,.48,.02,.97-.06,1.45,.05,.14,.42,.29,.84,.43,1.26,.31,.07,.62,.19,.9-.08-.5-1.4-1.01-2.79-1.48-4.2Zm-.28,2.39c-1.06,.07-1.06,.07-.73-.91,.12-.35,.22-.71,.35-1.15,.21,.64,.38,1.21,.59,1.78,.09,.24,0,.27-.21,.28Z"/>
      <g>
        <path class="cls-11" d="M137.8,30.62c.91,4.79,4.17,9.38,11.38,11.99l-.03,.31c-1.98,.39-3.13,1.65-3.45,3.85-5.61-3.54-7.53-9.95-8.23-15.19-.85,6.31-3.61,11.6-13.59,15.19l-.21-.34c7.26-4.58,9.21-9.79,9.75-15.82h-9.29l-.21-.73h9.56c.16-2.49,.13-5.11,.13-7.88l5.31,.47c-.08,.42-.35,.65-.99,.76-.05,2.3-.08,4.53-.27,6.65h5.15l2.22-2.75s2.48,1.83,3.98,3.06c-.08,.29-.4,.42-.8,.42h-10.42Z"/>
        <path class="cls-11" d="M175.04,41.41s2,1.62,3.18,2.7c-.08,.29-.37,.42-.75,.42h-9.24v1.2c0,.24-1.07,1-2.86,1h-.64v-12.75c-.59,.79-1.2,1.52-1.9,2.2l-.27-.21c.35-.79,.67-1.65,.96-2.57h-1.5v9.51c0,2.15-.56,3.59-4.22,3.85-.05-1.02-.13-1.75-.51-2.23-.35-.47-.83-.84-2.11-1.05v-.34s2.3,.16,2.83,.16c.4,0,.51-.18,.51-.5v-4.56c-1.5,2.49-3.5,4.64-5.93,6.42l-.29-.26c2.11-2.91,3.61-7.18,4.41-11h-.16l-1.15,1.44-3.1-1.7c.21-.21,.53-.45,.88-.63,.45-2.23,.96-6.02,1.09-7.96h-1.63l-.21-.73h6.09v-.03h1.36l1.63-2.09s1.9,1.44,3.02,2.44c-.05,.29-.35,.42-.72,.42h-1.79v6.89l.51-.68s.67,.55,1.42,1.18c.96-3.48,1.52-7.36,1.71-10.06l4.22,.94c-.08-.26-.19-.52-.32-.76l.21-.1c7.37,1.54,3.37,6.83,.59,4.14,.08-.86-.03-1.75-.24-2.59-.13,.05-.27,.08-.45,.1-.35,1.15-.77,2.41-1.31,3.74l.24,.08h4.49l1.71-2.28s1.92,1.55,3.04,2.59c-.08,.29-.37,.42-.75,.42h-3.87v4.5l1.5-2.12s1.79,1.52,2.8,2.54c-.08,.29-.37,.42-.75,.42h-3.55v4.71h.05l1.55-2.23s1.79,1.52,2.8,2.54c-.05,.29-.35,.42-.72,.42h-3.69v4.84h.05l1.76-2.38Zm-16.51-8.75v-8.12h-.91c-.24,2.04-.75,5.76-1.15,8.12h2.06Zm9.7-4.5v4.61h1.74v-4.61h-1.74Zm1.74,5.34h-1.74v4.71h1.74v-4.71Zm-1.74,10.29h1.74v-4.84h-1.74v4.84Z"/>
        <path class="cls-11" d="M186.41,32.32c0,4.5-.21,10.42-5.21,14.32l-.27-.16c1.98-4.19,2.03-9.48,2.03-14.17v-8.33l3.98,1.34h6.94c-.27-1.26-1.12-2.57-1.92-3.35l.19-.13c5.24-.31,5.56,2.44,4.19,3.48h5.07l1.79-2.41s2,1.62,3.18,2.72c-.08,.29-.37,.42-.75,.42h-19.23v6.26Zm11.86,9.53c-2.16,1-5.34,2.28-10.15,3.98-.16,.34-.43,.55-.72,.63l-1.82-3.43c1.31-.11,3.61-.37,6.38-.71,.32-1.18,.64-2.72,.83-3.82l.11,.03v-.79h-2.94v.37c0,.16-.56,.47-1.26,.65,4.83,1.75,1.52,5.29-.43,3.14,.16-1.02,0-2.17-.32-3.01-.13,.03-.27,.03-.4,.03h-.4v-6.02l2.91,1.13h2.59l1.34-1.39,2.59,1.89c-.11-.5-.24-1-.37-1.44l.29-.1c6.33,3.19,2.83,8.17,.37,5.53,.13-1.2,0-2.49-.24-3.69-.16,.13-.4,.24-.69,.31v2.85c-.03,.18-1.55,.68-2.51,.68h-.13l3.18,1c-.11,.31-.43,.52-1.01,.47-.59,.6-1.47,1.36-2.35,2.07,1.6-.21,3.34-.44,5.1-.68l.05,.34Zm6.46-12.83s1.42,1.52,2.14,2.46c-.05,.29-.32,.42-.69,.42h-2.38v11.08c0,2.25-.51,3.46-4.33,3.77-.08-1.02-.21-1.75-.67-2.25-.45-.47-1.04-.81-2.46-1.07v-.34s2.94,.18,3.53,.18c.43,0,.56-.13,.56-.45v-10.92h-3.1l.05,.05c-.05,.29-.32,.42-.69,.42h-9.7l-.21-.73h3.02v-2.07h-2.99l-.21-.73h3.21v-2.54l4.25,.34c-.05,.34-.21,.58-.88,.68v1.52h.48l1.42-1.78s1.63,1.23,2.62,2.09c-.08,.29-.35,.42-.72,.42h-3.79v2.07h.43l1.36-1.83s.94,.81,1.79,1.57l-.05-.21h3.74v-4.56l4.33,.39c-.05,.39-.32,.63-.96,.71v2.93l.93-1.62Zm-11.83,7.99v-2.25h-2.94v2.25h2.94Z"/>
        <path class="cls-11" d="M232.14,36.33s2.24,2.02,3.5,3.3c-.08,.29-.37,.42-.77,.42h-17.39l4.46,2.1c-.19,.34-.64,.52-1.6,.45-2.24,1.75-6.06,3.3-10.15,4.14l-.11-.24c2.96-1.62,5.8-4.35,7.13-6.44h-7.16l-.21-.73h5.29V22.32l4.22,1.52h7.05l1.84-1.91,3.42,2.7c-.19,.21-.51,.45-1.07,.55v13.46l1.55-2.3Zm-13.17-11.76v3.22h7.69v-3.22h-7.69Zm7.69,3.95h-7.69v3.01h7.69v-3.01Zm-7.69,3.74v3.09h7.69v-3.09h-7.69Zm0,7.04h7.69v-3.22h-7.69v3.22Zm4.97,1.47c15.89,1.13,9.24,8.33,6.09,5.24-.96-1.41-2.83-3.48-6.2-4.95l.11-.29Z"/>
      </g>
    </g>
  </g>
</svg>