<?xml version="1.0" encoding="UTF-8"?>
<svg id="_圖層_2" data-name="圖層 2" xmlns="http://www.w3.org/2000/svg" viewBox="0 0 73.13 70.55">
  <defs>
    <style>
      .cls-1 {
        fill: none;
        stroke: #5a818d;
        stroke-miterlimit: 10;
      }

      .cls-2 {
        fill: #5a818d;
      }
    </style>
  </defs>
  <g id="_圖層_1-2" data-name="圖層 1">
    <g>
      <rect class="cls-1" x=".5" y=".5" width="72.13" height="69.55"/>
      <path class="cls-2" d="M37.34,53.75c-10.13,0-18.35-8.21-18.36-18.34,0-9.24,6.86-17.04,16.02-18.21l2.41-.31-1.58,1.84c-5.59,6.49-4.86,16.29,1.63,21.89,3.94,3.39,9.32,4.59,14.33,3.18l2.35-.65-1.3,2.05c-3.35,5.33-9.21,8.55-15.5,8.54Zm-4.41-34.23c-8.77,2.43-13.91,11.51-11.48,20.28,2.43,8.77,11.51,13.91,20.28,11.48,3.16-.88,5.99-2.67,8.12-5.17-.73,.1-1.47,.15-2.21,.15-9.61,0-17.41-7.78-17.42-17.39,0-3.31,.94-6.55,2.71-9.34Z"/>
    </g>
  </g>
</svg>