<?xml version="1.0" encoding="UTF-8"?>
<svg id="_圖層_2" data-name="圖層 2" xmlns="http://www.w3.org/2000/svg" viewBox="0 0 73.13 70.55">
  <defs>
    <style>
      .cls-1 {
        fill: none;
        stroke: #5a818d;
        stroke-miterlimit: 10;
      }

      .cls-2 {
        fill: #5a818d;
      }
    </style>
  </defs>
  <g id="_圖層_1-2" data-name="圖層 1">
    <g>
      <rect class="cls-1" x=".5" y=".5" width="72.13" height="69.55"/>
      <g>
        <path class="cls-2" d="M36.11,25.83c-5.82,0-10.53,4.72-10.53,10.53s4.71,10.53,10.53,10.53,10.53-4.71,10.53-10.53-4.71-10.53-10.53-10.53h0Zm0,19.66c-5.03,0-9.13-4.09-9.13-9.13s4.09-9.13,9.13-9.13,9.13,4.1,9.13,9.13-4.09,9.13-9.13,9.13Z"/>
        <path class="cls-2" d="M35.41,15.29h1.4v8.44h-1.4V15.29h0Z"/>
        <path class="cls-2" d="M35.41,49h1.4v8.42h-1.4v-8.42h0Z"/>
        <path class="cls-2" d="M15.04,35.65h8.42v1.4H15.04v-1.4h0Z"/>
        <path class="cls-2" d="M48.74,35.65h8.43v1.4h-8.43v-1.4h0Z"/>
        <path class="cls-2" d="M50.51,20.92l.99,.99-5.87,5.87-.99-.99,5.87-5.87h0Z"/>
        <path class="cls-2" d="M21.71,51.7l-.99-.99,5.87-5.87,.99,.99-5.87,5.87h0Z"/>
        <path class="cls-2" d="M21.71,20.92l5.87,5.87-.99,.99-5.87-5.87,.99-.99h0Z"/>
        <path class="cls-2" d="M50.51,51.7l-5.87-5.87,.99-.99,5.87,5.87-.99,.99Z"/>
      </g>
    </g>
  </g>
</svg>