<?xml version="1.0" encoding="UTF-8"?>
<svg id="_圖層_2" data-name="圖層 2" xmlns="http://www.w3.org/2000/svg" viewBox="0 0 56.43 16.56">
  <defs>
    <style>
      .cls-1 {
        fill: #fff;
        fill-rule: evenodd;
      }
    </style>
  </defs>
  <g id="_圖層_1-2" data-name="圖層 1">
    <g>
      <polygon class="cls-1" points="56.43 3.35 48.44 3.35 46.99 7.5 49.28 7.5 49.28 16.24 53.97 16.24 53.97 7.5 56.43 7.5 56.43 3.35"/>
      <polygon class="cls-1" points="43.12 3.35 41.12 9.03 39.6 3.35 36.07 3.35 34.55 9.03 32.55 3.35 27.79 3.35 32.29 16.24 36.17 16.24 37.84 9.97 39.5 16.24 43.38 16.24 47.88 3.35 43.12 3.35"/>
      <path class="cls-1" d="M26.48,9.62c.96-.6,1.6-1.67,1.6-2.88,0-1.88-1.52-3.4-3.4-3.4h-7.02v12.89h0s7.71,0,7.71,0c1.88,0,3.4-1.52,3.4-3.4,0-1.49-.96-2.76-2.29-3.22m-4.89-3.08h1.26c.37,0,.68,.39,.68,.87s-.3,.87-.68,.87h-1.26v-1.73Zm1.92,6.87h-1.91v-1.89h1.91c.42,0,.76,.42,.76,.94s-.34,.94-.76,.94"/>
      <path class="cls-1" d="M11.68,5.12h0S2.56,0,2.56,0V1.62S0,.27,0,.27V10.54c0,3.33,2.7,6.02,6.02,6.02,.68,0,1.33-.11,1.93-.32,.25,.03,.51,.05,.77,.05,3.3,0,5.98-2.68,5.98-5.98,0-2.23-1.22-4.17-3.02-5.2M6.02,15.64c-2.82,0-5.11-2.29-5.11-5.11V1.76l2.85,1.58v7.19c0,1.25,1.01,2.26,2.26,2.26s2.26-1.01,2.26-2.26c0-1.03-.69-1.89-1.62-2.17v-2.9c2.52,.31,4.47,2.46,4.47,5.07,0,2.82-2.29,5.11-5.11,5.11"/>
    </g>
  </g>
</svg>