<?xml version="1.0" encoding="UTF-8"?>
<svg id="_圖層_2" data-name="圖層 2" xmlns="http://www.w3.org/2000/svg" viewBox="0 0 79.16 24.44">
  <defs>
    <style>
      .cls-1 {
        fill: #fff;
        fill-rule: evenodd;
      }
    </style>
  </defs>
  <g id="_圖層_1-2" data-name="圖層 1">
    <g>
      <path class="cls-1" d="M53.32,24.36h-8.48c-.7-.32-.92-.87-.91-1.62,.02-3.04,.02-6.07,0-9.11,0-.49,.1-.68,.64-.67,2.83,.03,5.66,.03,8.5,0,.51,0,.65,.16,.61,.64-.04,.43-.04,.86,0,1.28,.04,.46-.16,.56-.58,.56-1.7-.02-3.39,.01-5.09-.02-.51,0-.63,.16-.61,.64,.03,1.05,0,1.05,1.08,1.05,1.25,0,2.5,.02,3.75-.01,.46-.01,.58,.15,.56,.58-.03,.46-.03,.93,0,1.4,.02,.4-.14,.51-.52,.5-1.43-.02-2.87,.01-4.3-.02-.45,0-.59,.15-.56,.58,.03,.43,.03,.86,0,1.28-.03,.4,.13,.51,.52,.5,1.7-.02,3.39,0,5.09-.02,.51,0,.73,.15,.67,.67-.03,.28-.03,.56,0,.84,.04,.38-.06,.69-.35,.95Z"/>
      <path class="cls-1" d="M36.33,24.36h-3.34c0-3.09-.02-6.18,0-9.26,0-1.51,1.77-2.67,3.29-2.28,1.04,.27,1.57,1.07,2.12,1.85,1.5,2.11,2.96,4.25,4.47,6.35,.9,1.25,.66,2.67-.72,3.35-1.63,0-3.27,0-4.9,0-.18-.14-.23-.33-.23-.55,0-.46-.02-.93,0-1.39,.03-.51,.22-.68,.74-.72,.19-.01,.37,0,.56,0,.16,0,.38,.07,.47-.08,.1-.17-.08-.31-.17-.44-.68-.97-1.37-1.95-2.04-2.95,0,1.79,0,3.55,0,5.32,0,.29,.04,.6-.23,.82Z"/>
      <path class="cls-1" d="M74.9,24.36c-1.63,0-3.27,0-4.9,0-.46-.36-.94-.68-1.13-1.3-.3-.93,.17-1.6,.65-2.29,1.51-2.14,3.03-4.28,4.53-6.43,.58-.83,1.24-1.53,2.33-1.6,1.29-.07,2.19,.52,2.75,1.79,0,3.14,0,6.28,.02,9.42,0,.3-.06,.43-.4,.42-.98-.02-1.97-.02-2.95-.02-.27-.22-.23-.53-.23-.82,0-1.73,0-3.45,0-5.2-.7,1.01-1.39,2-2.08,3-.28,.41-.25,.48,.22,.46,1.58-.07,1.42,.39,1.41,1.46,0,.38,.11,.79-.23,1.1Z"/>
      <path class="cls-1" d="M67.3,24.36c-.96,0-1.93,0-2.89,0-.16-.21-.12-.46-.12-.7,0-2.53-.02-5.06,.01-7.59,0-.53-.16-.67-.66-.64-.74,.04-1.49,0-2.23,.02-.37,.01-.49-.12-.48-.48,.02-.52,.02-1.04,0-1.56,0-.31,.11-.42,.42-.42,3.07,0,6.14,0,9.21,0,.36,0,.44,.15,.43,.47-.02,.5-.03,1.01,0,1.51,.02,.41-.15,.51-.52,.5-.76-.02-1.53,.02-2.29-.02-.46-.02-.56,.15-.56,.58,.02,2.49,0,4.99,.01,7.48,0,.35-.01,.67-.35,.88Z"/>
      <path class="cls-1" d="M63.16,24.36h-7.7c-.68-.34-.91-.9-.91-1.63,.02-3,0-6,0-9q0-.76,.73-.76c.69,0,1.38,.03,2.07,0,.45-.02,.57,.14,.56,.57-.02,2.61,0,5.22-.02,7.82,0,.54,.14,.7,.68,.68,1.43-.04,2.87,0,4.3-.02,.39,0,.56,.12,.5,.51-.08,.61,.21,1.27-.23,1.83Z"/>
      <g>
        <path class="cls-1" d="M28.61,22.63c-1.94-3.2-3.88-6.39-5.82-9.59-2.13-3.51-4.26-7.03-6.37-10.55-.49-.82-1.07-1.6-1.44-2.49h-.22c-.58,.31-.79,.92-1.1,1.44C9.38,8.45,5.13,15.47,.85,22.47c-.33,.54-.68,1.06-.85,1.68v.22c.15,.1,.33,.05,.49,.05,9.55,0,19.1,0,28.64,0,.16,0,.34,.06,.48-.07-.33-.58-.66-1.16-1.01-1.73Zm-9.18-1.64c-.49,.32-1.05,.47-1.86,.47-.43,.06-.9-.06-1.32-.32-.33-.21-.58-.15-.9,.07-1.36,.95-2.87,1.58-4.52,1.68-2.88,.19-4.87-2.13-4.03-4.88,.69-2.26,2.15-3.94,3.9-5.42,1.06-.89,2.22-1.62,3.52-2.08,1.52-.54,3.07-.87,4.62-.09,1.38,.7,2.14,2.32,1.8,3.85-.1,.43-.14,.88-.35,1.28-.13,.24,.05,.42,.17,.6,1.13,1.71,.66,3.73-1.03,4.83Z"/>
        <path class="cls-1" d="M17.7,11.26c-1.44-.32-2.76,.14-4.02,.75-1.45,.7-2.67,1.72-3.74,2.91-.91,1.02-1.69,2.11-2.03,3.46-.48,1.89,.62,3.26,2.44,3.31,1.62,.04,2.99-.62,4.32-1.41,.27-.16,.17-.29,.05-.49-.34-.55-.53-1.19-.48-1.8,.18-2.13,1.88-3.7,4.19-3.23,.99,.2,1.01,.16,1.02-.88,0-.07,0-.15,0-.22,0-1.36-.53-2.12-1.75-2.39Z"/>
      </g>
    </g>
  </g>
</svg>