<?xml version="1.0" encoding="UTF-8"?>
<svg id="_圖層_2" data-name="圖層 2" xmlns="http://www.w3.org/2000/svg" viewBox="0 0 64.35 23.44">
  <defs>
    <style>
      .cls-1 {
        fill: #fff;
      }
    </style>
  </defs>
  <g id="_圖層_1-2" data-name="圖層 1">
    <g>
      <g>
        <path class="cls-1" d="M.24,4.97s8.76-11.19,18.82,0c0,0-4.28-2.9-9.41-2.97C4.52,1.92,.24,4.97,.24,4.97Z"/>
        <path class="cls-1" d="M9.8,3.84C4.39,3.84,0,8.23,0,13.64s4.39,9.8,9.8,9.8,9.8-4.39,9.8-9.8S15.21,3.84,9.8,3.84Zm0,16.34c-3.61,0-6.54-2.93-6.54-6.54s2.93-6.54,6.54-6.54,6.54,2.93,6.54,6.54-2.93,6.54-6.54,6.54Z"/>
        <path class="cls-1" d="M13.14,13.64c0,1.84-1.49,3.34-3.34,3.34s-3.34-1.49-3.34-3.34,1.49-3.34,3.34-3.34,3.34,1.49,3.34,3.34Z"/>
      </g>
      <g>
        <polygon class="cls-1" points="38.01 22.54 38.01 16.66 37.14 16.66 37.14 22.54 37.14 23.39 38.01 23.39 40.88 23.39 40.88 22.54 38.01 22.54"/>
        <path class="cls-1" d="M47.51,21.35l1.01,2.09h1.1l-3.53-6.91-3.76,6.91h1.15l1.07-2.09h2.97Zm-1.42-2.92l1.08,2.11h-2.16l1.08-2.11Z"/>
        <path class="cls-1" d="M34.41,23.39l-2.63-3.11h.89c.88,0,1.6-.81,1.6-1.81,0-.16-.03-.34-.06-.5-.04-.16-.1-.31-.17-.45-.08-.14-.17-.27-.27-.38-.1-.11-.22-.21-.35-.28-.14-.07-.28-.12-.43-.16,0,0-.02,0-.03,0-.06-.01-.13,0-.19-.01-.09,0-.18,0-.27,0-.12,0-.24,0-.37,0-.14,0-.28,0-.43,0-.15,0-.3,0-.45,0-.15,0-.3,0-.45,0-.11,0-.22,0-.33,0h0s-.77,0-.77,0c0,0-.01,0-.01,0v.8h.01v1.99h-.01v.81h.01v3.11h.77v-3.11h.11l2.62,3.11h1.21Zm-3.93-5.91h2.15c.44,.05,.78,.48,.78,.99,0,.55-.39,1-.88,1-.02,0-.04,0-.05,0h-2v-1.99Z"/>
        <polygon class="cls-1" points="49.98 23.44 49.98 16.53 50.3 16.53 54.98 21.52 54.98 16.53 55.87 16.53 55.87 23.44 55.5 23.44 50.86 18.48 50.81 23.44 49.98 23.44"/>
        <polygon class="cls-1" points="61.98 16.69 57.77 16.69 57.77 17.56 59.32 17.56 59.32 23.44 60.41 23.44 60.41 17.56 61.98 17.56 61.98 16.69"/>
        <g>
          <path class="cls-1" d="M62.57,16.82v-1.01h-.38v-.14h.91v.14h-.38v1.01h-.15Z"/>
          <path class="cls-1" d="M63.25,16.82v-1.15h.23l.27,.81c.03,.08,.04,.13,.05,.17,.01-.04,.03-.1,.06-.18l.27-.8h.2v1.15h-.15v-.96l-.33,.96h-.14l-.33-.98v.98h-.15Z"/>
        </g>
        <g>
          <path class="cls-1" d="M28.27,2.5v1.02h-4.47V12.06h4.83v1.02h-5.88v-.51h-.03V2.5h5.55Zm-3.99,5.52h2.1v3.32h-.72v-.56h-.66v.72h-.72v-3.48Zm.56-3.78h3.17v3.03h-.92v-.37h-1.33v.51h-.92v-3.17Zm.15,5.83h.66v-1.33h-.66v1.33Zm.77-3.99h1.33v-1.02h-1.33v1.02Zm1.07,1.94h2.1v3.37h-.72v-.61h-.66v.72h-.72v-3.48Zm.72,2.04h.66v-1.33h-.66v1.33Zm3.19-3.68l1.07,.12c.15,.02,.23,.06,.23,.14,0,.07-.08,.15-.23,.24-.03,.67-.06,1.27-.11,1.79,.05,.48,.14,.9,.27,1.26,.24,.75,.58,1.41,1.03,1.97,.43,.52,.94,.98,1.55,1.37l-1.01,.83c-.59-.53-1.04-1.03-1.35-1.51-.38-.51-.67-1.06-.89-1.66-.08,.29-.17,.55-.27,.78-.34,.83-.91,1.62-1.71,2.39l-.95-.74c.74-.66,1.27-1.32,1.58-1.99,.23-.45,.4-.99,.52-1.62,.14-.75,.23-1.87,.27-3.36Zm-.52-4.29l1.14,.33c.12,0,.18,.06,.18,.15,0,.1-.09,.22-.27,.36-.12,.5-.25,.97-.38,1.41h2.26l.33-.14c.11,0,.22,.04,.32,.11l.64,.45c.08,.06,.11,.12,.11,.18,0,.11-.09,.22-.27,.33l-.83,2.34-1.05-.37,.68-1.88h-2.54c-.3,.81-.62,1.54-.97,2.2l-1.15-.42c.39-.6,.72-1.25,.98-1.97,.35-.92,.62-1.95,.82-3.08Z"/>
          <path class="cls-1" d="M37.58,2.65h3.22v-.61l1.06,.09c.2,0,.29,.06,.29,.17,0,.06-.08,.15-.23,.28v.08h3.17v-.61l1.06,.09c.2,0,.29,.06,.29,.17,0,.06-.08,.15-.23,.28v.08h3.12v.92h-3.12v.56h-1.12v-.56h-3.17v.56h-1.12v-.56h-3.22v-.92Zm.43,1.64h5.01v3.13l.84,.08s.06,0,.08,.01v-3.22h4.96V12.79c0,.54-.21,.88-.64,1.04-.33,.12-.66,.18-1,.18l-.42-1.05-.83,.79c-.56-.22-1.03-.44-1.41-.66-.23-.14-.46-.3-.69-.5v1.37h-1.02v-1.53c-.24,.18-.46,.34-.68,.49-.43,.3-1.06,.63-1.87,1l-1.03-.78c.83-.26,1.51-.52,2.03-.75,.27-.12,.54-.26,.8-.41h-1.97v-2.4h2.71v-.54h-3.17v-.77h3.17v-.54h-3.81v6.18h-1.07V4.29Zm1.07,1.3h2.86v-.38h-2.86v.38Zm0,1.2h2.86v-.43h-2.86v.43Zm2.93,4.45c-.15-.24-.32-.46-.5-.68l.59-.29h-.89v.97h.81Zm.88,0v-.97h-.65c.2,.24,.36,.46,.5,.68l-.47,.29h.63Zm1.51,.72c.42,.21,.76,.36,1.04,.45,.41,.14,.92,.28,1.55,.41l-.1,.1,.65-.03c.2-.02,.29-.17,.29-.45V7.71h-3.73c-.04,.07-.1,.13-.18,.18v.36h3.27v.77h-3.27v.54h2.81v2.4h-2.33Zm.24-.72l-.38-.22c.23-.26,.41-.51,.55-.75h-.89v.97h.73Zm.37-5.65h2.81v-.38h-2.81v.38Zm2.81,1.2v-.43h-2.81v.43h2.81Zm-2.12,4.45v-.97h-.64l.33,.19c.07,.06,.1,.11,.1,.15,0,.06-.05,.12-.15,.18-.09,.15-.18,.3-.29,.45h.65Z"/>
          <path class="cls-1" d="M53.19,3.11l1.1,.33c.11,0,.17,.05,.17,.14s-.08,.2-.24,.33c-.07,.4-.13,.78-.19,1.14h.97V2.19l1.01,.09c.19,0,.28,.06,.28,.15,0,.06-.07,.15-.22,.27v2.35h1.25v1.02h-1.25v2.49c.41-.11,.81-.23,1.2-.34v1.09l-1.2,.33v4.31h-1.07v-4.01l-1.64,.45c-.12,.25-.23,.37-.33,.37-.08,0-.14-.07-.18-.2l-.43-1.12c.87-.16,1.73-.35,2.58-.57v-2.77h-1.15c-.14,.61-.28,1.18-.42,1.69l-1.11-.41c.2-.5,.36-1.06,.49-1.66,.17-.77,.3-1.63,.4-2.58Zm4.29,.56h2.75v-1.53l1.05,.09c.2,0,.31,.06,.31,.17,0,.06-.08,.15-.23,.28v1h2.81v1.02h-2.81v1.58h2.5v1.02h-5.93v-1.02h2.3v-1.58h-2.75v-1.02Zm.09,5.01h3.94v-1.07l1.23,.15c.14,.02,.2,.07,.2,.17s-.1,.2-.31,.32v.43h1.58v1.02h-1.58v2.73c0,.51-.14,.89-.42,1.14-.23,.25-.82,.37-1.78,.37l-.46-1.15h.98c.34,0,.52-.2,.55-.59v-2.5h-3.94v-1.02Zm.97,1.58c.65,.4,1.28,.85,1.89,1.35l-.73,.74c-.65-.51-1.24-.95-1.78-1.32l.61-.78Z"/>
        </g>
        <path class="cls-1" d="M25.1,16.66c-1.54,0-2.79,1.52-2.79,3.39s1.25,3.39,2.79,3.39,2.79-1.52,2.79-3.39-1.25-3.39-2.79-3.39Zm0,5.65c-1.03,0-1.86-1.01-1.86-2.26s.83-2.26,1.86-2.26,1.86,1.01,1.86,2.26-.83,2.26-1.86,2.26Z"/>
      </g>
    </g>
  </g>
</svg>