<?xml version="1.0" encoding="UTF-8"?>
<svg id="_圖層_2" data-name="圖層 2" xmlns="http://www.w3.org/2000/svg" viewBox="0 0 50.61 21.85">
  <defs>
    <style>
      .cls-1 {
        fill: #fff;
      }
    </style>
  </defs>
  <g id="_圖層_1-2" data-name="圖層 1">
    <path class="cls-1" d="M10.66,15.38c-3.68,0-7.25,.45-10.66,1.29v4.17c3.47-.87,7.1-1.34,10.85-1.34s7.04,.42,10.38,1.22c2.44,.58,4.95,.97,7.53,1.12,2.36-1.33,4.64-2.78,6.84-4.34,.04-.03,.06-.07,.06-.12,0-.08-.07-.14-.14-.14-1.39,.36-2.82,.55-4.29,.55-3.51,0-6.92-.42-10.18-1.2-3.33-.8-6.8-1.22-10.38-1.22M8.63,3.63c0,.71-.36,1.34-.92,1.71-.5,.33-1.05,.56-1.66,.67-.66,.12-1.33,.18-2.02,.18V1.88s2.25,0,2.25,0c.35,0,.69,.04,1.02,.1,.76,.15,1.34,.83,1.34,1.64m4.6,9.6l-3.37-5.93c.16-.06,.32-.12,.48-.19,1.36-.59,2.32-1.95,2.32-3.52,0-1.47-.96-2.72-2.29-3.14-.61-.19-1.25-.32-1.9-.37-.62-.05-1.25-.07-1.88-.07H0V13.23H4.03v-5.18c.61,0,1.21-.02,1.81-.06l2.79,5.24h4.6Zm9.41-4.74c0,.65-.05,1.3-.15,1.92-.1,.65-.57,1.17-1.19,1.34-.28,.08-.57,.12-.88,.12s-.6-.04-.88-.12c-.62-.17-1.09-.69-1.19-1.34-.1-.63-.15-1.27-.15-1.92s.05-1.3,.15-1.93c.1-.65,.57-1.17,1.19-1.34,.28-.08,.57-.12,.88-.12s.6,.04,.88,.12c.62,.17,1.09,.69,1.19,1.34,.1,.63,.15,1.27,.15,1.93m3.68,1.41c.09-.46,.13-.93,.13-1.41s-.05-.95-.13-1.41c-.31-1.6-1.52-2.88-3.1-3.27-.9-.22-1.84-.35-2.81-.35s-1.91,.12-2.81,.35c-1.58,.39-2.79,1.67-3.1,3.27-.09,.46-.13,.93-.13,1.41s.05,.96,.13,1.41c.31,1.6,1.52,2.88,3.1,3.27,.9,.22,1.84,.34,2.81,.34s1.91-.12,2.81-.34c1.58-.39,2.79-1.67,3.1-3.27m6.14,.07c-.12-.48-.17-.97-.17-1.48s.05-1,.17-1.48c.14-.57,.53-1.03,1.06-1.26,.39-.17,.83-.26,1.28-.26,.87,0,1.7,.11,2.52,.31l.63-1.77c-1.17-.37-2.43-.58-3.72-.58-1.02,0-1.99,.18-2.9,.51-1.4,.51-2.45,1.73-2.74,3.22-.08,.42-.12,.86-.12,1.3s.04,.88,.12,1.3c.29,1.49,1.34,2.71,2.74,3.22,.9,.33,1.88,.51,2.9,.51,1.3,0,2.55-.2,3.72-.57l-.63-1.77c-.81,.2-1.65,.31-2.52,.31-.45,0-.89-.09-1.28-.26-.53-.22-.92-.69-1.06-1.26m14.34,1.89c-.42,.05-.85,.08-1.29,.08-.5,0-.99-.09-1.43-.26-.52-.19-.89-.69-.89-1.28,0-.65,.39-1.21,.96-1.44,.32-.13,.66-.22,1.02-.27,.53-.06,1.08-.1,1.63-.1v3.26h0Zm-1.27,1.66c1.76,0,3.46-.25,5.07-.71V7.36c0-.36-.03-.72-.1-1.06-.25-1.23-1.17-2.21-2.37-2.53-.79-.2-1.6-.31-2.44-.31-1.67,0-3.3,.2-4.86,.58l.62,1.72c1.07-.29,2.2-.44,3.36-.44,.43,0,.85,.04,1.26,.13,.42,.09,.74,.46,.74,.9v.86c-.78,0-1.54,.03-2.3,.08-.8,.05-1.57,.19-2.31,.41-.37,.11-.73,.25-1.07,.41-.86,.42-1.45,1.3-1.45,2.32s.65,1.99,1.57,2.38c.75,.32,1.56,.54,2.4,.62,.61,.06,1.25,.1,1.88,.1m5.07,7.19v-4.6h-11.03c-.31,0-.57,.16-.72,.4l-2.63,4.2h14.38Z"/>
  </g>
</svg>