<?xml version="1.0" encoding="UTF-8"?>
<svg id="_圖層_2" data-name="圖層 2" xmlns="http://www.w3.org/2000/svg" viewBox="0 0 94.96 11.74">
  <defs>
    <style>
      .cls-1 {
        fill: #fff;
      }
    </style>
  </defs>
  <g id="_圖層_1-2" data-name="圖層 1">
    <g>
      <path class="cls-1" d="M34.27,.15V2.25h-5.16v2.59h5.16v2.1h-5.16v4.66h-2.47V.15h7.63Z"/>
      <path class="cls-1" d="M43.89,9.5v2.1h-8.05V.15h8.02V2.25h-5.55v2.59h5.55v2.1h-5.55v2.56h5.58Z"/>
      <path class="cls-1" d="M45.44,.15h5.23c.96,0,1.74,.32,2.34,.96,.6,.64,.9,1.42,.9,2.33,0,1.26-.57,2.19-1.7,2.8,.5,.26,.97,.96,1.42,2.11,.45,1.15,.87,2.2,1.3,3.24h-2.64c-.15-.4-.41-1.1-.82-2.15-.4-1.06-.85-1.74-1.14-2.04-.29-.3-.59-.45-.92-.45h-1.51v4.65h-2.47V.15Zm2.47,2.1v2.61h2.11c.42,0,.75-.11,.99-.34,.24-.23,.37-.55,.37-.97,0-.86-.47-1.3-1.41-1.3h-2.05Z"/>
      <path class="cls-1" d="M64.09,9.5v2.1h-7.57V.15h2.47V9.5h5.09Z"/>
      <path class="cls-1" d="M68.56,0c1.69,0,3.06,.59,4.11,1.77,1.05,1.18,1.57,2.55,1.57,4.11s-.53,2.96-1.59,4.12c-1.06,1.16-2.42,1.75-4.08,1.75s-3.05-.58-4.1-1.74c-1.06-1.16-1.59-2.53-1.59-4.13s.53-2.94,1.57-4.11c1.05-1.18,2.42-1.76,4.12-1.76Zm0,9.36c.94,0,1.69-.32,2.27-.96,.57-.64,.86-1.48,.86-2.53s-.29-1.89-.86-2.53c-.57-.64-1.33-.96-2.27-.96s-1.7,.32-2.28,.96c-.57,.64-.86,1.48-.86,2.53s.29,1.89,.86,2.53c.58,.64,1.33,.96,2.28,.96Z"/>
      <path class="cls-1" d="M83.87,8.1v2.5c-1.24,.76-2.54,1.14-3.9,1.14-1.76,0-3.17-.56-4.21-1.68-1.05-1.12-1.57-2.51-1.57-4.15s.55-3.04,1.65-4.19c1.1-1.15,2.54-1.72,4.31-1.72,1.42,0,2.62,.34,3.59,1.01V3.56c-1.2-.78-2.34-1.17-3.42-1.17s-1.92,.33-2.59,.98c-.67,.65-1,1.49-1,2.5s.33,1.85,.99,2.51c.66,.66,1.51,.99,2.54,.99,.51,0,1-.08,1.48-.23,.47-.16,1.18-.5,2.12-1.03Z"/>
      <path class="cls-1" d="M94.96,.15l-4.54,5.38,4.54,6.06h-3.09l-3.93-5.37v5.37h-2.47V.15h2.47V5.3L92.24,.15h2.72Z"/>
      <polygon class="cls-1" points="17.73 .15 15.24 .15 12.67 7.54 9.85 .15 7.9 .15 5.09 7.54 2.5 .15 0 .15 4.07 11.59 6.01 11.59 8.74 4.57 8.87 4.25 11.74 11.59 13.68 11.59 17.73 .15"/>
      <polygon class="cls-1" points="26.65 11.59 22.24 .15 19.38 .15 15.37 11.59 17.99 11.59 18.73 9.33 18.73 9.33 19.38 7.33 19.38 7.33 20.84 2.88 22.09 6.32 22.09 6.32 23.6 10.51 23.6 10.51 23.99 11.59 26.65 11.59"/>
    </g>
  </g>
</svg>