<?xml version="1.0" encoding="UTF-8"?>
<svg id="_圖層_2" data-name="圖層 2" xmlns="http://www.w3.org/2000/svg" viewBox="0 0 65.34 11.9">
  <defs>
    <style>
      .cls-1 {
        fill: #fff;
      }
    </style>
  </defs>
  <g id="_圖層_1-2" data-name="圖層 1">
    <g>
      <path class="cls-1" d="M20.35,10.17h-1.69c-.65-.02-1.21-.1-1.67-.23v-1.22h3.37c.32,0,.59-.13,.79-.4,.2-.26,.3-.57,.3-.93v-2.14c0-.35-.1-.65-.29-.89-.18-.24-.44-.36-.77-.36h-3.09c-.33,0-.6,.12-.82,.35-.22,.23-.33,.52-.33,.85v6.68h-1.36V5.32c0-.76,.24-1.41,.71-1.95,.48-.54,1.08-.81,1.8-.81h3.09c.72,0,1.31,.24,1.76,.71,.45,.47,.68,1.08,.68,1.83v2.37c0,.76-.22,1.4-.67,1.92-.44,.52-1.05,.78-1.8,.78"/>
      <path class="cls-1" d="M29.87,10.17h-3.24c-.72,0-1.31-.26-1.77-.78-.46-.52-.69-1.16-.69-1.92v-2.37c0-.77,.23-1.4,.68-1.89,.46-.49,1.05-.73,1.78-.73h3.18c.72,0,1.31,.24,1.77,.74,.46,.49,.69,1.12,.69,1.88v2.37c0,.73-.21,1.35-.64,1.87-.45,.55-1.04,.82-1.76,.82m1.02-4.91h0c0-.35-.1-.66-.3-.93-.2-.27-.46-.4-.78-.4h-3.19c-.32,0-.58,.13-.78,.4-.2,.27-.3,.58-.3,.93v2.14c0,.35,.1,.66,.3,.93,.2,.26,.46,.39,.78,.39h3.19c.32,0,.59-.13,.78-.39,.2-.26,.3-.57,.3-.93v-2.14Z"/>
      <path class="cls-1" d="M35.7,10.17c-.66,0-1.2-.26-1.63-.78-.43-.52-.65-1.15-.65-1.92V0h1.28V7.4c0,.36,.09,.66,.28,.93,.19,.26,.43,.4,.72,.4h1.02v1.45h-1.02Z"/>
      <path class="cls-1" d="M39.53,10.17c-.66,0-1.2-.26-1.63-.78-.43-.52-.65-1.15-.65-1.92V0h1.28V7.4c0,.36,.09,.66,.28,.93,.19,.26,.43,.4,.72,.4h1.01v1.45h-1.02Z"/>
      <path class="cls-1" d="M45.89,10.2c-.75,0-1.37-.23-1.88-.69-.51-.46-.77-1.07-.77-1.81V0h.84V2.76h2.67v.73h-2.67V7.61c0,.52,.17,.95,.52,1.31,.34,.36,.78,.54,1.29,.54h.92v.74h-.92Z"/>
      <path class="cls-1" d="M53.77,7.77h-2.52v-.74h2.52c.56,0,1-.18,1.31-.53,.31-.35,.47-.81,.47-1.38,0-.53-.17-.95-.49-1.28-.33-.33-.76-.49-1.28-.48l-3.87,.05c-.49,.01-.89,.18-1.2,.51-.31,.33-.46,.75-.46,1.25v2.44c0,.51,.16,.94,.48,1.3,.32,.36,.73,.54,1.23,.54h5.56v.74h-5.56c-.75,0-1.35-.23-1.81-.7-.46-.47-.69-1.07-.69-1.8v-2.57c0-.75,.22-1.34,.67-1.79,.45-.44,1.05-.67,1.79-.67h3.94c.78,0,1.39,.25,1.85,.76,.41,.47,.63,1.1,.63,1.89,0,.72-.24,1.31-.73,1.77-.48,.46-1.09,.68-1.83,.68"/>
      <polygon class="cls-1" points="65.33 10.17 64.76 10.17 61.07 7.02 57.36 10.18 56.8 10.17 56.78 9.6 60.44 6.49 56.78 3.36 56.8 2.79 57.36 2.78 61.07 5.94 64.76 2.79 65.33 2.79 65.34 3.37 61.69 6.49 65.34 9.59 65.33 10.17"/>
      <path class="cls-1" d="M41.63,5h-1.39c-.13,0-.23,.1-.23,.23v1.39c0,.13,.1,.23,.23,.23h1.39c.13,0,.23-.1,.23-.23v-1.39c0-.13-.1-.23-.23-.23"/>
      <path class="cls-1" d="M10.41,0H1.49C.79,0,.21,.49,.05,1.14c.15,.1,.27,.25,.31,.43,.06,.27-.1,.48-.36,.48v.31s.03-.01,.05,0c.27,.01,.54,.24,.6,.51,.07,.27-.1,.49-.38,.48-.1,0-.19-.04-.28-.09v.56c.07-.11,.19-.18,.35-.18,.28,0,.56,.22,.63,.48,.07,.26-.11,.47-.39,.47-.25,0-.48-.17-.58-.38v6.21c0,.82,.67,1.49,1.49,1.49H10.41c.82,0,1.49-.66,1.49-1.49V1.49C11.9,.67,11.23,0,10.41,0m-1.51,1.67h0c.29-.03,.6,.15,.69,.39,.09,.24-.07,.46-.36,.48-.29,.03-.61-.14-.7-.39-.09-.24,.07-.46,.37-.48m-.47,2.14h0c-.29,.03-.62-.14-.73-.38-.11-.24,.04-.46,.33-.49,.29-.03,.61,.14,.72,.38,.11,.24-.03,.46-.32,.49m-.17-1.63h0c.09,.24-.06,.46-.35,.49-.29,.03-.61-.14-.7-.38-.1-.25,.07-.47,.36-.5,.29-.03,.59,.14,.69,.39m-3.34,3.22h0c-.3,.04-.61-.12-.7-.36-.09-.24,.07-.46,.36-.5,.29-.04,.61,.13,.7,.36,.1,.24-.07,.46-.37,.49m.81,.6h0c.09,.23-.09,.45-.39,.48-.31,.04-.62-.11-.71-.34-.08-.23,.09-.45,.39-.49,.3-.04,.62,.12,.71,.35m-.9-2.21h0c.1,.24-.06,.47-.35,.5-.29,.04-.6-.13-.69-.38-.09-.25,.07-.47,.35-.5,.28-.03,.59,.14,.69,.38m.16-1.7h0c.28-.03,.58,.14,.67,.39,.09,.25-.06,.47-.34,.51-.28,.03-.59-.14-.68-.39-.09-.25,.07-.48,.35-.51m-.95,1.05h0c-.28,.03-.58-.15-.66-.4-.08-.26,.07-.49,.35-.51,.28-.03,.57,.16,.66,.41,.09,.25-.07,.48-.35,.51m-.51,.81h0c.09,.25-.07,.47-.36,.5-.29,.03-.58-.15-.66-.4-.08-.25,.08-.48,.36-.5,.28-.02,.58,.16,.67,.4m-.76-.68h0c-.28,.02-.57-.17-.64-.43-.08-.26,.08-.49,.36-.51,.27-.02,.56,.17,.64,.43,.08,.26-.08,.48-.35,.51m-.53,.8h0c.08,.25-.09,.47-.37,.49-.29,.02-.58-.18-.65-.44-.07-.26,.1-.47,.37-.49,.28-.01,.57,.18,.65,.44m-.29,.76h0c.29-.02,.59,.16,.66,.41,.08,.24-.1,.46-.4,.48-.3,.02-.59-.16-.66-.41-.07-.25,.11-.46,.39-.48m.34,1.15h0c.3-.02,.6,.14,.68,.38,.07,.23-.12,.45-.43,.47-.31,.03-.61-.14-.67-.38-.06-.24,.13-.45,.43-.47m.59-.77h0c-.08-.24,.09-.46,.38-.49,.29-.03,.6,.14,.69,.38,.09,.24-.08,.46-.38,.49-.3,.04-.6-.13-.68-.37m.77,.63h0c.3-.04,.61,.12,.69,.35,.08,.23-.1,.45-.41,.49-.31,.04-.61-.12-.69-.35-.08-.23,.11-.45,.41-.49m1.43-2.07h0c-.1-.24,.06-.47,.34-.5,.28-.04,.6,.13,.7,.37,.1,.24-.05,.46-.34,.5-.29,.04-.61-.13-.71-.37m.83-1.31h0c-.09-.25,.07-.47,.35-.51,.29-.03,.59,.14,.68,.39,.09,.24-.06,.47-.34,.5-.29,.04-.6-.13-.69-.38m.8,.65h0c.29-.03,.61,.13,.72,.37,.11,.24-.04,.46-.33,.49-.29,.04-.62-.13-.72-.37-.1-.24,.05-.47,.33-.5m.51-2.44h0c.29-.02,.58,.15,.64,.39,.06,.3-.11,.58-.6,.51-.58-.13-.59-.83-.04-.9m-1.31,.12h0c.29-.03,.57,.15,.64,.4,.07,.25-.1,.47-.38,.5-.29,.03-.58-.15-.65-.4-.07-.25,.11-.48,.4-.5m-1.28,.12h0c.28-.03,.56,.16,.63,.41,.07,.25-.09,.48-.37,.51-.28,.03-.57-.15-.64-.41-.07-.26,.1-.49,.38-.51m-1.25,.1h0c.27-.02,.55,.17,.62,.43,.07,.26-.09,.49-.37,.51-.28,.02-.56-.17-.63-.43-.07-.26,.1-.49,.38-.51m-1.22,.07h0c.27-.01,.53,.19,.6,.46,.07,.27-.09,.49-.37,.51-.27,.02-.55-.19-.61-.46-.07-.27,.1-.5,.37-.51M.6,1.58H.6c-.06-.28,.11-.5,.37-.5,.27,0,.52,.22,.59,.5,.06,.27-.1,.5-.37,.5-.27,0-.53-.22-.59-.5m.3,1.29H.9c-.07-.27,.1-.49,.37-.49,.27,0,.55,.2,.62,.47,.07,.26-.09,.49-.36,.5-.28,.01-.55-.2-.62-.47M.23,5.31H.23c-.06-.25,.13-.45,.42-.45,.29,0,.58,.2,.64,.45,.07,.25-.12,.45-.42,.46-.29,0-.59-.2-.64-.45m.26,1.16H.5c-.06-.24,.15-.44,.45-.44,.3,0,.59,.18,.66,.42,.06,.24-.14,.44-.45,.45-.31,0-.6-.19-.65-.43m.23,1.11H.73c-.04-.23,.17-.42,.48-.43,.31,0,.61,.17,.66,.4,.05,.23-.17,.43-.49,.44-.32,0-.61-.18-.66-.41m.84,1.46h0c-.33,0-.62-.17-.65-.39-.03-.22,.2-.41,.52-.42,.32,0,.62,.16,.66,.38,.04,.22-.2,.42-.53,.42m.59-1.51h0c-.05-.23,.15-.44,.46-.46,.31-.03,.62,.13,.68,.36,.06,.23-.15,.44-.46,.47-.32,.03-.62-.13-.67-.36m.9,1.41h0c-.33,.04-.62-.12-.67-.34-.04-.22,.18-.43,.5-.46,.32-.03,.62,.12,.67,.34,.05,.22-.18,.43-.51,.46m.53-1.55h0c-.06-.23,.13-.44,.44-.48,.31-.04,.62,.11,.69,.34,.07,.22-.13,.44-.45,.48-.32,.04-.62-.11-.69-.34m.95,1.38h0c-.32,.03-.62-.11-.67-.33-.05-.22,.16-.43,.48-.47,.32-.04,.63,.11,.68,.33,.05,.22-.17,.43-.49,.47m.47-1.56h0c-.07-.22,.12-.44,.43-.48,.31-.04,.63,.12,.7,.34,.08,.23-.12,.44-.43,.48-.31,.04-.62-.12-.7-.34m.97,1.41h0c-.32,.03-.61-.13-.67-.35-.06-.22,.15-.44,.47-.47,.31-.04,.61,.12,.67,.35,.05,.23-.16,.44-.47,.47m.31-3.39h0c-.3,.04-.62-.12-.72-.36-.1-.23,.06-.46,.35-.49,.29-.04,.61,.12,.72,.36,.11,.23-.05,.45-.35,.49m1.35-.16h0c-.3,.03-.62-.13-.73-.36-.11-.24,.04-.46,.34-.49,.29-.04,.62,.13,.73,.37,.11,.24-.04,.45-.34,.48m1.34-.14h0c-.29,.03-.62-.14-.73-.38-.11-.24,.03-.45,.33-.48,.29-.03,.62,.14,.73,.38,.11,.24-.03,.45-.33,.48m.79-1.25h0c-.29,.03-.62-.15-.73-.39-.11-.24,.03-.46,.32-.49,.29-.03,.61,.15,.73,.39,.11,.24-.03,.46-.32,.49"/>
    </g>
  </g>
</svg>