<?xml version="1.0" encoding="UTF-8"?>
<svg id="_圖層_2" data-name="圖層 2" xmlns="http://www.w3.org/2000/svg" viewBox="0 0 67.98 32.81">
  <defs>
    <style>
      .cls-1 {
        fill: #fff;
        fill-rule: evenodd;
      }
    </style>
  </defs>
  <g id="_圖層_1-2" data-name="圖層 1">
    <g>
      <path class="cls-1" d="M0,15.73c.36-.11,.63-.34,.86-.62,.54-.67,1.19-1.19,2.03-1.44,.33-.1,.63-.3,.92-.49,.81-.54,1.61-1.08,2.42-1.62,.35-.23,.71-.39,1.14-.37,.24,.01,.46-.08,.64-.24,.69-.57,1.43-1.06,2.16-1.58,.22-.15,.44-.24,.71-.21,.62,.06,1.16-.12,1.68-.45,.67-.43,1.43-.58,2.23-.52,.22,.01,.42-.03,.61-.13,.59-.32,1.15-.72,1.78-.92,1.44-.46,2.77-1.16,4.11-1.82,.75-.37,1.56-.57,2.4-.65,.33-.04,.64-.15,.94-.29,.47-.22,.93-.43,1.4-.65,.33-.16,.68-.28,1.04-.35,.23-.04,.45-.12,.66-.22,1.45-.71,3.01-1.07,4.59-1.32,2.3-.36,4.57-.84,6.78-1.59,.24-.08,.49-.15,.74-.22h1.63c.43,.2,.9,.19,1.35,.28,.39,.08,.78,.13,1.18,.19,.28,.04,.53,.14,.77,.3,.45,.31,.92,.58,1.38,.86,.79,.47,1.48,1.06,2.07,1.77,.42,.5,.47,1.07,.18,1.65-.16,.31-.44,.39-.75,.41-.28,.02-.54-.04-.8-.13-.43-.15-.83-.11-1.24,.07-1.3,.57-2.68,.85-4.09,.89-1.12,.04-2.25,.08-3.37,.08-1.01,0-2.02-.06-3.03-.03-1.34,.03-2.67,.2-4,.36-1.83,.21-3.65,.5-5.44,.92-2.08,.49-4.11,1.11-6.11,1.86-.33,.12-.68,.17-1.03,.16-.22,0-.43,.04-.58,.21-.8,.9-1.86,1-2.96,.98-.24,0-.42,.04-.59,.22-.46,.5-1.06,.74-1.68,.94-.36,.12-.71,.26-1.03,.46-.36,.22-.74,.37-1.16,.45-.85,.14-1.55,.58-2.2,1.13-.42,.35-.85,.67-1.37,.87-.17,.07-.35,.12-.54,.1-.15-.01-.26-.08-.31-.22-.06-.15-.02-.29,.1-.4,.12-.11,.25-.17,.41-.21,.26-.06,.51-.13,.75-.24,.41-.19,.65-.51,.78-.93,.03-.09,.05-.19-.02-.28-.09-.1-.19-.04-.29-.01-.84,.24-1.58,.69-2.29,1.18-.62,.43-1.25,.85-2.02,.9-.62,.04-1.2,.18-1.79,.37-.31,.1-.57,.24-.73,.53-.02,.04-.06,.08-.08,.12-.35,.48-.43,.5-.92,.23v-.29Z"/>
      <path class="cls-1" d="M67.98,26.85c-.13,.09-.27,.09-.42,.09-.81-.03-1.63-.03-2.44,0-.23,0-.35-.06-.37-.32-.03-.44-.08-.89-.09-1.33,0-.1,.03-.21-.06-.32-.19,.24-.36,.49-.55,.71-1.1,1.23-2.53,1.63-4.12,1.56-.92-.04-1.77-.3-2.54-.81-1.53-1.03-2.08-2.54-1.67-4.39,.36-1.61,1.4-2.53,2.89-3.05,1.25-.43,2.54-.51,3.84-.52,.59,0,1.18,0,1.78,.01,.22,0,.29-.08,.27-.29-.06-.63-.15-1.25-.57-1.77-.51-.63-1.23-.81-2-.85-1.55-.09-2.97,.33-4.27,1.17-.14,.09-.27,.18-.44,.29-.08-.52-.05-1.02-.08-1.51-.02-.45-.03-.89-.05-1.34,0-.16,.05-.25,.19-.31,2.35-.94,4.75-1.27,7.22-.61,1.76,.47,2.72,1.69,3.07,3.43,.13,.65,.18,1.3,.18,1.97-.01,2.57,0,5.14,.17,7.71,0,.09-.06,.2,.06,.26v.23Zm-3.49-5.78q.02-.46-.43-.46c-.41,0-.81,0-1.22,0-.81,0-1.61,.07-2.37,.36-.64,.24-1.15,.63-1.37,1.32-.28,.86-.02,1.66,.67,2.02,1.28,.68,2.94,.35,3.88-.76,.61-.72,.78-1.58,.83-2.48Z"/>
      <path class="cls-1" d="M48.79,23.17c.51-1.55,1.03-3.09,1.53-4.63,.54-1.64,1.09-3.29,1.62-4.93,.09-.28,.23-.37,.53-.36,1,.02,2,0,3,0,.17,0,.25,0,.17,.21-1.99,5.24-3.96,10.49-5.96,15.73-.4,1.04-.96,1.99-1.85,2.71-.73,.59-1.58,.88-2.52,.9-.23,0-.47-.02-.7,0-.66,.06-1.28-.14-1.92-.25-.24-.04-.33-.18-.31-.43,.07-.67,.13-1.35,.19-2.03,.02-.21,.07-.29,.3-.23,.75,.18,1.51,.27,2.27,.07,1.15-.29,1.86-1.61,1.47-2.69-1.05-2.88-2.11-5.76-3.16-8.63-.61-1.66-1.21-3.32-1.82-4.99-.13-.36-.09-.39,.29-.38,1.05,0,2.1,.01,3.14,0,.29,0,.44,.09,.53,.37,1.01,3.08,2.02,6.16,3.03,9.24,.04,.11,.04,.23,.16,.32Z"/>
      <path class="cls-1" d="M30.35,17.04c-.02-.67-.04-1.3-.07-1.92-.01-.32-.02-.64-.05-.96-.01-.15,.05-.24,.18-.29,2.34-.94,4.73-1.27,7.2-.63,1.76,.45,2.74,1.66,3.1,3.4,.13,.65,.19,1.3,.19,1.97,0,2.56,0,5.12,.16,7.68,.04,.65,.03,.67-.62,.65-.73-.02-1.45,0-2.18,0-.24,0-.34-.07-.36-.33-.05-.55-.08-1.1-.11-1.65-.03-.02-.05,0-.07,.02-.8,1.27-1.96,1.97-3.43,2.19-1.82,.28-3.4-.17-4.64-1.55-1-1.11-1.12-2.44-.74-3.82,.39-1.4,1.34-2.29,2.7-2.77,1.26-.44,2.57-.56,3.89-.58,.61,0,1.22,0,1.83,0,.12,0,.25,.02,.28-.17,.16-.94-.46-2.1-1.33-2.48-.59-.26-1.22-.29-1.85-.27-1.39,.04-2.63,.5-3.77,1.27-.09,.06-.19,.12-.32,.21Zm5.92,3.57c-.53,0-1.17,0-1.8,.13-.67,.13-1.31,.33-1.8,.85-.88,.94-.61,2.43,.55,2.86,1.09,.4,2.15,.26,3.09-.43,1.08-.8,1.34-1.98,1.34-3.25,0-.16-.11-.15-.22-.15-.35,0-.7,0-1.16,0Z"/>
      <path class="cls-1" d="M22.89,17.86c0-2.91,0-5.82,0-8.73,0-.3,.1-.37,.38-.37,1.12,0,2.25,0,3.38-.01,.22,0,.35,.07,.34,.32-.01,.43-.01,.85-.01,1.28,0,4.85,0,9.7,0,14.55,0,.56,0,1.13,0,1.69,0,.37-.03,.39-.41,.39-1.12,0-2.23-.02-3.35,0-.28,0-.34-.1-.34-.35,0-2.92,0-5.84,0-8.76Z"/>
      <path class="cls-1" d="M33.9,27.22c.09-.04,.19-.04,.29-.04-.09,.07-.19,.03-.29,.04Z"/>
      <path class="cls-1" d="M32.89,27.18c.1,.01,.19,.03,.29,.04-.1,0-.2,.03-.29-.04Z"/>
    </g>
  </g>
</svg>