<?xml version="1.0" encoding="UTF-8"?>
<svg id="_圖層_2" data-name="圖層 2" xmlns="http://www.w3.org/2000/svg" viewBox="0 0 98.76 14.37">
  <defs>
    <style>
      .cls-1 {
        fill: #fff;
      }
    </style>
  </defs>
  <g id="_圖層_1-2" data-name="圖層 1">
    <g>
      <path class="cls-1" d="M0,.43c0-.12,.08-.2,.2-.2H2.8c.12,0,.21,.08,.21,.2V6.45L7.63,.41c.1-.14,.18-.18,.35-.18h2.97c.12,0,.18,.14,.08,.27L6.81,5.77l4.61,8.13c.08,.14,.02,.24-.12,.24h-3.01c-.16,0-.22-.04-.31-.18l-3.15-5.85-1.82,2.29v3.54c0,.12-.08,.2-.21,.2H.2c-.12,0-.2-.08-.2-.2V.43Z"/>
      <path class="cls-1" d="M20.81,14.14c-.18,0-.24-.06-.31-.2l-2.39-5.1h-1.86c-.08,0-.12,.04-.12,.12v4.97c0,.12-.08,.2-.2,.2h-2.6c-.12,0-.21-.08-.12-.2V.43c-.08-.12,0-.2,.12-.2h5.54c2.85,0,4.73,1.78,4.73,4.32,0,1.78-.94,3.19-2.48,3.87l2.74,5.48c.06,.12,0,.24-.14,.24h-2.91Zm-.22-9.6c0-1.04-.74-1.72-1.88-1.72h-2.46c-.08,0-.12,.04-.12,.12v3.21c0,.08,.04,.12,.12,.12h2.46c1.15,0,1.88-.68,1.88-1.74"/>
      <path class="cls-1" d="M25.9,10.99c-.31-.96-.39-1.74-.39-3.81s.08-2.85,.39-3.81c.72-2.25,2.64-3.38,5.08-3.38s4.36,1.12,5.08,3.38c.31,.96,.39,1.74,.39,3.81s-.08,2.84-.39,3.81c-.72,2.25-2.64,3.38-5.08,3.38s-4.36-1.13-5.08-3.38m7.27-.82c.16-.49,.22-1.17,.22-2.99s-.06-2.5-.22-2.99c-.31-.96-1.04-1.53-2.19-1.53s-1.88,.57-2.19,1.53c-.16,.49-.23,1.17-.23,2.99s.06,2.5,.23,2.99c.31,.96,1.04,1.53,2.19,1.53s1.88-.57,2.19-1.53"/>
      <path class="cls-1" d="M38.74,.43c0-.12,.08-.2,.2-.2h2.46c.14,0,.27,.06,.35,.2l4.91,8.76h.1V.43c0-.12,.08-.2,.2-.2h2.31c.12,0,.2,.08,.2,.2V13.94c0,.12-.08,.2-.2,.2h-2.44c-.16,0-.27-.06-.35-.2l-4.93-8.74h-.1V13.94c0,.12-.08,.2-.2,.2h-2.31c-.12,0-.2-.08-.2-.2V.43Z"/>
      <path class="cls-1" d="M52.16,10.99c-.31-.96-.39-1.74-.39-3.81s.08-2.85,.39-3.81c.72-2.25,2.64-3.38,5.08-3.38s4.36,1.12,5.07,3.38c.31,.96,.39,1.74,.39,3.81s-.08,2.84-.39,3.81c-.72,2.25-2.64,3.38-5.07,3.38s-4.36-1.13-5.08-3.38m7.27-.82c.16-.49,.23-1.17,.23-2.99s-.06-2.5-.23-2.99c-.31-.96-1.04-1.53-2.19-1.53s-1.88,.57-2.19,1.53c-.16,.49-.23,1.17-.23,2.99s.06,2.5,.23,2.99c.31,.96,1.04,1.53,2.19,1.53s1.88-.57,2.19-1.53"/>
      <path class="cls-1" d="M98.61,14.14c.14,0,.18-.12,.12-.25l-4.17-6.94,3.89-6.49c.06-.12,.02-.25-.12-.25h-2.84c-.16,0-.25,.06-.33,.21l-2.21,3.77h-.06l-2.21-3.77c-.08-.14-.17-.21-.33-.21h-2.85c-.14,0-.18,.12-.12,.25l3.87,6.49-4.16,6.94c-.08,.12-.02,.25,.12,.25h2.82c.19,0,.27-.06,.35-.2l2.5-4.24h.06l2.48,4.24c.08,.14,.16,.2,.35,.2h2.85Zm-22.22-.2c0,.12,.08,.2,.2,.2h8.92c.12,0,.21-.08,.21-.2v-2.19c0-.12-.08-.2-.21-.2h-6c-.08,0-.12-.04-.12-.12v-2.89c0-.08,.04-.12,.12-.12h4.99c.12,0,.2-.08,.2-.2v-2.17c0-.12-.08-.2-.2-.2h-4.99c-.08,0-.12-.04-.12-.12V2.95c0-.08,.04-.12,.12-.12h6c.12,0,.21-.08,.21-.2V.43c0-.12-.08-.21-.21-.21h-8.92c-.12,0-.2,.08-.2,.21V13.94Zm-5.75,.2c.12,0,.2-.08,.2-.2V3.03c0-.08,.04-.12,.12-.12h3.52c.12,0,.2-.08,.2-.21V.43c0-.12-.08-.21-.2-.21h-10.3c-.12,0-.2,.08-.2,.21V2.7c0,.12,.08,.21,.2,.21h3.52c.08,0,.12,.04,.12,.12V13.94c0,.12,.08,.2,.21,.2h2.6Z"/>
    </g>
  </g>
</svg>