<?xml version="1.0" encoding="UTF-8"?>
<svg id="_圖層_2" data-name="圖層 2" xmlns="http://www.w3.org/2000/svg" viewBox="0 0 66 13.19">
  <defs>
    <style>
      .cls-1 {
        fill: #fff;
      }
    </style>
  </defs>
  <g id="_圖層_1-2" data-name="圖層 1">
    <g>
      <g>
        <polygon class="cls-1" points="3.34 11.95 3.34 13.19 3.03 13.19 3.03 12.08 3.34 11.95"/>
        <polygon class="cls-1" points="2.33 12.4 2.33 13.19 2.04 13.19 2.04 12.54 2.33 12.4"/>
        <polygon class="cls-1" points="1.34 12.84 1.34 13.19 1.03 13.19 1.03 12.97 1.34 12.84"/>
        <polygon class="cls-1" points="11.08 .07 11.39 .07 11.39 2.01 11.08 2.13 11.08 .07"/>
        <polygon class="cls-1" points="10.07 .07 10.38 .07 10.38 2.42 10.07 2.56 10.07 .07"/>
        <polygon class="cls-1" points="1.03 .07 1.34 .07 1.34 2.86 1.34 7.85 .68 8.12 .66 3.12 1.03 2.98 1.03 .07"/>
        <polygon class="cls-1" points="2.04 .07 2.33 .07 2.33 2.46 2.33 7.41 1.65 7.71 1.65 2.74 2.04 2.58 2.04 .07"/>
        <polygon class="cls-1" points="3.03 .07 3.34 .07 3.34 2.07 3.34 7 2.64 7.29 2.64 2.34 3.03 2.19 3.03 .07"/>
        <polygon class="cls-1" points="9.08 .07 9.37 .07 9.37 2.84 9.08 2.98 9.08 .07"/>
        <polygon class="cls-1" points="4.4 11.59 5.1 11.87 5.1 13.19 5.41 13.19 5.41 12 6.11 12.28 6.11 13.19 6.42 13.19 6.42 12.4 7.12 12.68 7.12 13.19 7.43 13.19 7.43 12.8 8.3 13.17 9.08 12.9 9.08 13.19 9.37 13.19 9.37 12.78 10.07 12.5 10.07 13.19 10.38 13.19 10.38 12.38 11.08 12.1 11.08 13.19 11.39 13.19 11.39 11.98 12.08 11.73 12.08 13.19 12.39 13.19 12.39 .07 12.08 .07 12.08 6.74 8.46 8.24 8.46 .07 8.15 .07 8.15 3.16 7.74 3 7.74 8.01 7.43 7.89 7.43 7.87 7.43 2.88 7.43 .07 7.12 .07 7.12 2.76 6.73 2.6 6.73 7.59 6.42 7.45 6.42 7.45 6.42 2.48 6.42 .07 6.11 .07 6.11 2.36 5.72 2.21 5.72 7.15 5.41 7.04 5.41 .07 5.1 .07 5.1 1.97 4.71 1.81 4.71 6.74 4.4 6.62 4.4 1.69 4.4 .07 4.09 .07 4.09 1.77 3.65 1.95 3.65 6.86 4.09 6.68 4.09 13.19 4.4 13.19 4.4 11.59"/>
        <rect class="cls-1" y=".07" width=".31" height="13.12"/>
      </g>
      <g>
        <path class="cls-1" d="M19.74,.17h10.67V2.33h-9.95c-4.3,.91-4.94,7.38-.22,8.54h7.02v-3.07h-4.51v-2.07h7.52v1.33h0v5.89h-10.17c-4.15,.17-6.37-1.99-6.52-6.39-.07-4.4,2.29-6.14,5.73-6.39h.43Z"/>
        <path class="cls-1" d="M36.5,5.64h11.96v2.07h-11.96v5.4h-3.44V4.48h0c.14-2.99,1.57-4.48,4.87-4.48h10.53V2.16h-10.17c-1.14,.33-1.79,1.16-1.79,2.49h0v.99Z"/>
        <path class="cls-1" d="M56.91,.17h9.02V2.33h-8.74c-3.15,.33-4.08,7.38,.21,8.54h8.52l.07,2.07h-8.74c-4.15,.17-6.37-1.99-6.52-6.39-.14-4.4,2.29-6.14,5.66-6.39h.5Z"/>
      </g>
    </g>
  </g>
</svg>