<?xml version="1.0" encoding="UTF-8"?>
<svg id="_圖層_2" data-name="圖層 2" xmlns="http://www.w3.org/2000/svg" viewBox="0 0 31.64 27.68">
  <defs>
    <style>
      .cls-1 {
        fill: #30697a;
        fill-rule: evenodd;
      }
    </style>
  </defs>
  <g id="_圖層_1-2" data-name="圖層 1">
    <g id="Page-1">
      <g id="Icon-Set-Filled">
        <path id="camera" class="cls-1" d="M27.68,3.95h-2.97l-.99-1.98c-.58-1.15-.89-1.98-1.98-1.98H9.89c-1.09,0-1.45,.94-1.98,1.98l-.99,1.98H3.95C1.77,3.95,0,5.73,0,7.91v15.82c0,2.18,1.77,3.95,3.95,3.95H27.68c2.18,0,3.95-1.77,3.95-3.95V7.91c0-2.18-1.77-3.95-3.95-3.95ZM15.82,23.73c-4.37,0-7.91-3.54-7.91-7.91s3.54-7.91,7.91-7.91,7.91,3.54,7.91,7.91-3.54,7.91-7.91,7.91Zm0-13.84c-3.28,0-5.93,2.66-5.93,5.93s2.66,5.93,5.93,5.93,5.93-2.66,5.93-5.93-2.66-5.93-5.93-5.93h0Z"/>
      </g>
    </g>
  </g>
</svg>