<?xml version="1.0" encoding="UTF-8"?>
<svg id="_圖層_2" data-name="圖層 2" xmlns="http://www.w3.org/2000/svg" viewBox="0 0 1493.43 373.26">
  <defs>
    <style>
      .cls-1, .cls-2, .cls-3 {
        fill: #fff;
      }

      .cls-4, .cls-5, .cls-6, .cls-3 {
        letter-spacing: .1em;
      }

      .cls-4, .cls-7, .cls-8, .cls-9 {
        fill: #040000;
      }

      .cls-4, .cls-8, .cls-2, .cls-10, .cls-3, .cls-9 {
        font-family: NotoSerifTC-Medium-90ms-RKSJ-H, 'Noto Serif TC';
      }

      .cls-4, .cls-8, .cls-6, .cls-3 {
        font-size: 18px;
      }

      .cls-11 {
        stroke-dasharray: 0 0 4.86 4.86;
      }

      .cls-11, .cls-12, .cls-13, .cls-14, .cls-15 {
        fill: none;
        stroke: #306677;
        stroke-miterlimit: 10;
      }

      .cls-11, .cls-12, .cls-14, .cls-15 {
        stroke-width: .75px;
      }

      .cls-12 {
        stroke-dasharray: 0 0 4.73 4.73;
      }

      .cls-16, .cls-10, .cls-17 {
        letter-spacing: .1em;
      }

      .cls-18 {
        fill: #306677;
      }

      .cls-13 {
        stroke-dasharray: 0 0 4.98 4.98;
      }

      .cls-10 {
        fill: #4d4d4d;
      }

      .cls-10, .cls-17, .cls-9 {
        font-size: 14px;
      }

      .cls-15 {
        stroke-dasharray: 0 0 5 5;
      }

      .cls-19 {
        fill: #fbfbfb;
      }

      .cls-20 {
        fill: #060302;
      }

      .cls-21 {
        letter-spacing: -.15em;
      }

      .cls-22 {
        letter-spacing: -.15em;
      }

      .cls-23 {
        fill: #f2f2f2;
      }
    </style>
  </defs>
  <g id="_圖層_2-2" data-name="圖層 2">
    <g>
      <rect class="cls-13" x="1236.93" y=".5" width="256" height="334" rx="14.15" ry="14.15"/>
      <rect class="cls-23" x="744.62" y=".5" width="392.5" height="334" rx="14.15" ry="14.15"/>
      <text class="cls-4" transform="translate(1263.91 227.58)"><tspan x="0" y="0">EMS智慧電能管理系統</tspan></text>
      
      <text class="cls-4" transform="translate(851.91 37.58)"><tspan x="0" y="0">住戶未來可自行設置</tspan></text>
      <text class="cls-10" transform="translate(1297.45 255.58)"><tspan x="0" y="0">(位於社區管理中心)</tspan></text>
      <rect class="cls-18" x="790.12" y="108" width="130" height="50" rx="6.29" ry="6.29"/>
      <rect class="cls-18" x="790.12" y="177" width="130" height="50" rx="6.29" ry="6.29"/>
      <rect class="cls-18" x="790.12" y="249" width="130" height="50" rx="6.29" ry="6.29"/>
      <text class="cls-3" transform="translate(826.25 138.58)"><tspan x="0" y="0">充電樁</tspan></text>
      <text class="cls-4" transform="translate(818.25 88.58)"><tspan x="0" y="0">充電設備</tspan></text>
      <text class="cls-2" transform="translate(836.22 200.22)"><tspan class="cls-6"><tspan x="0" y="0">線材</tspan></tspan><tspan class="cls-17"><tspan x="-33.18" y="18">(連接至配線盤)</tspan></tspan></text>
      <text class="cls-2" transform="translate(826.32 271.58)"><tspan class="cls-6"><tspan x="0" y="0">網路線</tspan></tspan><tspan class="cls-17"><tspan x="-33.15" y="18">(連接至EMS系統)</tspan></tspan></text>
      <g>
        <line class="cls-14" x1="920.12" y1="202" x2="922.62" y2="202"/>
        <line class="cls-12" x1="927.35" y1="202" x2="981.75" y2="202"/>
        <line class="cls-14" x1="984.12" y1="202" x2="986.62" y2="202"/>
      </g>
      <g>
        <line class="cls-14" x1="920.12" y1="133" x2="922.62" y2="133"/>
        <line class="cls-11" x1="927.48" y1="133" x2="954.19" y2="133"/>
        <polyline class="cls-14" points="956.62 133 959.12 133 959.12 135.5"/>
        <line class="cls-15" x1="959.12" y1="140.5" x2="959.12" y2="268"/>
        <polyline class="cls-14" points="959.12 270.5 959.12 273 956.62 273"/>
        <line class="cls-11" x1="951.76" y1="273" x2="925.05" y2="273"/>
        <line class="cls-14" x1="922.62" y1="273" x2="920.12" y2="273"/>
      </g>
      <circle class="cls-23" cx="497.62" cy="180.5" r="135.5"/>
      <text class="cls-4" transform="translate(429.14 237.58)"><tspan x="0" y="0">線架槽至各車位</tspan></text>
      <text class="cls-4" transform="translate(0 139.58)"><tspan x="0" y="0">B1設置 獨立電錶及配電盤</tspan></text>
      <text class="cls-8" transform="translate(11.36 314.58)"><tspan class="cls-5" x="0" y="0">配線至B2</tspan><tspan class="cls-21" x="85.21" y="0">F、</tspan><tspan class="cls-5" x="109.22" y="0">B3F配電盤</tspan></text>
      <g>
        <path class="cls-7" d="M1087.11,177.14c-1.37-1.76-2.76-3.5-4.17-5.23-2.75-3.39-6.3-5.13-10.7-5.09-2.23,.02-4.46,.01-6.69,0-.54,0-1.07,.03-1.54,.28-.51,.28-.68,.13-.94-.36-1.89-3.61-4.86-5.54-8.97-5.55-11.18-.02-22.36,0-33.54,0-.47,0-.94-.02-1.41,.05-5.56,.82-8.67,5.53-8.65,10.11,.08,14.82,.03,29.64,.03,44.47,0,5.1,3,8.86,8,10,.39,.09,.47,.24,.46,.58-.01,.82,0,1.64,0,2.47,.02,2.34,1.84,4.18,4.17,4.19,3.79,.01,7.57,.01,11.36,0,2.34,0,4.17-1.85,4.19-4.18,0-.73,.04-1.47-.01-2.2-.04-.55,.12-.69,.67-.68,1.91,.04,3.82,.04,5.72,0,.55-.01,.68,.13,.68,.68-.02,2.02-.1,4.04,.32,6.05,1.97,9.35,7.55,15.33,16.72,17.97,.99,.29,2.02,.46,3.03,.68h4.76c.69-.31,1.45-.25,2.17-.4,10.65-2.25,18.07-11.38,18.08-22.25,0-13.59,0-27.18,0-40.77,0-4.04-1.27-7.64-3.74-10.82Zm-23.03-5.75c0-1.04,.47-1.71,1.36-1.71,2.78,0,5.57-.19,8.35,.1,2.79,.3,5.04,1.62,6.79,3.78,1.46,1.8,2.9,3.61,4.33,5.43,2.14,2.73,3.09,5.86,3.11,9.3,.02,3.67,0,7.34,0,11,0,3.96-.02,7.92,.02,11.88,0,.63-.17,.78-.77,.76-1.52-.05-3.05,0-4.58-.02-1.93-.01-3.11-1.19-3.12-3.13,0-4.46-.01-8.92,0-13.38,0-.7-.2-1.22-.7-1.71-2.63-2.6-5.25-5.21-7.84-7.84-.52-.52-1.06-.75-1.79-.72-1.11,.05-2.23,.02-3.34,.01-1.31,0-1.83-.51-1.84-1.79,0-3.99,0-7.98,0-11.97Zm0,44.69c0-9.1,0-18.19,0-27.29v-1.01c1.52,.33,2.93,.15,4.33,.17,.51,0,.86,.16,1.21,.52,2.2,2.24,4.42,4.46,6.66,6.66,.37,.36,.49,.72,.49,1.23-.02,4.22-.01,8.45,0,12.67,0,2.44,1.33,4.43,3.6,5.31,.5,.19,.64,.42,.64,.93-.02,4.49,.01,8.98-.02,13.47-.04,6.88-5.22,12.34-12.09,12.76-6.44,.4-12.38-4.62-13.13-11.07-.16-1.32-.09-2.64-.14-3.95-.02-.42,.09-.58,.56-.67,4.67-.95,7.9-4.93,7.9-9.72Zm-28.18,12.57c-.03,.99-.55,1.57-1.51,1.57-3.69,.02-7.39,.02-11.08,0-.92,0-1.46-.58-1.48-1.51-.02-.87-.28-1.96,.13-2.56,.35-.51,1.53-.13,2.34-.15,1.52-.02,3.05,0,4.57,0,2.14,0,4.28,.02,6.42-.01,.5,0,.65,.14,.62,.63-.04,.67,0,1.35-.01,2.02Zm-15.12-5.46c-4.36,0-7.41-3.05-7.42-7.4-.01-7.43,0-14.85,0-22.28s0-14.79,0-22.19c0-3.45,2.03-6.14,5.24-7.04,.68-.19,1.38-.27,2.08-.27,11.06,0,22.13,0,33.19,0,4.31,0,7.37,3.05,7.38,7.35,.01,14.82,.01,29.64,0,44.47,0,4.3-3.07,7.35-7.37,7.36-11.03,.01-22.07,0-33.1,0Zm67.22,6.14c-.22,9.62-7.5,17.72-16.98,19.03-10.53,1.46-20.34-5.75-22.13-16.24-.32-1.86-.3-3.74-.32-5.61,0-.47,.19-.51,.57-.51,.97,.02,1.94,.05,2.9,0,.6-.03,.79,.12,.78,.75-.04,1.84-.06,3.68,.33,5.51,1.31,6.08,6.7,11.09,12.84,11.9,8.42,1.1,15.66-3.97,17.51-12.26,.18-.83,.3-1.67,.29-2.53,0-2.23,0-4.46,0-6.69,0-2.41,.02-4.81-.01-7.22,0-.53,.07-.78,.7-.74,.96,.06,1.94,.04,2.9,0,.47-.02,.65,.08,.65,.61-.03,4.67,.07,9.33-.04,14Z"/>
        <path class="cls-7" d="M1018.99,202.31c0-9.21,6.47-16.87,15.29-18.36,9.92-1.67,19.38,5.03,21.1,15.07,.84,4.88-.21,9.42-3.03,13.52-.58,.84-1.4,1.05-2.1,.57-.71-.48-.81-1.29-.26-2.16,.06-.1,.12-.2,.18-.3,5.78-8.82,1.49-20.52-8.62-23.46-8.86-2.58-18.24,3.42-19.55,12.51-1.22,8.48,4.38,16.22,12.86,17.65,3.65,.62,7.1-.1,10.31-1.95,.23-.13,.44-.29,.67-.42,.81-.45,1.64-.26,2.06,.46,.4,.7,.2,1.47-.56,1.97-1.62,1.07-3.38,1.84-5.25,2.36-10.38,2.84-21.18-4.1-22.87-14.71-.16-.98-.3-1.97-.21-2.74Z"/>
        <path class="cls-7" d="M1021.81,174.62c0,1.58,0,3.17,0,4.75,0,.97-.55,1.54-1.41,1.54-.86,0-1.4-.58-1.4-1.54,0-3.2,0-6.4,0-9.59,0-.97,.54-1.54,1.41-1.54,.86,0,1.4,.57,1.4,1.54,.01,1.61,0,3.23,0,4.84Z"/>
        <path class="cls-7" d="M1052.81,174.49c0-1.56,0-3.11,0-4.67,0-1.02,.55-1.61,1.45-1.59,.85,.02,1.36,.6,1.36,1.58,0,3.17,0,6.34,0,9.51,0,1.02-.56,1.61-1.45,1.59-.85-.02-1.36-.6-1.36-1.59,0-1.61,0-3.23,0-4.84Z"/>
        <path class="cls-20" d="M1069.71,176.65c.02,.8-.54,1.41-1.33,1.45-.83,.04-1.47-.55-1.49-1.37-.02-.84,.58-1.45,1.41-1.44,.8,0,1.38,.58,1.4,1.37Z"/>
        <path class="cls-20" d="M1075.35,176.66c.01,.8-.55,1.41-1.33,1.44-.83,.04-1.47-.55-1.48-1.38-.02-.84,.59-1.44,1.42-1.44,.79,0,1.38,.58,1.4,1.38Z"/>
        <path class="cls-7" d="M1047.4,200.61c-1.96-.83-3.93-1.64-5.89-2.46-1.21-.51-1.19-.51-.95-1.79,.35-1.84,.67-3.68,.96-5.34,.02-.8-.24-1.26-.81-1.52-.64-.29-1.18-.12-1.68,.33-4.12,3.66-8.24,7.32-12.36,10.99-1.08,.96-.86,2.09,.49,2.65,2.15,.91,4.3,1.81,6.46,2.69,.46,.19,.67,.36,.54,.95-.4,1.85-.71,3.73-1.04,5.6-.13,.73-.1,1.43,.64,1.84,.72,.4,1.32,.17,1.9-.36,4.05-3.61,8.11-7.2,12.16-10.81,1.18-1.05,1-2.15-.43-2.76Zm-10.78,8.9c.24-1.27,.44-2.28,.63-3.29,.21-1.12-.04-1.62-1.09-2.07-1.98-.84-3.97-1.67-6.06-2.55,2.6-2.31,5.11-4.54,7.73-6.87,.01,1.14-.28,2.08-.45,3.03-.23,1.27-.01,1.73,1.2,2.24,1.93,.81,3.87,1.62,5.92,2.49-2.6,2.31-5.16,4.59-7.89,7.01Z"/>
        <path class="cls-7" d="M1048.14,168.24c-3.58,0-7.16,0-10.74,0s-7.4,0-11.09,0c-1.18,0-1.67,.47-1.67,1.63,0,3.14,0,6.28,0,9.42,0,1.15,.49,1.63,1.67,1.63,7.34,0,14.67,0,22.01,0,1.21,0,1.67-.48,1.68-1.72,0-3.05,0-6.1,0-9.16,0-1.39-.43-1.81-1.85-1.81Zm-.96,9.25c0,.5-.14,.63-.63,.63-6.16-.02-12.33-.02-18.49,0-.5,0-.64-.13-.63-.63,.03-1.91,.04-3.82,0-5.72-.01-.58,.15-.72,.72-.72,3.08,.03,6.16,.01,9.24,.01s6.05,.02,9.07-.01c.57,0,.73,.14,.72,.72-.04,1.91-.03,3.82,0,5.72Z"/>
      </g>
      <path class="cls-18" d="M1207.07,173.19h-.57c-13.83,0-27.66,0-41.49,0-.19,0-.38,0-.57,0-.46,.04-.76,.36-.76,.81,0,.45,.3,.8,.74,.84,.17,.02,.35,0,.52,0,13.86,0,27.73,0,41.59,0h.46c-.6,.64-1.19,1.34-1.83,1.97-2.61,2.56-5.24,5.11-7.87,7.66-.28,.27-.55,.54-.42,.98,.21,.69,.95,.85,1.51,.31,1.56-1.51,3.12-3.03,4.68-4.55,2.17-2.11,4.33-4.21,6.5-6.32,.73-.71,.74-1.06,.02-1.75-3.71-3.61-7.43-7.22-11.14-10.83-.29-.29-.59-.54-1.04-.32-.58,.27-.73,.89-.3,1.35,.35,.38,.73,.73,1.11,1.09,2.88,2.8,5.77,5.61,8.66,8.41,.08,.08,.2,.13,.3,.2-.03,.05-.06,.09-.09,.14Z"/>
      <path class="cls-18" d="M707.07,177.19h-.57c-13.83,0-27.66,0-41.49,0-.19,0-.38,0-.57,0-.46,.04-.76,.36-.76,.81,0,.45,.3,.8,.74,.84,.17,.02,.35,0,.52,0,13.86,0,27.73,0,41.59,0h.46c-.6,.64-1.19,1.34-1.83,1.97-2.61,2.56-5.24,5.11-7.87,7.66-.28,.27-.55,.54-.42,.98,.21,.69,.95,.85,1.51,.31,1.56-1.51,3.12-3.03,4.68-4.55,2.17-2.11,4.33-4.21,6.5-6.32,.73-.71,.74-1.06,.02-1.75-3.71-3.61-7.43-7.22-11.14-10.83-.29-.29-.59-.54-1.04-.32-.58,.27-.73,.89-.3,1.35,.35,.38,.73,.73,1.11,1.09,2.88,2.8,5.77,5.61,8.66,8.41,.08,.08,.2,.13,.3,.2-.03,.05-.06,.09-.09,.14Z"/>
      <path class="cls-18" d="M319.07,176.19h-.57c-13.83,0-27.66,0-41.49,0-.19,0-.38,0-.57,0-.46,.04-.76,.36-.76,.81,0,.45,.3,.8,.74,.84,.17,.02,.35,0,.52,0,13.86,0,27.73,0,41.59,0h.46c-.6,.64-1.19,1.34-1.83,1.97-2.61,2.56-5.24,5.11-7.87,7.66-.28,.27-.55,.54-.42,.98,.21,.69,.95,.85,1.51,.31,1.56-1.51,3.12-3.03,4.68-4.55,2.17-2.11,4.33-4.21,6.5-6.32,.73-.71,.74-1.06,.02-1.75-3.71-3.61-7.43-7.22-11.14-10.83-.29-.29-.59-.54-1.04-.32-.58,.27-.73,.89-.3,1.35,.35,.38,.73,.73,1.11,1.09,2.88,2.8,5.77,5.61,8.66,8.41,.08,.08,.2,.13,.3,.2-.03,.05-.06,.09-.09,.14Z"/>
      <path class="cls-7" d="M1322.12,147.38c.69-1.17,1.38-2.34,2.07-3.51,.65-1.1,1.16-1.26,2.25-.62,.37,.22,.59,.25,.93-.05,.93-.82,1.99-1.43,3.16-1.84,.39-.14,.49-.33,.5-.72,.02-1.28,.33-1.61,1.63-1.65,.49-.01,.52-.23,.52-.61-.01-2.07,0-4.14,0-6.2,0-6.96-.02-13.92,.02-20.87,.02-4.07,3.5-7.47,7.57-7.51,1.2-.01,2.41-.06,3.6,.02,.77,.05,.99-.24,1.05-.94,.29-3.23,1.45-6.15,3.25-8.83,.17-.25,.36-.51,.59-.7,.49-.41,1.04-.4,1.53,0,.48,.38,.66,.89,.38,1.49-.11,.22-.25,.44-.39,.64-6.9,10.11-1.15,24.04,10.87,26.22,4.45,.81,8.64-.03,12.46-2.53,.19-.12,.36-.26,.55-.38,.69-.42,1.45-.3,1.85,.29,.42,.63,.28,1.3-.42,1.81-1.96,1.42-4.12,2.42-6.46,3.02-1,.26-2,.48-3.04,.52-.03,0-.06,0-.08,0-1.04,.54-.22,1.48-.45,2.2-.16,.51,.25,.5,.6,.48,.06,0,.11,0,.17,0,2.16,0,2.36,.18,2.32,2.34-.01,.62,.2,.84,.76,1.03,1.97,.67,3.75,1.7,5.29,3.12,.35,.32,.58,.34,.99,.1,2.05-1.19,2.26-1.13,3.43,.89,.78,1.35,1.56,2.7,2.33,4.05,.6,1.05,.49,1.7-.59,2.18-1.09,.49-1.29,1.14-1.06,2.25,.37,1.82,.27,3.67-.13,5.48-.09,.42,.02,.64,.4,.86,2.17,1.29,2.17,1.31,.88,3.52-.75,1.3-1.51,2.6-2.27,3.9-.63,1.08-1.19,1.23-2.26,.62q-1.22-.69-2.34,.21c-1.43,1.14-3,2.02-4.73,2.59-.5,.16-.76,.36-.68,.92,.04,.27,.01,.56,0,.84-.03,1.16-.49,1.61-1.65,1.61-1.84,0-3.69,0-5.53,0-1.17,0-1.61-.46-1.62-1.62,0-1.45,0-1.46-1.38-1.99-1.73-.67-3.3-1.62-4.67-2.87-.34-.31-.56-.37-.99-.12-2.11,1.22-2.23,1.17-3.46-.95-.77-1.33-1.53-2.65-2.29-3.98-.59-1.02-.47-1.71,.57-2.2,1.04-.49,1.32-1.05,1.04-2.22-.43-1.8-.26-3.67,.13-5.48,.1-.46,.01-.66-.4-.9-2.07-1.19-2.1-1.36-.92-3.41,.79-1.37,1.58-2.75,2.39-4.12,.54-.92,1.23-1.17,2.09-.55,1,.73,1.68,.63,2.59-.22,1.33-1.24,2.98-2.04,4.73-2.57,.43-.13,.69-.32,.58-.81,0-.03,0-.06,0-.08-.13-2.2,.33-2.56,2.38-2.43,.58,.04,.75-.14,.75-.73-.02-1.79,0-1.77-1.81-2.12-8.19-1.58-13.44-6.4-15.8-14.39-.3-1.02-.41-2.07-.55-3.12-.03-.26-.04-.48-.42-.46-1.64,.08-3.3-.15-4.93,.15-2.39,.44-4.24,2.47-4.25,4.91-.04,9.03-.02,18.05-.03,27.08,0,.45,.13,.55,.57,.56,1.22,.02,1.58,.4,1.59,1.62,0,.43,.12,.62,.54,.78,1.13,.41,2.18,1,3.08,1.8,.33,.29,.55,.29,.93,.07,1.1-.65,1.62-.49,2.25,.59,.6,1.03,1.2,2.07,1.79,3.11,.54,.97,.42,1.56-.52,2.08-.48,.26-.6,.56-.5,1.06,.23,1.14,.2,2.28,0,3.41-.08,.43,0,.7,.43,.94,1.04,.59,1.17,1.17,.58,2.2-.59,1.04-1.19,2.08-1.8,3.11-.58,.98-1.16,1.14-2.14,.57-.39-.22-.65-.26-1.02,.06-.91,.79-1.95,1.4-3.09,1.78-.42,.14-.51,.37-.51,.79,0,1.2-.48,1.66-1.69,1.66-1.2,0-2.4,.02-3.6,0-1.04-.02-1.56-.51-1.52-1.56,.02-.54-.16-.77-.65-.94-1.09-.37-2.07-.97-2.95-1.71-.36-.3-.61-.33-1.02-.1-1.04,.6-1.58,.42-2.2-.59-.7-1.15-1.25-2.39-2.1-3.45v-1.01c.14-.29,.2-.64,.52-.82,.54-.31,.63-.77,.52-1.36-.16-.82-.16-1.67-.02-2.5,.1-.64,.06-1.15-.53-1.52-.25-.15-.33-.44-.49-.67,0-.34,0-.67,0-1.01Z"/>
      <path class="cls-7" d="M1396.91,124.61c0,4.53,.01,9.05-.01,13.58,0,.59,.09,.83,.76,.8,.96-.04,1.44,.47,1.4,1.45-.02,.59,.19,.82,.72,1,1.08,.38,2.07,.97,2.93,1.73,.32,.28,.55,.3,.93,.07,1.09-.65,1.63-.49,2.26,.59,.6,1.03,1.2,2.07,1.78,3.12,.54,.96,.42,1.56-.53,2.08-.48,.27-.6,.57-.5,1.07,.23,1.11,.22,2.22,0,3.33-.1,.5,.04,.8,.51,1.06,.91,.5,1.06,1.13,.56,2.02-.63,1.12-1.27,2.23-1.92,3.33-.52,.87-1.15,1.05-2.04,.51-.46-.28-.75-.25-1.16,.09-.87,.74-1.86,1.33-2.95,1.69-.42,.14-.6,.34-.59,.82,.02,1.2-.47,1.65-1.68,1.66-1.15,0-2.29,0-3.44,0-1.22,0-1.71-.46-1.69-1.65,0-.47-.15-.68-.58-.83-1.12-.38-2.12-.99-3.02-1.74-.31-.26-.54-.36-.94-.12-1.13,.64-1.66,.47-2.31-.65-.59-1.01-1.18-2.02-1.75-3.04-.54-.96-.42-1.58,.52-2.08,.48-.26,.61-.56,.51-1.05-.24-1.16-.2-2.33,.01-3.49,.08-.43-.06-.64-.42-.85-1.05-.62-1.19-1.16-.6-2.19,.59-1.04,1.19-2.08,1.8-3.11,.6-1.02,1.13-1.2,2.12-.6,.46,.28,.74,.25,1.14-.11,.84-.74,1.81-1.31,2.87-1.67,.52-.18,.66-.43,.65-.96-.01-1.03,.45-1.5,1.47-1.48,.56,0,.69-.16,.68-.7-.02-3.3-.01-6.59-.01-9.89,0-5.48,0-10.95,0-16.43,0-3.42-2.23-5.66-5.65-5.67-1.31,0-2.63,.02-3.94-.01-.51-.01-.62,.12-.67,.63-.34,3.42-1.49,6.55-3.47,9.36-.43,.61-.95,.96-1.7,.62-.8-.36-.98-1.21-.4-2.04,1.42-2.04,2.33-4.28,2.84-6.71,1.8-8.69-4.19-17.83-12.94-19.62-4.85-.99-9.35-.17-13.45,2.67-.52,.36-1.04,.52-1.63,.18-.49-.29-.63-.74-.57-1.29,.05-.47,.37-.73,.72-.97,3.88-2.67,8.15-3.84,12.87-3.48,8.21,.63,15.44,6.68,17.34,15.03,.19,.84,.34,1.7,.4,2.55,.03,.51,.22,.57,.65,.57,1.42-.02,2.85-.01,4.27,0,4.44,.02,7.82,3.37,7.85,7.83,.03,4.33,0,8.66,0,12.99Z"/>
      <path class="cls-7" d="M1362.06,108.36c-1.83,0-3.53-.01-5.24,0-.69,0-1.28-.11-1.57-.83-.26-.65,.08-1.12,.49-1.57,4.19-4.6,8.39-9.21,12.57-13.82,.52-.58,1.08-.89,1.83-.49,.64,.35,.78,.97,.42,1.91-.95,2.49-1.88,4.99-2.86,7.47-.26,.66-.08,.73,.52,.72,1.51-.03,3.02,0,4.53-.01,.63,0,1.2,.12,1.46,.75,.25,.6,.04,1.11-.4,1.6-4.24,4.64-8.46,9.29-12.69,13.95-.51,.56-1.07,.81-1.77,.42-.61-.33-.76-1-.45-1.83,1.04-2.72,2.08-5.44,3.16-8.26Z"/>
      <g>
        <path class="cls-1" d="M1376.49,136.43c-.65,.49-1.39,.67-2.03-.02-1.89-2.01-4.17-3.3-6.84-3.95-.7-.17-1.01-.64-1.05-1.33-.01-.28-.03-.56,0-.84,.07-.54-.17-.67-.66-.64-.64,.04-1.28,0-1.93,0-1.11,0-1.13,0-1.1,1.09,.02,.79-.11,1.48-.99,1.69-2.7,.65-5,1.98-6.91,3.99-.43,.46-.96,.49-1.54,.24-.48-.2-.95-.83-1.36-.62-.42,.21-.6,.89-.89,1.37-.13,.22-.25,.43-.38,.65-.59,1.01-.6,1.04,.42,1.59,.72,.4,1.13,.91,.89,1.76-.75,2.61-.75,5.22,0,7.83,.16,.58,.05,1.09-.46,1.5-.44,.35-1.29,.4-1.29,.99,0,.51,.52,1.01,.81,1.52,.12,.22,.29,.42,.37,.65,.3,.87,.75,.89,1.44,.37,.62-.47,1.35-.68,1.96-.03,1.94,2.04,4.26,3.37,6.99,4.03,.53,.13,.84,.5,.91,1.07,.07,.54-.27,1.31,.16,1.58,.42,.27,1.14,.08,1.72,.09,.2,0,.39,0,.59,0,1.22,0,1.23,0,1.23-1.2,0-.83,.3-1.39,1.15-1.59,2.64-.63,4.89-1.95,6.76-3.93,.46-.49,1.02-.53,1.6-.24,.3,.15,.6,.3,.86,.5,.38,.29,.55,.15,.74-.22,.28-.54,.61-1.06,.92-1.59,.65-1.12,.66-1.13-.45-1.76-.69-.4-1.04-.92-.8-1.72,.79-2.61,.78-5.21,0-7.82-.21-.71,.03-1.25,.68-1.61,.29-.16,.58-.32,.86-.51,.12-.08,.33-.1,.28-.34-.41-.72-.89-1.42-1.23-2.17-.36-.82-.77-.89-1.45-.37Z"/>
        <path class="cls-1" d="M1343.29,147.65c.15-.09,.38-.13,.4-.37-.2-.33-.42-.66-.59-1.01-.15-.31-.3-.33-.57-.15-.76,.49-1.39,.29-2-.34-1.08-1.13-2.39-1.91-3.92-2.26-.83-.2-1.35-.63-1.35-1.54,0-.84-.64-.36-.98-.44-.32-.07-.75-.15-.71,.47,.05,.83-.42,1.29-1.19,1.47-1.62,.38-2.99,1.19-4.14,2.38-.53,.56-1.14,.73-1.8,.32-.77-.49-.71,.3-.96,.58-.29,.33-.48,.65,.13,.94,.67,.32,.82,.92,.61,1.63-.48,1.62-.48,3.25,0,4.86,.17,.56,.18,1.18-.32,1.44-.95,.5-.57,.98-.2,1.59,.21,.33,.37,.43,.7,.2,.71-.49,1.3-.27,1.85,.3,1.15,1.19,2.54,1.99,4.14,2.39,.76,.19,1.2,.6,1.17,1.39-.03,.65,.4,.57,.77,.53,.36-.04,.95,.31,.94-.52,0-.68,.33-1.19,1.02-1.35,1.76-.41,3.24-1.29,4.49-2.59,.34-.35,.84-.64,1.28-.31,.87,.63,1.09-.01,1.42-.59,.19-.33,.28-.54-.16-.74-.72-.34-.89-.96-.68-1.69,.47-1.62,.46-3.25,.01-4.87-.21-.74-.04-1.32,.64-1.72Z"/>
        <path class="cls-1" d="M1404.57,155.94c-.75-.41-.92-1-.68-1.84,.46-1.56,.45-3.15-.01-4.71-.24-.79-.06-1.4,.67-1.76,.54-.27,.31-.57,.08-.82-.26-.27-.14-1.12-.92-.67-.75,.43-1.36,.24-1.94-.36-1.1-1.16-2.44-1.93-4-2.3-.8-.19-1.32-.63-1.26-1.5,.04-.64-.42-.52-.72-.46-.34,.06-.97-.39-.98,.45,0,.66-.25,1.21-.97,1.39-1.77,.45-3.31,1.3-4.56,2.64-.36,.39-.91,.56-1.3,.3-.82-.56-1.05-.06-1.38,.54-.21,.38-.29,.59,.18,.82,.67,.33,.85,.94,.65,1.63-.47,1.65-.48,3.29,0,4.94,.2,.68,.05,1.32-.64,1.63-.56,.25-.43,.56-.14,.85,.27,.28,.16,1.18,.97,.66,.64-.41,1.22-.29,1.73,.24,1.21,1.26,2.66,2.1,4.35,2.5,.61,.15,1.04,.52,1.04,1.14,0,.71,.3,.88,.91,.74,.59,.13,.88-.05,.85-.71-.02-.6,.38-1.01,.93-1.14,1.79-.42,3.29-1.32,4.57-2.63,.32-.33,.79-.59,1.21-.31,.95,.65,1.17-.08,1.53-.68,.2-.33,.1-.46-.2-.62Z"/>
      </g>
      <path class="cls-1" d="M1363.82,110.94c.39-1.02,.78-2.04,1.17-3.06,.48-1.29-.05-2.06-1.44-2.06-1.34,0-2.68,0-4.21,0,2.16-2.37,4.22-4.64,6.27-6.9,.04,.02,.08,.05,.12,.07-.41,1.08-.81,2.16-1.21,3.25-.48,1.32,.03,2.05,1.43,2.05,1.34,0,2.68,0,4.2,0-2.11,2.32-4.13,4.54-6.15,6.76-.06-.04-.12-.07-.18-.11Z"/>
      <path class="cls-7" d="M1364.76,138.39c-3.86-.02-6.99,3.16-6.95,7.06,.04,3.84,3.13,6.88,6.96,6.85,3.85-.02,6.99-3.19,6.95-6.99-.04-3.79-3.18-6.9-6.96-6.92Zm-.11,11.35c-2.38-.02-4.31-2-4.3-4.41,0-2.43,1.98-4.36,4.44-4.34,2.43,.01,4.32,1.92,4.33,4.36,0,2.51-1.94,4.42-4.47,4.39Z"/>
      <path class="cls-7" d="M1334.44,146.64c-2.85,0-5.13,2.29-5.13,5.15,0,2.85,2.3,5.15,5.15,5.14,2.82-.01,5.1-2.34,5.09-5.2,0-2.8-2.3-5.08-5.11-5.09Zm0,7.73c-1.42,0-2.62-1.21-2.59-2.63,.02-1.39,1.19-2.53,2.59-2.53,1.39,0,2.57,1.15,2.6,2.52,.03,1.39-1.19,2.63-2.6,2.63Z"/>
      <path class="cls-7" d="M1395.65,146.64c-2.81,0-5.11,2.28-5.12,5.08-.01,2.87,2.25,5.19,5.08,5.21,2.84,.02,5.15-2.28,5.16-5.13,0-2.87-2.27-5.17-5.12-5.16Zm-.04,7.73c-1.37-.03-2.55-1.2-2.56-2.56-.02-1.39,1.19-2.59,2.6-2.59,1.42,0,2.61,1.17,2.6,2.58-.01,1.41-1.23,2.6-2.63,2.57Z"/>
      <g>
        <path class="cls-7" d="M525.92,186.71c.18-1.99-1.55-3.59-3.56-3.57-7.07,.07-14.14,.03-21.21,.02-.82,0-1.4-.45-1.42-1.06-.02-.66,.56-1.11,1.42-1.12,2.39,0,4.77,0,7.16,0,2.03,0,3.41-1.38,3.41-3.42,0-2.71,0-5.41,0-8.12,0-.4,.06-.62,.5-.79,1.54-.59,2.46-1.77,2.73-3.38,.12-.73,.08-1.5,.03-2.25-.04-.53,.17-.69,.66-.75,5.71-.73,10.24-5.85,10.26-11.59,.01-2.98,0-5.96,0-8.93,0-.27,0-.55-.07-.81-.39-1.56-1.64-2.53-3.27-2.53q-1.02,0-1.02-1.03c0-2.55,0-5.09,0-7.64,0-2.51-1.9-4.42-4.36-4.43-2.47,0-4.36,1.91-4.37,4.41,0,2.66-.03,5.32,.02,7.98,.01,.64-.19,.74-.75,.71-.95-.05-1.91-.05-2.86,0-.59,.03-.8-.09-.79-.75,.04-2.66,.02-5.32,.02-7.98,0-2.46-1.91-4.38-4.34-4.38-2.48,0-4.38,1.9-4.39,4.39,0,2.57,0,5.14,0,7.71q0,.99-.98,1c-1.99,0-3.38,1.39-3.38,3.38,0,2.89,0,5.77,0,8.66,0,5.47,3.66,10.17,8.96,11.59,.64,.17,1.56-.03,1.87,.51,.29,.52,.07,1.33,.08,2.01,0,1.88,1.05,3.44,2.81,4.1,.41,.15,.48,.36,.47,.74-.01,2.64,0,5.27,0,7.91,0,1.09-.39,1.47-1.48,1.47-2.39,0-4.77,0-7.16,0-.29,0-.58,0-.88,.08-1.66,.46-2.69,1.97-2.47,3.65,.21,1.59,1.65,2.81,3.33,2.81,3.59,0,7.18,0,10.77,0s7,0,10.5,0c1.22,0,1.56,.35,1.56,1.59,0,.09,0,.18,0,.27-.01,.99-.41,1.41-1.41,1.41-12.93,0-25.87,.01-38.8,0-4.45,0-7.78-3.36-7.8-7.81-.02-6.66,0-13.32-.02-19.98,0-.5,.15-.58,.61-.58,3.02,.02,6.05,.01,9.07,.01,2.04,0,3.43-1.37,3.43-3.4,0-9.37,0-18.73,0-28.1,0-2.04-1.38-3.42-3.4-3.42-7.18,0-14.37,0-21.55,0-2.04,0-3.41,1.37-3.41,3.41,0,9.37,0,18.73,0,28.1,0,2.03,1.38,3.41,3.42,3.41,3,0,6,.02,9-.02,.58,0,.69,.15,.69,.71-.02,6.64-.01,13.28-.01,19.91,0,.41-.02,.82,.03,1.23,.66,5.1,4.78,8.72,9.91,8.72,6.41,0,12.82,0,19.23,0,6.64,0,13.28,0,19.91,0,1.53,0,2.72-.93,3.17-2.4,.17-.56,.06-1.13,.12-1.69Zm-10.9-57.01c0-1.24,.99-2.18,2.16-2.19,1.18,0,2.17,.97,2.18,2.24,.03,1.91,0,3.82,0,5.73,0,1.89-.01,3.77,.01,5.66,0,.43-.08,.58-.55,.57-1.14-.04-2.27-.02-3.41,0-.32,0-.43-.07-.42-.41,.01-3.86,0-7.73,.02-11.59Zm-13.1,5.75c0-1.89-.01-3.77,0-5.66,.01-1.17,.7-1.99,1.81-2.23,.91-.2,1.91,.34,2.33,1.26,.15,.33,.22,.69,.22,1.05,0,3.77,0,7.55,0,11.32,0,.43-.12,.53-.53,.52-1.11-.03-2.23-.03-3.34,0-.44,.01-.52-.13-.51-.53,.02-1.91,0-3.82,0-5.73Zm4.39,24.25c-.05,.43-.2,.46-.54,.41-4.1-.58-7.64-4.27-8.11-8.4-.2-1.79-.03-3.59-.11-5.02,0-1.79,0-3.22,0-4.65,0-1.13,.9-1.76,2-1.44,.24,.07,.18,.22,.18,.36,0,.59,0,1.18,0,1.77,.02,.73,.41,1.14,1.14,1.14,2.16,0,4.32,.01,6.48,0,.69,0,1.09-.42,1.11-1.11,.02-.57,.02-1.14,0-1.7-.01-.33,.05-.48,.44-.47,1.16,.03,2.32,.03,3.48,0,.42-.01,.48,.15,.47,.51-.03,.54-.02,1.09,0,1.64,.02,.73,.41,1.13,1.14,1.14,2.14,0,4.27,0,6.41,0,.77,0,1.16-.4,1.17-1.18,0-.57,.01-1.14,0-1.7,0-.28,.05-.38,.37-.4,1.39-.07,1.82,.31,1.82,1.69,0,2.61,0,5.23,0,7.84,0,5-3.13,8.86-7.99,9.94-.52,.11-.7,.08-.79-.54-.32-2.19-2.24-3.77-4.36-3.72-2.21,.05-4.02,1.67-4.28,3.89Zm2.16,4.82c-.02-.7,0-1.41,0-2.11,0-.7-.02-1.41,0-2.11,.04-1.27,.99-2.23,2.18-2.23,1.19,0,2.15,.98,2.17,2.24,.02,1.41,.02,2.81,0,4.22-.02,1.27-.96,2.24-2.15,2.26-1.2,.02-2.18-.98-2.2-2.28Zm-44.31-6.45c-1.14,0-1.52-.37-1.52-1.5,0-4.59,0-9.18,0-13.78s0-9.14,0-13.71c0-1.22,.35-1.57,1.58-1.57,6.96,0,13.91,0,20.87,0,1.19,0,1.55,.36,1.55,1.53,0,9.16,0,18.32,0,27.48,0,1.17-.37,1.54-1.55,1.54-6.98,0-13.96,0-20.94,0Z"/>
        <path class="cls-7" d="M510.71,161.34q1.03,0,1.03,1.02t-1.15,1.17-1.03-1.02,1.15-1.17Z"/>
        <path class="cls-7" d="M480.97,139.52c-1.57,0-3.14-.02-4.71,.01-.46,0-.56-.13-.55-.57,.03-1.16,.01-2.32,.01-3.48s-.02-2.27,0-3.41c.01-.62-.2-1.09-.81-1.25-.64-.17-1.08,.14-1.37,.72-2.12,4.25-4.25,8.49-6.36,12.75-.5,1.01-.03,1.77,1.1,1.77,1.57,0,3.14,.02,4.71,0,.45,0,.56,.12,.56,.56-.02,2.3,0,4.59-.02,6.89,0,.62,.2,1.09,.8,1.26,.64,.17,1.08-.14,1.37-.72,2.12-4.25,4.25-8.5,6.37-12.75,.5-1.01,.02-1.76-1.11-1.77Zm-5.13,9.29h-.12c0-1.14,0-2.28,0-3.42,0-1.22-.29-1.51-1.53-1.51-1.41,0-2.82,0-4.32,0,1.22-2.45,2.39-4.78,3.56-7.11l.11,.02c0,1.15,0,2.29,0,3.44,0,1.17,.31,1.47,1.5,1.47,1.41,0,2.82,0,4.35,0-1.2,2.41-2.37,4.76-3.55,7.11Z"/>
      </g>
      <g>
        <path class="cls-7" d="M141.03,203.74c-8.74,0-17.48,0-26.22,0-.3,0-.59,0-.88,.11-.49,.21-.72,.58-.7,1.11,.03,.5,.29,.82,.75,.99,.31,.12,.64,.09,.96,.09,8.59,0,17.18,0,25.77,0q1.07,0,1.07,1.04c0,19.59,0,39.18,0,58.77q0,1.06-1.05,1.06c-12.64,0-25.28,0-37.91,0-1.37,0-2.73-.02-4.1,.01-.44,0-.6-.09-.59-.57,.03-1.51,.02-3.03,0-4.54,0-.37,.09-.53,.48-.67,1.65-.57,2.69-2.05,2.69-3.72,0-1.67-1.01-3.08-2.7-3.7-.36-.13-.47-.3-.47-.68,.01-11.05,.01-22.1,0-33.15,0-.39,.13-.54,.48-.67,1.68-.62,2.69-2.03,2.69-3.71,0-1.67-1.04-3.16-2.7-3.71-.41-.14-.47-.31-.47-.67,.01-1.49,.03-2.98,0-4.47-.02-.56,.19-.63,.68-.63,2.58,.02,5.16,.01,7.75,.01,1.09,0,2.19,.03,3.28-.01,.75-.03,1.18-.51,1.16-1.18-.02-.63-.45-1.05-1.16-1.12-.2-.02-.4,0-.6,0-3.7,0-7.4,0-11.1,0-.54,0-1-.12-1.47-.39-2.72-1.56-5.45-3.11-8.2-4.64-1.57-.88-3.3-.13-3.64,1.55-.07,.34-.05,.69-.05,1.04,0,23.44,0,46.88-.02,70.32,0,1.43,.46,2.44,1.79,3h1.19c.48-.26,.96-.5,1.43-.77,2.47-1.41,4.94-2.82,7.4-4.24,.47-.27,.93-.39,1.47-.39,14.33,.01,28.65,0,42.98,0,1.97,0,3.03-1.06,3.03-3.03,0-19.81,0-39.63,0-59.44,0-1.96-1.06-3.02-3.03-3.03Zm-45.68,63.98c-2.54,1.44-5.07,2.89-7.6,4.34-.67,.38-.68,.38-.68-.42,0-9.46,0-18.92,0-28.38v-6.78c0-11.65,0-23.29,0-34.94,0-.17,0-.35,0-.52-.02-.34,.08-.47,.42-.27,2.69,1.53,5.38,3.06,8.07,4.57,.28,.16,.28,.37,.28,.62,0,1.81,0,3.63,0,5.44,0,.31-.1,.48-.36,.65-.81,.52-1.21,1.28-1.2,2.25,0,.89,0,1.79,.01,2.68,0,.86,.41,1.53,1.1,2,.33,.22,.45,.43,.45,.83-.01,11.12-.01,22.25,0,33.37,0,.38-.09,.61-.44,.84-.72,.47-1.11,1.18-1.12,2.07,0,.89,0,1.79,0,2.68,0,.94,.4,1.68,1.19,2.18,.3,.19,.37,.4,.37,.72-.01,1.76-.02,3.53,0,5.29,0,.42-.18,.61-.5,.79Zm1.2-52.24c0-.27,0-.54,0-.81,0-.77,.2-.93,.99-.8,.99,.17,1.61,.96,1.47,1.87-.15,.97-.95,1.54-1.98,1.43-.33-.03-.49-.16-.48-.51,.01-.39,0-.79,0-1.18Zm.36,43.62c-.25-.07-.37-.21-.36-.48,0-.39,0-.79,0-1.18,0-.2,0-.39,0-.59,0-1.06,.37-1.32,1.4-.97,.82,.28,1.28,1.26,.99,2.11-.26,.77-1.28,1.33-2.03,1.12Z"/>
        <path class="cls-7" d="M136.18,212.45c0-1.41-.3-1.71-1.68-1.71-9.71,0-19.41,0-29.12,0-1.34,0-1.68,.33-1.68,1.65,0,11.47,0,22.94,0,34.41,0,4.67,0,9.33,0,14,0,.94,.38,1.43,1.22,1.44,3.57,.02,7.15,.02,10.72,0,.77,0,1.22-.53,1.17-1.24-.05-.71-.53-1.05-1.51-1.06-2.88,0-5.76-.01-8.64,0-.52,0-.74-.08-.72-.68,.05-1.69,.04-3.38,0-5.06,0-.5,.15-.61,.62-.61,8.94,.01,17.87,.01,26.81,0,.45,0,.58,.1,.58,.57-.03,1.71-.03,3.43,0,5.14,.01,.53-.14,.65-.66,.64-4.17-.02-8.34-.01-12.51,0-.32,0-.65,.02-.96,.09-.43,.1-.67,.42-.76,.83-.09,.42,.04,.79,.36,1.07,.34,.3,.76,.31,1.19,.31,4.64,0,9.28,0,13.93,0,1.31,0,1.64-.32,1.64-1.61,0-8.04,0-16.09,0-24.13s0-16.04,0-24.06Zm-10.06,1.12c0-.35,.05-.54,.47-.53,2.3,.02,4.61,.02,6.91,0,.37,0,.46,.12,.45,.47-.02,.77-.03,1.54,0,2.3,.01,.37-.11,.46-.46,.45-1.14-.02-2.28,0-3.42,0s-2.28-.02-3.42,0c-.42,0-.56-.11-.54-.54,.03-.72,.02-1.44,0-2.15Zm7.83,12.69c0,.29-.04,.45-.39,.44-2.33-.02-4.67-.02-7,0-.4,0-.43-.18-.43-.5,.01-1.22,0-2.43,0-3.65,0-1.17,.01-2.33,0-3.5,0-.39,.1-.53,.5-.51,.59,.03,1.19,.03,1.79,0,.41-.02,.49,.14,.48,.51-.02,1.07-.01,2.13,0,3.2,0,.85,.42,1.38,1.1,1.4,.69,.02,1.15-.52,1.16-1.42,0-1.02,.03-2.04-.01-3.05-.02-.54,.17-.68,.68-.65,.57,.04,1.14,.02,1.71,0,.31-.01,.43,.08,.43,.41-.01,2.43-.01,4.87,0,7.3Zm-17.9-12.78c-.01-.38,.12-.45,.47-.45,1.14,.02,2.28,0,3.42,0,1.11,0,2.23,.01,3.34,0,.39,0,.58,.05,.56,.51-.04,.74-.03,1.49,0,2.23,.02,.41-.14,.49-.51,.48-2.25-.02-4.51-.01-6.76,0-.35,0-.54-.04-.52-.47,.04-.77,.03-1.54,0-2.3Zm0,5.6c0-.41,.09-.58,.53-.54,.71,.06,1.62-.28,2.09,.13,.44,.39,.11,1.31,.13,1.99,.02,.57-.01,1.14,.01,1.71,.04,.79,.51,1.29,1.16,1.28,.65-.01,1.12-.53,1.13-1.31,.02-1.09,.02-2.18,0-3.27-.01-.43,.13-.55,.54-.53,.57,.03,1.14,.03,1.71,0,.41-.03,.49,.15,.48,.51-.02,1.19,0,2.38,0,3.57s-.02,2.38,0,3.57c0,.39-.1,.5-.49,.5-2.26-.02-4.51-.02-6.77,0-.44,0-.52-.15-.52-.55,.02-2.36,.02-4.71,0-7.07Zm-10.1-5.55c-.02-.4,.13-.5,.51-.5,2.28,.01,4.56,.01,6.84,0,.38,0,.53,.09,.51,.5-.03,.74-.03,1.49,0,2.23,.02,.41-.14,.5-.51,.49-1.14-.02-2.28,0-3.42,0s-2.28-.01-3.42,0c-.37,0-.53-.08-.51-.49,.03-.74,.03-1.49,0-2.23Zm0,9.1c0-1.19,.01-2.38,0-3.57,0-.38,.09-.53,.49-.52,.67,.03,1.34,.03,2.01,0,.42-.02,.48,.16,.48,.52-.02,1.07-.01,2.13,0,3.2,0,.85,.42,1.38,1.1,1.4,.69,.02,1.15-.52,1.16-1.41,0-1.04,.03-2.08,0-3.12-.02-.47,.14-.61,.59-.58,.49,.04,.99,.04,1.49,0,.48-.04,.57,.16,.57,.6-.02,2.33-.02,4.66,0,6.99,0,.48-.15,.57-.59,.57-2.23-.02-4.46-.02-6.69,0-.45,0-.6-.11-.59-.58,.03-1.16,.01-2.33,.01-3.5Zm-.02,11.99c.05-1.66,.03-3.33,0-4.99,0-.46,.07-.64,.6-.64,8.96,.02,17.92,.02,26.88,0,.42,0,.54,.11,.53,.53-.02,1.74-.03,3.47,0,5.21,0,.5-.15,.6-.62,.6-4.47-.02-8.93-.01-13.4-.01s-8.83-.01-13.25,.01c-.57,0-.76-.12-.74-.73Zm7.87,5.74c.02,.41-.14,.5-.51,.49-2.28-.01-4.56-.01-6.84,0-.37,0-.53-.09-.51-.49,.03-.74,.03-1.49,0-2.23-.02-.41,.14-.5,.51-.49,1.16,.02,2.33,0,3.49,0s2.23,.01,3.34,0c.37,0,.53,.08,.52,.49-.03,.74-.03,1.49,0,2.23Zm0,6.85c0,1.17-.02,2.33,0,3.5,0,.42-.05,.62-.55,.61-2.26-.03-4.51-.02-6.77,0-.42,0-.55-.12-.54-.55,.02-2.36,.02-4.71,0-7.07,0-.48,.16-.59,.6-.56,.71,.04,1.66-.24,2.08,.12,.45,.38,.11,1.35,.13,2.06,.02,.59,0,1.19,0,1.79,.02,.67,.5,1.14,1.12,1.14,.62,0,1.1-.48,1.11-1.15,.02-1.14,.02-2.28,0-3.42,0-.41,.09-.57,.53-.54,.57,.04,1.14,.04,1.71,0,.45-.03,.6,.1,.59,.57-.03,1.16-.01,2.33-.01,3.5Zm2.25-9.13c-.02-.38,.13-.45,.47-.44,1.14,.02,2.28,0,3.42,0,1.11,0,2.23,.03,3.34-.01,.48-.02,.58,.15,.56,.59-.04,.69-.03,1.39,0,2.08,.01,.39-.06,.56-.51,.56-2.25-.02-4.5-.02-6.76,0-.35,0-.54-.04-.52-.47,.04-.77,.03-1.53,0-2.3Zm7.78,9.15c0,1.19-.01,2.38,0,3.57,0,.38-.1,.51-.5,.51-2.26-.02-4.52-.02-6.78,0-.37,0-.52-.08-.51-.49,.02-2.41,.02-4.82,0-7.22,0-.35,.09-.49,.45-.46,.74,.06,1.68-.29,2.16,.13,.45,.4,.1,1.36,.13,2.07,.02,.57-.02,1.14,.02,1.71,.05,.74,.53,1.21,1.16,1.2,.64-.01,1.11-.5,1.13-1.23,.03-1.09,.02-2.18,0-3.28,0-.42,.05-.65,.55-.59,.71,.08,1.65-.3,2.06,.15,.35,.39,.11,1.32,.12,2.01,0,.65,0,1.29,0,1.94Zm2.29-7c.04-.69,.03-1.39,0-2.08-.01-.37,.07-.52,.48-.51,2.3,.02,4.6,.02,6.91,0,.38,0,.45,.14,.44,.47-.02,.77-.03,1.54,0,2.3,.02,.39-.14,.45-.47,.44-1.16-.02-2.33,0-3.49,0-1.09,0-2.18-.03-3.27,.01-.5,.02-.63-.15-.61-.63Zm7.82,5.09c.02,1.81-.01,3.62,.02,5.43,0,.47-.13,.58-.58,.57-2.21-.02-4.41-.03-6.62,0-.56,0-.65-.21-.64-.69,.03-1.14,0-2.28,0-3.42,0-1.19,.01-2.38,0-3.57,0-.39,.11-.52,.5-.5,.59,.03,1.19,.03,1.78,0,.41-.02,.49,.13,.48,.51-.02,1.09-.01,2.18,0,3.27,0,.83,.47,1.35,1.17,1.33,.66-.02,1.08-.51,1.09-1.32,.01-1.09,.02-2.18,0-3.27,0-.39,.11-.53,.5-.51,.74,.03,1.69-.24,2.16,.12,.45,.34,.12,1.34,.13,2.06Z"/>
      </g>
      <g>
        <path class="cls-7" d="M143.91,23.33c0-2.39-1.71-4.1-4.1-4.11-2.6,0-5.19-.01-7.79,0-.48,0-.75-.11-.96-.57-.39-.89-.83-1.76-1.3-2.61-.78-1.44-2-2.19-3.66-2.19-7.79,0-15.58,0-23.37,0-1.62,0-2.83,.71-3.61,2.13-.45,.83-.9,1.67-1.27,2.53-.23,.54-.52,.73-1.12,.72-2.51-.04-5.03-.02-7.54-.02-2.62,0-4.26,1.66-4.26,4.28,0,10.16,0,20.33,0,30.49s0,20.55,0,30.83c0,2.39,1.72,4.1,4.1,4.11,2.57,0,5.14,.02,7.71-.01,.55,0,.86,.13,1.08,.64,.36,.84,.78,1.66,1.21,2.47,.81,1.51,2.06,2.27,3.79,2.27,7.73-.01,15.47-.01,23.2,0,1.74,0,2.98-.77,3.79-2.28,.42-.78,.84-1.57,1.18-2.39,.23-.54,.52-.73,1.12-.72,2.57,.04,5.14,.02,7.71,.01,2.38,0,4.09-1.72,4.09-4.12,0-20.5,0-40.99,0-61.49Zm-2.68,60.91c0,1.61-.4,2.01-2.03,2.01-2.79,0-5.58,.02-8.38-.01-.83,0-1.35,.29-1.7,1.05-.51,1.11-1.11,2.18-1.63,3.29-.34,.71-.85,1.04-1.64,1.04-7.62,0-15.25,0-22.87,0-.79,0-1.3-.33-1.64-1.04-.53-1.13-1.12-2.24-1.66-3.37-.33-.68-.82-.98-1.59-.97-2.9,.02-5.81,.01-8.71,0-1.28,0-1.77-.49-1.77-1.77,0-20.27,0-40.55,0-60.82,0-1.27,.49-1.76,1.78-1.76,2.88,0,5.75-.02,8.63,.01,.84,0,1.35-.31,1.7-1.06,.51-1.11,1.11-2.18,1.63-3.29,.34-.72,.85-1.04,1.64-1.03,7.62,0,15.25,0,22.87,0,.79,0,1.3,.32,1.64,1.04,.53,1.13,1.12,2.24,1.67,3.36,.33,.68,.81,.98,1.58,.98,2.88-.03,5.75-.01,8.63-.01,1.39,0,1.86,.46,1.86,1.85,0,10.14,0,20.27,0,30.41s0,20.05,0,30.08Z"/>
        <path class="cls-7" d="M114.43,35.31c10.48,0,18.75,8.38,18.75,18.99,0,10.19-8.48,18.56-18.78,18.55-10.44-.01-18.76-8.4-18.75-18.91,0-10.28,8.42-18.63,18.78-18.63Z"/>
        <path class="cls-7" d="M114.4,23.25c7.46,0,14.91,0,22.37,0,1.39,0,1.78,.39,1.78,1.78,0,5.08,0,10.16,0,15.25,0,1.33-.41,1.74-1.74,1.74-1.59,0-3.18,0-4.77,0-.98,0-1.54-.51-1.52-1.37,.01-.81,.56-1.3,1.49-1.31,1.12,0,2.23-.02,3.35,0,.38,0,.53-.08,.53-.5-.02-4.13-.01-8.27,0-12.4,0-.38-.08-.58-.5-.52-.14,.02-.28,0-.42,0-13.71,0-27.42,0-41.13-.02-.66,0-.89,.1-.88,.84,.04,3.91,.04,7.82,0,11.73,0,.66,.1,.93,.84,.88,1.03-.07,2.06-.03,3.1-.02,.91,.01,1.46,.54,1.44,1.36-.01,.78-.55,1.3-1.41,1.31-1.73,.01-3.46,.01-5.19,0-.94,0-1.43-.5-1.43-1.45,0-5.28,0-10.56,0-15.83,0-1.02,.49-1.48,1.58-1.48,7.51,0,15.02,0,22.53,0Z"/>
        <path class="cls-7" d="M114.42,84.92c-7.46,0-14.91,0-22.37,0-1.38,0-1.77-.4-1.77-1.8,0-5.08,0-10.16,0-15.25,0-1.33,.41-1.72,1.75-1.72,1.59,0,3.18,0,4.77,0,.97,0,1.53,.52,1.51,1.38-.02,.81-.57,1.29-1.51,1.3-1.12,0-2.23,.02-3.35,0-.4,0-.51,.11-.51,.51,.01,4.13,.01,8.27,0,12.4,0,.4,.11,.57,.51,.51,.11-.02,.22,0,.33,0,13.74,0,27.48,0,41.21,.02,.69,0,.87-.14,.86-.85-.04-3.94-.03-7.87,0-11.81,0-.62-.13-.81-.77-.78-1.06,.06-2.12,.03-3.18,.01-.9-.01-1.45-.56-1.43-1.38,.02-.78,.56-1.29,1.42-1.3,1.73-.01,3.46-.01,5.19,0,.94,0,1.42,.5,1.42,1.46,0,5.28,0,10.56,0,15.83,0,1.01-.5,1.47-1.59,1.47-7.51,0-15.02,0-22.53,0Z"/>
        <path class="cls-7" d="M90.29,54.08c0-2.57,0-5.14,0-7.7,0-1.24,.43-1.67,1.63-1.67,.78,0,1.56-.01,2.34,0,.85,.02,1.38,.55,1.38,1.34,0,.79-.54,1.3-1.39,1.34q-1.29,.05-1.29,1.39c0,3.77,.01,7.54-.02,11.31,0,.59,.14,.81,.73,.72,.25-.04,.5-.02,.75,0,.73,.06,1.21,.61,1.21,1.34,0,.72-.49,1.3-1.22,1.32-.98,.04-1.95,.04-2.93,0-.77-.03-1.2-.6-1.21-1.5,0-2.62,0-5.25,0-7.87Z"/>
        <path class="cls-7" d="M138.55,54.08c0,2.57,0,5.14,0,7.71,0,1.26-.43,1.68-1.72,1.68-.75,0-1.51,.01-2.26,0-.85-.02-1.38-.55-1.38-1.34,0-.79,.53-1.31,1.38-1.34q1.3-.05,1.3-1.38c0-3.77-.01-7.54,.01-11.31,0-.58-.13-.82-.73-.72-.25,.04-.5,.02-.75,0-.73-.06-1.22-.61-1.22-1.33,0-.73,.48-1.3,1.21-1.33,.98-.04,1.95-.04,2.93,0,.77,.03,1.21,.6,1.21,1.5,0,2.62,0,5.25,0,7.87Z"/>
        <path class="cls-1" d="M98.33,54.14c-.1-8.71,7.15-16.06,15.92-16.14,8.82-.08,16.19,7.13,16.25,15.9,.06,8.9-7.08,16.18-15.96,16.26-8.84,.08-16.11-7.1-16.21-16.02Z"/>
        <path class="cls-7" d="M117.3,51.4c.79,0,1.52,0,2.24,0,1.42,.01,2,1.01,1.27,2.24-1.8,3.04-3.62,6.07-5.44,9.1-.73,1.22-1.46,2.43-2.19,3.65-.6,1-1.19,1.31-1.93,1.02-.7-.27-.96-.9-.82-1.98,.37-2.87,.74-5.74,1.11-8.67-.79,0-1.54,0-2.29,0-1.4-.02-1.95-1.03-1.2-2.28,2.31-3.87,4.63-7.73,6.95-11.6,.31-.53,.61-1.06,.95-1.57,.38-.59,.96-.78,1.6-.56,.61,.21,.96,.69,.89,1.36-.23,2.08-.49,4.15-.74,6.22-.12,1-.25,1.99-.39,3.08Z"/>
        <path class="cls-1" d="M114.06,59.05c.08-.86,.13-1.72,.26-2.57,.3-1.92-.07-2.39-1.98-2.39-.24,0-.49,0-.9,0,1.1-1.81,2.14-3.5,3.17-5.19,.17-.01,.25,.05,.17,.23-.08,.86-.13,1.72-.26,2.57-.3,1.92,.06,2.39,1.98,2.39,.24,0,.49,0,.91,0-1.1,1.81-2.14,3.5-3.17,5.19-.17,.01-.25-.05-.17-.23Z"/>
        <path class="cls-19" d="M114.78,49.12c-.06-.08-.11-.15-.17-.23,.03-.17,.1-.3,.26-.39,.08,.23,.05,.43-.09,.61Z"/>
        <path class="cls-19" d="M114.06,59.05c.06,.08,.11,.15,.17,.23-.07,.14-.14,.28-.23,.48-.11-.32-.08-.52,.06-.71Z"/>
      </g>
    </g>
  </g>
</svg>