<?xml version="1.0" encoding="UTF-8"?>
<svg id="_圖層_2" data-name="圖層 2" xmlns="http://www.w3.org/2000/svg" viewBox="0 0 1119.31 619.93">
  <defs>
    <style>
      .cls-1 {
        fill: #30697a;
      }

      .cls-2 {
        fill: #fff;
        font-family: NotoSerifTC-Bold-90ms-RKSJ-H, 'Noto Serif TC';
        font-size: 20.83px;
        letter-spacing: .08em;
      }

      .cls-3 {
        fill: none;
        stroke: #30697a;
        stroke-miterlimit: 10;
      }
    </style>
  </defs>
  <g id="_圖層_1-2" data-name="圖層 1">
    <g>
      <g>
        <line class="cls-3" x1="1003.22" y1="521.05" x2="1024" y2="521.05"/>
        <line class="cls-3" x1="1003.22" y1="618.37" x2="1024" y2="618.37"/>
        <line class="cls-3" x1="1013.61" y1="521.05" x2="1013.61" y2="618.37"/>
        <rect class="cls-1" x="1024.47" y="553.57" width="94.84" height="22.45" rx="11.23" ry="11.23"/>
        <text class="cls-2" transform="translate(1042.6 572.77)"><tspan x="0" y="0">4.8M</tspan></text>
      </g>
      <g>
        <line class="cls-3" x1="414.8" y1="522.11" x2="435.58" y2="522.11"/>
        <line class="cls-3" x1="414.8" y1="619.43" x2="435.58" y2="619.43"/>
        <g>
          <line class="cls-3" x1="425.19" y1="522.11" x2="425.19" y2="619.43"/>
          <rect class="cls-1" x="436.05" y="554.63" width="94.84" height="22.45" rx="11.23" ry="11.23"/>
          <text class="cls-2" transform="translate(454.18 573.82)"><tspan x="0" y="0">4.8M</tspan></text>
        </g>
      </g>
      <g>
        <line class="cls-3" x1="780.53" y1="4.05" x2="801.31" y2="4.05"/>
        <line class="cls-3" x1="780.53" y1="135.37" x2="801.31" y2="135.37"/>
        <line class="cls-3" x1="790.92" y1="4.05" x2="790.92" y2="135.37"/>
        <rect class="cls-1" x="801.79" y="53.28" width="94.84" height="22.45" rx="11.23" ry="11.23"/>
        <text class="cls-2" transform="translate(819.91 72.48)"><tspan x="0" y="0">6.2M</tspan></text>
      </g>
      <g>
        <line class="cls-3" x1="583.99" y1="6.82" x2="604.76" y2="6.82"/>
        <line class="cls-3" x1="583.99" y1="136.14" x2="604.76" y2="136.14"/>
        <line class="cls-3" x1="594.38" y1="6.82" x2="594.38" y2="136.14"/>
        <rect class="cls-1" x="605.24" y="54.05" width="94.84" height="22.45" rx="11.23" ry="11.23"/>
        <text class="cls-2" transform="translate(623.36 73.24)"><tspan x="0" y="0">6.2M</tspan></text>
      </g>
      <g>
        <line class="cls-3" x1="320.72" y1=".5" x2="341.5" y2=".5"/>
        <line class="cls-3" x1="320.39" y1="116.14" x2="341.16" y2="116.14"/>
        <g>
          <line class="cls-3" x1="330.77" y1=".5" x2="330.77" y2="116.14"/>
          <rect class="cls-1" x="342.66" y="49.03" width="94.84" height="22.45" rx="11.23" ry="11.23"/>
          <text class="cls-2" transform="translate(360.78 68.22)"><tspan x="0" y="0">5.5M</tspan></text>
        </g>
      </g>
      <g>
        <g>
          <line class="cls-3" x1="592.47" y1="380.73" x2="613.25" y2="380.73"/>
          <line class="cls-3" x1="592.47" y1="619.3" x2="613.25" y2="619.3"/>
          <line class="cls-3" x1="602.86" y1="380.73" x2="602.86" y2="619.02"/>
        </g>
        <rect class="cls-1" x="615.09" y="475.5" width="94.84" height="22.45" rx="11.23" ry="11.23"/>
        <text class="cls-2" transform="translate(628.21 494.69)"><tspan x="0" y="0">11.5M</tspan></text>
      </g>
      <g>
        <g>
          <line class="cls-3" x1="206.51" y1="294.14" x2="206.8" y2="314.92"/>
          <line class="cls-3" x1="53.74" y1="296.28" x2="54.03" y2="317.05"/>
          <line class="cls-3" x1="206.65" y1="303.33" x2="54.17" y2="306.66"/>
        </g>
        <rect class="cls-1" x="81.63" y="264.34" width="94.84" height="22.45" rx="11.23" ry="11.23"/>
        <text class="cls-2" transform="translate(99.75 283.54)"><tspan x="0" y="0">7.3M</tspan></text>
      </g>
      <g>
        <g>
          <line class="cls-3" x1="206.36" y1="329.47" x2="206.65" y2="350.25"/>
          <line class="cls-3" x1=".5" y1="332.8" x2=".79" y2="353.58"/>
          <line class="cls-3" x1="206.51" y1="339.86" x2="1.24" y2="343.19"/>
        </g>
        <rect class="cls-1" x="82.99" y="354.14" width="94.84" height="22.45" rx="11.23" ry="11.23"/>
        <text class="cls-2" transform="translate(105.4 373.33)"><tspan x="0" y="0">11M</tspan></text>
      </g>
      <g>
        <g>
          <line class="cls-3" x1="813.74" y1="380.58" x2="834.52" y2="380.58"/>
          <line class="cls-3" x1="813.74" y1="619.16" x2="834.52" y2="619.16"/>
          <line class="cls-3" x1="824.13" y1="380.58" x2="824.13" y2="618.88"/>
        </g>
        <rect class="cls-1" x="841.93" y="558.06" width="94.84" height="22.45" rx="11.23" ry="11.23"/>
        <text class="cls-2" transform="translate(855.05 577.25)"><tspan x="0" y="0">11.5M</tspan></text>
      </g>
    </g>
  </g>
</svg>