<?xml version="1.0" encoding="UTF-8"?>
<svg id="_圖層_2" data-name="圖層 2" xmlns="http://www.w3.org/2000/svg" viewBox="0 0 1151.9 619.93">
  <defs>
    <style>
      .cls-1 {
        fill: #30697a;
      }

      .cls-2 {
        fill: #fff;
        font-family: NotoSerifTC-Bold-90ms-RKSJ-H, 'Noto Serif TC';
        font-size: 20.83px;
        letter-spacing: .08em;
      }

      .cls-3 {
        fill: none;
        stroke: #30697a;
        stroke-miterlimit: 10;
      }
    </style>
  </defs>
  <g id="_圖層_1-2" data-name="圖層 1">
    <g>
      <line class="cls-3" x1="1035.81" y1="521.05" x2="1056.58" y2="521.05"/>
      <line class="cls-3" x1="1035.81" y1="618.37" x2="1056.58" y2="618.37"/>
      <line class="cls-3" x1="1046.19" y1="521.05" x2="1046.19" y2="618.37"/>
      <rect class="cls-1" x="1057.06" y="553.57" width="94.84" height="22.45" rx="11.23" ry="11.23"/>
      <text class="cls-2" transform="translate(1075.18 572.77)"><tspan x="0" y="0">4.8M</tspan></text>
      <line class="cls-3" x1="447.38" y1="522.11" x2="468.16" y2="522.11"/>
      <line class="cls-3" x1="447.38" y1="619.43" x2="468.16" y2="619.43"/>
      <line class="cls-3" x1="457.77" y1="522.11" x2="457.77" y2="619.43"/>
      <rect class="cls-1" x="468.63" y="554.63" width="94.84" height="22.45" rx="11.23" ry="11.23"/>
      <text class="cls-2" transform="translate(486.76 573.82)"><tspan x="0" y="0">4.8M</tspan></text>
      <line class="cls-3" x1="813.12" y1="4.05" x2="833.9" y2="4.05"/>
      <line class="cls-3" x1="813.12" y1="135.37" x2="833.9" y2="135.37"/>
      <line class="cls-3" x1="823.51" y1="4.05" x2="823.51" y2="135.37"/>
      <rect class="cls-1" x="834.37" y="53.28" width="94.84" height="22.45" rx="11.23" ry="11.23"/>
      <text class="cls-2" transform="translate(852.5 72.48)"><tspan x="0" y="0">6.2M</tspan></text>
      <line class="cls-3" x1="616.57" y1="6.82" x2="637.35" y2="6.82"/>
      <line class="cls-3" x1="616.57" y1="136.14" x2="637.35" y2="136.14"/>
      <line class="cls-3" x1="626.96" y1="6.82" x2="626.96" y2="136.14"/>
      <line class="cls-3" x1="353.31" y1=".5" x2="374.09" y2=".5"/>
      <line class="cls-3" x1="352.97" y1="116.14" x2="373.75" y2="116.14"/>
      <line class="cls-3" x1="363.36" y1=".5" x2="363.36" y2="116.14"/>
      <rect class="cls-1" x="637.82" y="54.05" width="94.84" height="22.45" rx="11.23" ry="11.23"/>
      <text class="cls-2" transform="translate(655.95 73.24)"><tspan x="0" y="0">6.2M</tspan></text>
      <rect class="cls-1" x="375.24" y="49.03" width="94.84" height="22.45" rx="11.23" ry="11.23"/>
      <text class="cls-2" transform="translate(393.36 68.22)"><tspan x="0" y="0">5.5M</tspan></text>
      <g>
        <line class="cls-3" x1="625.05" y1="380.73" x2="645.83" y2="380.73"/>
        <line class="cls-3" x1="625.05" y1="619.3" x2="645.83" y2="619.3"/>
        <line class="cls-3" x1="635.44" y1="380.73" x2="635.44" y2="619.02"/>
      </g>
      <g>
        <line class="cls-3" x1="239.09" y1="294.14" x2="239.38" y2="314.92"/>
        <line class="cls-3" x1="86.32" y1="296.28" x2="86.61" y2="317.05"/>
        <line class="cls-3" x1="239.24" y1="303.33" x2="86.75" y2="306.66"/>
      </g>
      <g>
        <line class="cls-3" x1="846.32" y1="380.58" x2="867.1" y2="380.58"/>
        <line class="cls-3" x1="846.32" y1="619.16" x2="867.1" y2="619.16"/>
        <line class="cls-3" x1="856.71" y1="380.58" x2="856.71" y2="618.88"/>
      </g>
      <rect class="cls-1" x="647.67" y="475.5" width="94.84" height="22.45" rx="11.23" ry="11.23"/>
      <text class="cls-2" transform="translate(660.8 494.69)"><tspan x="0" y="0">11.5M</tspan></text>
      <rect class="cls-1" x="114.21" y="264.34" width="94.84" height="22.45" rx="11.23" ry="11.23"/>
      <text class="cls-2" transform="translate(132.34 283.54)"><tspan x="0" y="0">7.3M</tspan></text>
      <rect class="cls-1" x="115.57" y="354.14" width="94.84" height="22.45" rx="11.23" ry="11.23"/>
      <text class="cls-2" transform="translate(137.98 373.33)"><tspan x="0" y="0">11M</tspan></text>
      <rect class="cls-1" x="874.51" y="558.06" width="94.84" height="22.45" rx="11.23" ry="11.23"/>
      <text class="cls-2" transform="translate(887.64 577.25)"><tspan x="0" y="0">11.5M</tspan></text>
      <g>
        <line class="cls-3" x1="238.94" y1="329.47" x2="239.24" y2="350.25"/>
        <line class="cls-3" x1=".5" y1="333.26" x2=".79" y2="354.03"/>
        <line class="cls-3" x1="239.09" y1="339.86" x2="1.33" y2="343.65"/>
      </g>
    </g>
  </g>
</svg>